  0
SECTION
  2
HEADER
  9
$ACADVER
  1
AC1009
  9
$EXTMIN
 10
0.0
 20
0.0
 30
0.0
  9
$EXTMAX
 10
1000.0
 20
1000.0
 30
0.0
  9
$FILLMODE
 70
 0
  9
$SPLFRAME
 70
 1
  0
ENDSEC
  0
SECTION
  2
TABLES
  0
TABLE
  2
LAYER
 70
1
  0
LAYER
  2
0
 70
     0
 62
     7
  6
CONTINUOUS
  0
ENDTAB
  0
ENDSEC
  0
SECTION
  2
ENTITIES
  0
LINE
  8
0
 62
     0
 10
117.796
 20
62.9363
 30
0.0
 11
118.188
 21
62.9211
 31
0.0
  0
LINE
  8
0
 62
     0
 10
118.188
 20
62.9211
 30
0.0
 11
118.577
 21
62.8756
 31
0.0
  0
LINE
  8
0
 62
     0
 10
118.577
 20
62.8756
 30
0.0
 11
118.963
 21
62.7987
 31
0.0
  0
LINE
  8
0
 62
     0
 10
118.963
 20
62.7987
 30
0.0
 11
119.341
 21
62.6925
 31
0.0
  0
LINE
  8
0
 62
     0
 10
119.341
 20
62.6925
 30
0.0
 11
119.709
 21
62.556
 31
0.0
  0
LINE
  8
0
 62
     0
 10
119.709
 20
62.556
 30
0.0
 11
120.064
 21
62.3919
 31
0.0
  0
LINE
  8
0
 62
     0
 10
120.064
 20
62.3919
 30
0.0
 11
120.408
 21
62.2004
 31
0.0
  0
LINE
  8
0
 62
     0
 10
120.408
 20
62.2004
 30
0.0
 11
120.734
 21
61.9827
 31
0.0
  0
LINE
  8
0
 62
     0
 10
120.734
 20
61.9827
 30
0.0
 11
121.043
 21
61.7403
 31
0.0
  0
LINE
  8
0
 62
     0
 10
121.043
 20
61.7403
 30
0.0
 11
121.331
 21
61.4729
 31
0.0
  0
LINE
  8
0
 62
     0
 10
121.331
 20
61.4729
 30
0.0
 11
121.598
 21
61.1851
 31
0.0
  0
LINE
  8
0
 62
     0
 10
121.598
 20
61.1851
 30
0.0
 11
121.841
 21
60.8764
 31
0.0
  0
LINE
  8
0
 62
     0
 10
121.841
 20
60.8764
 30
0.0
 11
122.058
 21
60.5497
 31
0.0
  0
LINE
  8
0
 62
     0
 10
122.058
 20
60.5497
 30
0.0
 11
122.251
 21
60.2065
 31
0.0
  0
LINE
  8
0
 62
     0
 10
122.251
 20
60.2065
 30
0.0
 11
122.415
 21
59.8509
 31
0.0
  0
LINE
  8
0
 62
     0
 10
122.415
 20
59.8509
 30
0.0
 11
122.55
 21
59.4829
 31
0.0
  0
LINE
  8
0
 62
     0
 10
122.55
 20
59.4829
 30
0.0
 11
122.657
 21
59.104
 31
0.0
  0
LINE
  8
0
 62
     0
 10
122.657
 20
59.104
 30
0.0
 11
122.734
 21
58.7195
 31
0.0
  0
LINE
  8
0
 62
     0
 10
122.734
 20
58.7195
 30
0.0
 11
122.779
 21
58.3297
 31
0.0
  0
LINE
  8
0
 62
     0
 10
122.779
 20
58.3297
 30
0.0
 11
122.796
 21
57.9367
 31
0.0
  0
LINE
  8
0
 62
     0
 10
122.796
 20
57.9367
 30
0.0
 11
122.796
 21
5.08635
 31
0.0
  0
LINE
  8
0
 62
     0
 10
122.796
 20
5.08635
 30
0.0
 11
122.779
 21
4.6936
 31
0.0
  0
LINE
  8
0
 62
     0
 10
122.779
 20
4.6936
 30
0.0
 11
122.734
 21
4.30361
 31
0.0
  0
LINE
  8
0
 62
     0
 10
122.734
 20
4.30361
 30
0.0
 11
122.657
 21
3.91915
 31
0.0
  0
LINE
  8
0
 62
     0
 10
122.657
 20
3.91915
 30
0.0
 11
122.55
 21
3.5402
 31
0.0
  0
LINE
  8
0
 62
     0
 10
122.55
 20
3.5402
 30
0.0
 11
122.415
 21
3.17362
 31
0.0
  0
LINE
  8
0
 62
     0
 10
122.415
 20
3.17362
 30
0.0
 11
122.251
 21
2.81671
 31
0.0
  0
LINE
  8
0
 62
     0
 10
122.251
 20
2.81671
 30
0.0
 11
122.058
 21
2.47496
 31
0.0
  0
LINE
  8
0
 62
     0
 10
122.058
 20
2.47496
 30
0.0
 11
121.841
 21
2.14836
 31
0.0
  0
LINE
  8
0
 62
     0
 10
121.841
 20
2.14836
 30
0.0
 11
121.598
 21
1.8383
 31
0.0
  0
LINE
  8
0
 62
     0
 10
121.598
 20
1.8383
 30
0.0
 11
121.331
 21
1.55029
 31
0.0
  0
LINE
  8
0
 62
     0
 10
121.331
 20
1.55029
 30
0.0
 11
121.043
 21
1.28433
 31
0.0
  0
LINE
  8
0
 62
     0
 10
121.043
 20
1.28433
 30
0.0
 11
120.734
 21
1.04042
 31
0.0
  0
LINE
  8
0
 62
     0
 10
120.734
 20
1.04042
 30
0.0
 11
120.408
 21
0.822688
 31
0.0
  0
LINE
  8
0
 62
     0
 10
120.408
 20
0.822688
 30
0.0
 11
120.064
 21
0.631141
 31
0.0
  0
LINE
  8
0
 62
     0
 10
120.064
 20
0.631141
 30
0.0
 11
119.709
 21
0.467155
 31
0.0
  0
LINE
  8
0
 62
     0
 10
119.709
 20
0.467155
 30
0.0
 11
119.341
 21
0.330729
 31
0.0
  0
LINE
  8
0
 62
     0
 10
119.341
 20
0.330729
 30
0.0
 11
118.963
 21
0.22462
 31
0.0
  0
LINE
  8
0
 62
     0
 10
118.963
 20
0.22462
 30
0.0
 11
118.577
 21
0.14745
 31
0.0
  0
LINE
  8
0
 62
     0
 10
118.577
 20
0.14745
 30
0.0
 11
118.188
 21
0.101975
 31
0.0
  0
LINE
  8
0
 62
     0
 10
118.188
 20
0.101975
 30
0.0
 11
117.795
 21
0.0854385
 31
0.0
  0
LINE
  8
0
 62
     0
 10
117.795
 20
0.0854385
 30
0.0
 11
5.0946
 21
0.0854385
 31
0.0
  0
LINE
  8
0
 62
     0
 10
5.0946
 20
0.0854385
 30
0.0
 11
4.70186
 21
0.101975
 31
0.0
  0
LINE
  8
0
 62
     0
 10
4.70186
 20
0.101975
 30
0.0
 11
4.3119
 21
0.14745
 31
0.0
  0
LINE
  8
0
 62
     0
 10
4.3119
 20
0.14745
 30
0.0
 11
3.9274
 21
0.22462
 31
0.0
  0
LINE
  8
0
 62
     0
 10
3.9274
 20
0.22462
 30
0.0
 11
3.54845
 21
0.330729
 31
0.0
  0
LINE
  8
0
 62
     0
 10
3.54845
 20
0.330729
 30
0.0
 11
3.18051
 21
0.467155
 31
0.0
  0
LINE
  8
0
 62
     0
 10
3.18051
 20
0.467155
 30
0.0
 11
2.82498
 21
0.631141
 31
0.0
  0
LINE
  8
0
 62
     0
 10
2.82498
 20
0.631141
 30
0.0
 11
2.48185
 21
0.822688
 31
0.0
  0
LINE
  8
0
 62
     0
 10
2.48185
 20
0.822688
 30
0.0
 11
2.15525
 21
1.04042
 31
0.0
  0
LINE
  8
0
 62
     0
 10
2.15525
 20
1.04042
 30
0.0
 11
1.84657
 21
1.28433
 31
0.0
  0
LINE
  8
0
 62
     0
 10
1.84657
 20
1.28433
 30
0.0
 11
1.55856
 21
1.55029
 31
0.0
  0
LINE
  8
0
 62
     0
 10
1.55856
 20
1.55029
 30
0.0
 11
1.29122
 21
1.8383
 31
0.0
  0
LINE
  8
0
 62
     0
 10
1.29122
 20
1.8383
 30
0.0
 11
1.04869
 21
2.14836
 31
0.0
  0
LINE
  8
0
 62
     0
 10
1.04869
 20
2.14836
 30
0.0
 11
0.830957
 21
2.47496
 31
0.0
  0
LINE
  8
0
 62
     0
 10
0.830957
 20
2.47496
 30
0.0
 11
0.63941
 21
2.81671
 31
0.0
  0
LINE
  8
0
 62
     0
 10
0.63941
 20
2.81671
 30
0.0
 11
0.475424
 21
3.17362
 31
0.0
  0
LINE
  8
0
 62
     0
 10
0.475424
 20
3.17362
 30
0.0
 11
0.338998
 21
3.5402
 31
0.0
  0
LINE
  8
0
 62
     0
 10
0.338998
 20
3.5402
 30
0.0
 11
0.232888
 21
3.91915
 31
0.0
  0
LINE
  8
0
 62
     0
 10
0.232888
 20
3.91915
 30
0.0
 11
0.155718
 21
4.30361
 31
0.0
  0
LINE
  8
0
 62
     0
 10
0.155718
 20
4.30361
 30
0.0
 11
0.110243
 21
4.6936
 31
0.0
  0
LINE
  8
0
 62
     0
 10
0.110243
 20
4.6936
 30
0.0
 11
0.0937066
 21
5.08635
 31
0.0
  0
LINE
  8
0
 62
     0
 10
0.0937066
 20
5.08635
 30
0.0
 11
0.0950846
 21
57.9367
 31
0.0
  0
LINE
  8
0
 62
     0
 10
0.0950846
 20
57.9367
 30
0.0
 11
0.110243
 21
58.3297
 31
0.0
  0
LINE
  8
0
 62
     0
 10
0.110243
 20
58.3297
 30
0.0
 11
0.155718
 21
58.7195
 31
0.0
  0
LINE
  8
0
 62
     0
 10
0.155718
 20
58.7195
 30
0.0
 11
0.232888
 21
59.104
 31
0.0
  0
LINE
  8
0
 62
     0
 10
0.232888
 20
59.104
 30
0.0
 11
0.338998
 21
59.4829
 31
0.0
  0
LINE
  8
0
 62
     0
 10
0.338998
 20
59.4829
 30
0.0
 11
0.475424
 21
59.8509
 31
0.0
  0
LINE
  8
0
 62
     0
 10
0.475424
 20
59.8509
 30
0.0
 11
0.63941
 21
60.2065
 31
0.0
  0
LINE
  8
0
 62
     0
 10
0.63941
 20
60.2065
 30
0.0
 11
0.830957
 21
60.5497
 31
0.0
  0
LINE
  8
0
 62
     0
 10
0.830957
 20
60.5497
 30
0.0
 11
1.04869
 21
60.8764
 31
0.0
  0
LINE
  8
0
 62
     0
 10
1.04869
 20
60.8764
 30
0.0
 11
1.29122
 21
61.1851
 31
0.0
  0
LINE
  8
0
 62
     0
 10
1.29122
 20
61.1851
 30
0.0
 11
1.55856
 21
61.4729
 31
0.0
  0
LINE
  8
0
 62
     0
 10
1.55856
 20
61.4729
 30
0.0
 11
1.84657
 21
61.7403
 31
0.0
  0
LINE
  8
0
 62
     0
 10
1.84657
 20
61.7403
 30
0.0
 11
2.15525
 21
61.9827
 31
0.0
  0
LINE
  8
0
 62
     0
 10
2.15525
 20
61.9827
 30
0.0
 11
2.48185
 21
62.2004
 31
0.0
  0
LINE
  8
0
 62
     0
 10
2.48185
 20
62.2004
 30
0.0
 11
2.82498
 21
62.3919
 31
0.0
  0
LINE
  8
0
 62
     0
 10
2.82498
 20
62.3919
 30
0.0
 11
3.18051
 21
62.556
 31
0.0
  0
LINE
  8
0
 62
     0
 10
3.18051
 20
62.556
 30
0.0
 11
3.54845
 21
62.6925
 31
0.0
  0
LINE
  8
0
 62
     0
 10
3.54845
 20
62.6925
 30
0.0
 11
3.9274
 21
62.7987
 31
0.0
  0
LINE
  8
0
 62
     0
 10
3.9274
 20
62.7987
 30
0.0
 11
4.3119
 21
62.8756
 31
0.0
  0
LINE
  8
0
 62
     0
 10
4.3119
 20
62.8756
 30
0.0
 11
4.70186
 21
62.9211
 31
0.0
  0
LINE
  8
0
 62
     0
 10
4.70186
 20
62.9211
 30
0.0
 11
5.0946
 21
62.9377
 31
0.0
  0
LINE
  8
0
 62
     0
 10
5.0946
 20
62.9377
 30
0.0
 11
117.796
 21
62.9363
 31
0.0
  0
LINE
  8
0
 62
     0
 10
117.301
 20
6.6077
 30
0.0
 11
116.855
 21
6.3803
 31
0.0
  0
LINE
  8
0
 62
     0
 10
116.855
 20
6.3803
 30
0.0
 11
116.501
 21
6.02615
 31
0.0
  0
LINE
  8
0
 62
     0
 10
116.501
 20
6.02615
 30
0.0
 11
116.273
 21
5.58105
 31
0.0
  0
LINE
  8
0
 62
     0
 10
116.273
 20
5.58105
 30
0.0
 11
116.196
 21
5.08635
 31
0.0
  0
LINE
  8
0
 62
     0
 10
116.196
 20
5.08635
 30
0.0
 11
116.273
 21
4.59161
 31
0.0
  0
LINE
  8
0
 62
     0
 10
116.273
 20
4.59161
 30
0.0
 11
116.501
 21
4.14514
 31
0.0
  0
LINE
  8
0
 62
     0
 10
116.501
 20
4.14514
 30
0.0
 11
116.855
 21
3.79236
 31
0.0
  0
LINE
  8
0
 62
     0
 10
116.855
 20
3.79236
 30
0.0
 11
117.301
 21
3.565
 31
0.0
  0
LINE
  8
0
 62
     0
 10
117.301
 20
3.565
 30
0.0
 11
117.796
 21
3.48644
 31
0.0
  0
LINE
  8
0
 62
     0
 10
117.796
 20
3.48644
 30
0.0
 11
118.29
 21
3.565
 31
0.0
  0
LINE
  8
0
 62
     0
 10
118.29
 20
3.565
 30
0.0
 11
118.736
 21
3.79236
 31
0.0
  0
LINE
  8
0
 62
     0
 10
118.736
 20
3.79236
 30
0.0
 11
119.09
 21
4.14514
 31
0.0
  0
LINE
  8
0
 62
     0
 10
119.09
 20
4.14514
 30
0.0
 11
119.316
 21
4.59161
 31
0.0
  0
LINE
  8
0
 62
     0
 10
119.316
 20
4.59161
 30
0.0
 11
119.394
 21
5.08635
 31
0.0
  0
LINE
  8
0
 62
     0
 10
119.394
 20
5.08635
 30
0.0
 11
119.316
 21
5.58105
 31
0.0
  0
LINE
  8
0
 62
     0
 10
119.316
 20
5.58105
 30
0.0
 11
119.09
 21
6.02615
 31
0.0
  0
LINE
  8
0
 62
     0
 10
119.09
 20
6.02615
 30
0.0
 11
118.736
 21
6.3803
 31
0.0
  0
LINE
  8
0
 62
     0
 10
118.736
 20
6.3803
 30
0.0
 11
118.29
 21
6.6077
 31
0.0
  0
LINE
  8
0
 62
     0
 10
118.29
 20
6.6077
 30
0.0
 11
117.796
 21
6.68623
 31
0.0
  0
LINE
  8
0
 62
     0
 10
117.796
 20
6.68623
 30
0.0
 11
117.301
 21
6.6077
 31
0.0
  0
LINE
  8
0
 62
     0
 10
4.5999
 20
6.6077
 30
0.0
 11
4.15339
 21
6.3803
 31
0.0
  0
LINE
  8
0
 62
     0
 10
4.15339
 20
6.3803
 30
0.0
 11
3.79924
 21
6.02615
 31
0.0
  0
LINE
  8
0
 62
     0
 10
3.79924
 20
6.02615
 30
0.0
 11
3.57325
 21
5.58105
 31
0.0
  0
LINE
  8
0
 62
     0
 10
3.57325
 20
5.58105
 30
0.0
 11
3.4947
 21
5.08635
 31
0.0
  0
LINE
  8
0
 62
     0
 10
3.4947
 20
5.08635
 30
0.0
 11
3.57325
 21
4.59161
 31
0.0
  0
LINE
  8
0
 62
     0
 10
3.57325
 20
4.59161
 30
0.0
 11
3.79924
 21
4.14514
 31
0.0
  0
LINE
  8
0
 62
     0
 10
3.79924
 20
4.14514
 30
0.0
 11
4.15339
 21
3.79236
 31
0.0
  0
LINE
  8
0
 62
     0
 10
4.15339
 20
3.79236
 30
0.0
 11
4.5999
 21
3.565
 31
0.0
  0
LINE
  8
0
 62
     0
 10
4.5999
 20
3.565
 30
0.0
 11
5.0946
 21
3.48644
 31
0.0
  0
LINE
  8
0
 62
     0
 10
5.0946
 20
3.48644
 30
0.0
 11
5.58934
 21
3.565
 31
0.0
  0
LINE
  8
0
 62
     0
 10
5.58934
 20
3.565
 30
0.0
 11
6.03444
 21
3.79236
 31
0.0
  0
LINE
  8
0
 62
     0
 10
6.03444
 20
3.79236
 30
0.0
 11
6.38859
 21
4.14514
 31
0.0
  0
LINE
  8
0
 62
     0
 10
6.38859
 20
4.14514
 30
0.0
 11
6.61596
 21
4.59161
 31
0.0
  0
LINE
  8
0
 62
     0
 10
6.61596
 20
4.59161
 30
0.0
 11
6.69452
 21
5.08635
 31
0.0
  0
LINE
  8
0
 62
     0
 10
6.69452
 20
5.08635
 30
0.0
 11
6.61596
 21
5.58105
 31
0.0
  0
LINE
  8
0
 62
     0
 10
6.61596
 20
5.58105
 30
0.0
 11
6.38859
 21
6.02615
 31
0.0
  0
LINE
  8
0
 62
     0
 10
6.38859
 20
6.02615
 30
0.0
 11
6.03444
 21
6.3803
 31
0.0
  0
LINE
  8
0
 62
     0
 10
6.03444
 20
6.3803
 30
0.0
 11
5.58934
 21
6.6077
 31
0.0
  0
LINE
  8
0
 62
     0
 10
5.58934
 20
6.6077
 30
0.0
 11
5.0946
 21
6.68623
 31
0.0
  0
LINE
  8
0
 62
     0
 10
5.0946
 20
6.68623
 30
0.0
 11
4.5999
 21
6.6077
 31
0.0
  0
LINE
  8
0
 62
     0
 10
37.87
 20
28.6122
 30
0.0
 11
37.87
 21
28.0114
 31
0.0
  0
LINE
  8
0
 62
     0
 10
37.87
 20
28.0114
 30
0.0
 11
37.0692
 21
28.0114
 31
0.0
  0
LINE
  8
0
 62
     0
 10
37.0692
 20
28.0114
 30
0.0
 11
37.0692
 21
15.2122
 31
0.0
  0
LINE
  8
0
 62
     0
 10
37.0692
 20
15.2122
 30
0.0
 11
37.87
 21
15.2122
 31
0.0
  0
LINE
  8
0
 62
     0
 10
37.87
 20
15.2122
 30
0.0
 11
37.87
 21
14.6113
 31
0.0
  0
LINE
  8
0
 62
     0
 10
37.87
 20
14.6113
 30
0.0
 11
51.8693
 21
14.6113
 31
0.0
  0
LINE
  8
0
 62
     0
 10
51.8693
 20
14.6113
 30
0.0
 11
51.8693
 21
15.2122
 31
0.0
  0
LINE
  8
0
 62
     0
 10
51.8693
 20
15.2122
 30
0.0
 11
52.6687
 21
15.2122
 31
0.0
  0
LINE
  8
0
 62
     0
 10
52.6687
 20
15.2122
 30
0.0
 11
52.6687
 21
28.0114
 31
0.0
  0
LINE
  8
0
 62
     0
 10
52.6687
 20
28.0114
 30
0.0
 11
51.8693
 21
28.0114
 31
0.0
  0
LINE
  8
0
 62
     0
 10
51.8693
 20
28.0114
 30
0.0
 11
51.8693
 21
28.6122
 31
0.0
  0
LINE
  8
0
 62
     0
 10
51.8693
 20
28.6122
 30
0.0
 11
37.87
 21
28.6122
 31
0.0
  0
LINE
  8
0
 62
     0
 10
56.92
 20
28.6122
 30
0.0
 11
56.92
 21
28.0114
 31
0.0
  0
LINE
  8
0
 62
     0
 10
56.92
 20
28.0114
 30
0.0
 11
56.1192
 21
28.0114
 31
0.0
  0
LINE
  8
0
 62
     0
 10
56.1192
 20
28.0114
 30
0.0
 11
56.1192
 21
15.2122
 31
0.0
  0
LINE
  8
0
 62
     0
 10
56.1192
 20
15.2122
 30
0.0
 11
56.92
 21
15.2122
 31
0.0
  0
LINE
  8
0
 62
     0
 10
56.92
 20
15.2122
 30
0.0
 11
56.92
 21
14.6113
 31
0.0
  0
LINE
  8
0
 62
     0
 10
56.92
 20
14.6113
 30
0.0
 11
70.9193
 21
14.6113
 31
0.0
  0
LINE
  8
0
 62
     0
 10
70.9193
 20
14.6113
 30
0.0
 11
70.9193
 21
15.2122
 31
0.0
  0
LINE
  8
0
 62
     0
 10
70.9193
 20
15.2122
 30
0.0
 11
71.7201
 21
15.2122
 31
0.0
  0
LINE
  8
0
 62
     0
 10
71.7201
 20
15.2122
 30
0.0
 11
71.7201
 21
28.0114
 31
0.0
  0
LINE
  8
0
 62
     0
 10
71.7201
 20
28.0114
 30
0.0
 11
70.9193
 21
28.0114
 31
0.0
  0
LINE
  8
0
 62
     0
 10
70.9193
 20
28.0114
 30
0.0
 11
70.9193
 21
28.6122
 31
0.0
  0
LINE
  8
0
 62
     0
 10
70.9193
 20
28.6122
 30
0.0
 11
56.92
 21
28.6122
 31
0.0
  0
LINE
  8
0
 62
     0
 10
75.97
 20
28.6122
 30
0.0
 11
75.97
 21
28.0114
 31
0.0
  0
LINE
  8
0
 62
     0
 10
75.97
 20
28.0114
 30
0.0
 11
75.1692
 21
28.0114
 31
0.0
  0
LINE
  8
0
 62
     0
 10
75.1692
 20
28.0114
 30
0.0
 11
75.1692
 21
15.2122
 31
0.0
  0
LINE
  8
0
 62
     0
 10
75.1692
 20
15.2122
 30
0.0
 11
75.97
 21
15.2122
 31
0.0
  0
LINE
  8
0
 62
     0
 10
75.97
 20
15.2122
 30
0.0
 11
75.97
 21
14.6113
 31
0.0
  0
LINE
  8
0
 62
     0
 10
75.97
 20
14.6113
 30
0.0
 11
89.9693
 21
14.6113
 31
0.0
  0
LINE
  8
0
 62
     0
 10
89.9693
 20
14.6113
 30
0.0
 11
89.9693
 21
15.2122
 31
0.0
  0
LINE
  8
0
 62
     0
 10
89.9693
 20
15.2122
 30
0.0
 11
90.7701
 21
15.2122
 31
0.0
  0
LINE
  8
0
 62
     0
 10
90.7701
 20
15.2122
 30
0.0
 11
90.7701
 21
28.0114
 31
0.0
  0
LINE
  8
0
 62
     0
 10
90.7701
 20
28.0114
 30
0.0
 11
89.9693
 21
28.0114
 31
0.0
  0
LINE
  8
0
 62
     0
 10
89.9693
 20
28.0114
 30
0.0
 11
89.9693
 21
28.6122
 31
0.0
  0
LINE
  8
0
 62
     0
 10
89.9693
 20
28.6122
 30
0.0
 11
75.97
 21
28.6122
 31
0.0
  0
LINE
  8
0
 62
     0
 10
95.02
 20
28.6122
 30
0.0
 11
95.02
 21
28.0114
 31
0.0
  0
LINE
  8
0
 62
     0
 10
95.02
 20
28.0114
 30
0.0
 11
94.2192
 21
28.0114
 31
0.0
  0
LINE
  8
0
 62
     0
 10
94.2192
 20
28.0114
 30
0.0
 11
94.2192
 21
15.2122
 31
0.0
  0
LINE
  8
0
 62
     0
 10
94.2192
 20
15.2122
 30
0.0
 11
95.02
 21
15.2122
 31
0.0
  0
LINE
  8
0
 62
     0
 10
95.02
 20
15.2122
 30
0.0
 11
95.02
 21
14.6113
 31
0.0
  0
LINE
  8
0
 62
     0
 10
95.02
 20
14.6113
 30
0.0
 11
109.019
 21
14.6113
 31
0.0
  0
LINE
  8
0
 62
     0
 10
109.019
 20
14.6113
 30
0.0
 11
109.019
 21
15.2122
 31
0.0
  0
LINE
  8
0
 62
     0
 10
109.019
 20
15.2122
 30
0.0
 11
109.82
 21
15.2122
 31
0.0
  0
LINE
  8
0
 62
     0
 10
109.82
 20
15.2122
 30
0.0
 11
109.82
 21
28.0114
 31
0.0
  0
LINE
  8
0
 62
     0
 10
109.82
 20
28.0114
 30
0.0
 11
109.019
 21
28.0114
 31
0.0
  0
LINE
  8
0
 62
     0
 10
109.019
 20
28.0114
 30
0.0
 11
109.019
 21
28.6122
 31
0.0
  0
LINE
  8
0
 62
     0
 10
109.019
 20
28.6122
 30
0.0
 11
95.02
 21
28.6122
 31
0.0
  0
LINE
  8
0
 62
     0
 10
37.87
 20
47.662
 30
0.0
 11
37.87
 21
47.0613
 31
0.0
  0
LINE
  8
0
 62
     0
 10
37.87
 20
47.0613
 30
0.0
 11
37.0692
 21
47.0613
 31
0.0
  0
LINE
  8
0
 62
     0
 10
37.0692
 20
47.0613
 30
0.0
 11
37.0692
 21
34.2622
 31
0.0
  0
LINE
  8
0
 62
     0
 10
37.0692
 20
34.2622
 30
0.0
 11
37.87
 21
34.2622
 31
0.0
  0
LINE
  8
0
 62
     0
 10
37.87
 20
34.2622
 30
0.0
 11
37.87
 21
33.6613
 31
0.0
  0
LINE
  8
0
 62
     0
 10
37.87
 20
33.6613
 30
0.0
 11
51.8693
 21
33.6613
 31
0.0
  0
LINE
  8
0
 62
     0
 10
51.8693
 20
33.6613
 30
0.0
 11
51.8693
 21
34.2622
 31
0.0
  0
LINE
  8
0
 62
     0
 10
51.8693
 20
34.2622
 30
0.0
 11
52.6687
 21
34.2622
 31
0.0
  0
LINE
  8
0
 62
     0
 10
52.6687
 20
34.2622
 30
0.0
 11
52.6687
 21
47.0613
 31
0.0
  0
LINE
  8
0
 62
     0
 10
52.6687
 20
47.0613
 30
0.0
 11
51.8693
 21
47.0613
 31
0.0
  0
LINE
  8
0
 62
     0
 10
51.8693
 20
47.0613
 30
0.0
 11
51.8693
 21
47.662
 31
0.0
  0
LINE
  8
0
 62
     0
 10
51.8693
 20
47.662
 30
0.0
 11
37.87
 21
47.662
 31
0.0
  0
LINE
  8
0
 62
     0
 10
56.92
 20
47.662
 30
0.0
 11
56.92
 21
47.0613
 31
0.0
  0
LINE
  8
0
 62
     0
 10
56.92
 20
47.0613
 30
0.0
 11
56.1192
 21
47.0613
 31
0.0
  0
LINE
  8
0
 62
     0
 10
56.1192
 20
47.0613
 30
0.0
 11
56.1192
 21
34.2622
 31
0.0
  0
LINE
  8
0
 62
     0
 10
56.1192
 20
34.2622
 30
0.0
 11
56.92
 21
34.2622
 31
0.0
  0
LINE
  8
0
 62
     0
 10
56.92
 20
34.2622
 30
0.0
 11
56.92
 21
33.6613
 31
0.0
  0
LINE
  8
0
 62
     0
 10
56.92
 20
33.6613
 30
0.0
 11
70.9193
 21
33.6613
 31
0.0
  0
LINE
  8
0
 62
     0
 10
70.9193
 20
33.6613
 30
0.0
 11
70.9193
 21
34.2622
 31
0.0
  0
LINE
  8
0
 62
     0
 10
70.9193
 20
34.2622
 30
0.0
 11
71.7201
 21
34.2622
 31
0.0
  0
LINE
  8
0
 62
     0
 10
71.7201
 20
34.2622
 30
0.0
 11
71.7201
 21
47.0613
 31
0.0
  0
LINE
  8
0
 62
     0
 10
71.7201
 20
47.0613
 30
0.0
 11
70.9193
 21
47.0613
 31
0.0
  0
LINE
  8
0
 62
     0
 10
70.9193
 20
47.0613
 30
0.0
 11
70.9193
 21
47.662
 31
0.0
  0
LINE
  8
0
 62
     0
 10
70.9193
 20
47.662
 30
0.0
 11
56.92
 21
47.662
 31
0.0
  0
LINE
  8
0
 62
     0
 10
75.97
 20
47.662
 30
0.0
 11
75.97
 21
47.0613
 31
0.0
  0
LINE
  8
0
 62
     0
 10
75.97
 20
47.0613
 30
0.0
 11
75.1692
 21
47.0613
 31
0.0
  0
LINE
  8
0
 62
     0
 10
75.1692
 20
47.0613
 30
0.0
 11
75.1692
 21
34.2622
 31
0.0
  0
LINE
  8
0
 62
     0
 10
75.1692
 20
34.2622
 30
0.0
 11
75.97
 21
34.2622
 31
0.0
  0
LINE
  8
0
 62
     0
 10
75.97
 20
34.2622
 30
0.0
 11
75.97
 21
33.6613
 31
0.0
  0
LINE
  8
0
 62
     0
 10
75.97
 20
33.6613
 30
0.0
 11
89.9693
 21
33.6613
 31
0.0
  0
LINE
  8
0
 62
     0
 10
89.9693
 20
33.6613
 30
0.0
 11
89.9693
 21
34.2622
 31
0.0
  0
LINE
  8
0
 62
     0
 10
89.9693
 20
34.2622
 30
0.0
 11
90.7701
 21
34.2622
 31
0.0
  0
LINE
  8
0
 62
     0
 10
90.7701
 20
34.2622
 30
0.0
 11
90.7701
 21
47.0613
 31
0.0
  0
LINE
  8
0
 62
     0
 10
90.7701
 20
47.0613
 30
0.0
 11
89.9693
 21
47.0613
 31
0.0
  0
LINE
  8
0
 62
     0
 10
89.9693
 20
47.0613
 30
0.0
 11
89.9693
 21
47.662
 31
0.0
  0
LINE
  8
0
 62
     0
 10
89.9693
 20
47.662
 30
0.0
 11
75.97
 21
47.662
 31
0.0
  0
LINE
  8
0
 62
     0
 10
95.02
 20
47.662
 30
0.0
 11
95.02
 21
47.0613
 31
0.0
  0
LINE
  8
0
 62
     0
 10
95.02
 20
47.0613
 30
0.0
 11
94.2192
 21
47.0613
 31
0.0
  0
LINE
  8
0
 62
     0
 10
94.2192
 20
47.0613
 30
0.0
 11
94.2192
 21
34.2622
 31
0.0
  0
LINE
  8
0
 62
     0
 10
94.2192
 20
34.2622
 30
0.0
 11
95.02
 21
34.2622
 31
0.0
  0
LINE
  8
0
 62
     0
 10
95.02
 20
34.2622
 30
0.0
 11
95.02
 21
33.6613
 31
0.0
  0
LINE
  8
0
 62
     0
 10
95.02
 20
33.6613
 30
0.0
 11
109.019
 21
33.6613
 31
0.0
  0
LINE
  8
0
 62
     0
 10
109.019
 20
33.6613
 30
0.0
 11
109.019
 21
34.2622
 31
0.0
  0
LINE
  8
0
 62
     0
 10
109.019
 20
34.2622
 30
0.0
 11
109.82
 21
34.2622
 31
0.0
  0
LINE
  8
0
 62
     0
 10
109.82
 20
34.2622
 30
0.0
 11
109.82
 21
47.0613
 31
0.0
  0
LINE
  8
0
 62
     0
 10
109.82
 20
47.0613
 30
0.0
 11
109.019
 21
47.0613
 31
0.0
  0
LINE
  8
0
 62
     0
 10
109.019
 20
47.0613
 30
0.0
 11
109.019
 21
47.662
 31
0.0
  0
LINE
  8
0
 62
     0
 10
109.019
 20
47.662
 30
0.0
 11
95.02
 21
47.662
 31
0.0
  0
LINE
  8
0
 62
     0
 10
117.301
 20
59.4582
 30
0.0
 11
116.855
 21
59.2321
 31
0.0
  0
LINE
  8
0
 62
     0
 10
116.855
 20
59.2321
 30
0.0
 11
116.501
 21
58.8779
 31
0.0
  0
LINE
  8
0
 62
     0
 10
116.501
 20
58.8779
 30
0.0
 11
116.273
 21
58.4316
 31
0.0
  0
LINE
  8
0
 62
     0
 10
116.273
 20
58.4316
 30
0.0
 11
116.196
 21
57.9367
 31
0.0
  0
LINE
  8
0
 62
     0
 10
116.196
 20
57.9367
 30
0.0
 11
116.273
 21
57.4421
 31
0.0
  0
LINE
  8
0
 62
     0
 10
116.273
 20
57.4421
 30
0.0
 11
116.501
 21
56.9969
 31
0.0
  0
LINE
  8
0
 62
     0
 10
116.501
 20
56.9969
 30
0.0
 11
116.855
 21
56.6431
 31
0.0
  0
LINE
  8
0
 62
     0
 10
116.855
 20
56.6431
 30
0.0
 11
117.301
 21
56.4155
 31
0.0
  0
LINE
  8
0
 62
     0
 10
117.301
 20
56.4155
 30
0.0
 11
117.796
 21
56.3369
 31
0.0
  0
LINE
  8
0
 62
     0
 10
117.796
 20
56.3369
 30
0.0
 11
118.29
 21
56.4155
 31
0.0
  0
LINE
  8
0
 62
     0
 10
118.29
 20
56.4155
 30
0.0
 11
118.736
 21
56.6431
 31
0.0
  0
LINE
  8
0
 62
     0
 10
118.736
 20
56.6431
 30
0.0
 11
119.09
 21
56.9969
 31
0.0
  0
LINE
  8
0
 62
     0
 10
119.09
 20
56.9969
 30
0.0
 11
119.316
 21
57.4421
 31
0.0
  0
LINE
  8
0
 62
     0
 10
119.316
 20
57.4421
 30
0.0
 11
119.394
 21
57.9367
 31
0.0
  0
LINE
  8
0
 62
     0
 10
119.394
 20
57.9367
 30
0.0
 11
119.316
 21
58.4316
 31
0.0
  0
LINE
  8
0
 62
     0
 10
119.316
 20
58.4316
 30
0.0
 11
119.09
 21
58.8779
 31
0.0
  0
LINE
  8
0
 62
     0
 10
119.09
 20
58.8779
 30
0.0
 11
118.736
 21
59.2321
 31
0.0
  0
LINE
  8
0
 62
     0
 10
118.736
 20
59.2321
 30
0.0
 11
118.29
 21
59.4582
 31
0.0
  0
LINE
  8
0
 62
     0
 10
118.29
 20
59.4582
 30
0.0
 11
117.796
 21
59.5369
 31
0.0
  0
LINE
  8
0
 62
     0
 10
117.796
 20
59.5369
 30
0.0
 11
117.301
 21
59.4582
 31
0.0
  0
LINE
  8
0
 62
     0
 10
4.5999
 20
59.4582
 30
0.0
 11
4.15339
 21
59.2321
 31
0.0
  0
LINE
  8
0
 62
     0
 10
4.15339
 20
59.2321
 30
0.0
 11
3.79924
 21
58.8779
 31
0.0
  0
LINE
  8
0
 62
     0
 10
3.79924
 20
58.8779
 30
0.0
 11
3.57325
 21
58.4316
 31
0.0
  0
LINE
  8
0
 62
     0
 10
3.57325
 20
58.4316
 30
0.0
 11
3.4947
 21
57.9367
 31
0.0
  0
LINE
  8
0
 62
     0
 10
3.4947
 20
57.9367
 30
0.0
 11
3.57325
 21
57.4421
 31
0.0
  0
LINE
  8
0
 62
     0
 10
3.57325
 20
57.4421
 30
0.0
 11
3.79924
 21
56.9969
 31
0.0
  0
LINE
  8
0
 62
     0
 10
3.79924
 20
56.9969
 30
0.0
 11
4.15339
 21
56.6431
 31
0.0
  0
LINE
  8
0
 62
     0
 10
4.15339
 20
56.6431
 30
0.0
 11
4.5999
 21
56.4155
 31
0.0
  0
LINE
  8
0
 62
     0
 10
4.5999
 20
56.4155
 30
0.0
 11
5.0946
 21
56.3369
 31
0.0
  0
LINE
  8
0
 62
     0
 10
5.0946
 20
56.3369
 30
0.0
 11
5.58934
 21
56.4155
 31
0.0
  0
LINE
  8
0
 62
     0
 10
5.58934
 20
56.4155
 30
0.0
 11
6.03444
 21
56.6431
 31
0.0
  0
LINE
  8
0
 62
     0
 10
6.03444
 20
56.6431
 30
0.0
 11
6.38859
 21
56.9969
 31
0.0
  0
LINE
  8
0
 62
     0
 10
6.38859
 20
56.9969
 30
0.0
 11
6.61596
 21
57.4421
 31
0.0
  0
LINE
  8
0
 62
     0
 10
6.61596
 20
57.4421
 30
0.0
 11
6.69452
 21
57.9367
 31
0.0
  0
LINE
  8
0
 62
     0
 10
6.69452
 20
57.9367
 30
0.0
 11
6.61596
 21
58.4316
 31
0.0
  0
LINE
  8
0
 62
     0
 10
6.61596
 20
58.4316
 30
0.0
 11
6.38859
 21
58.8779
 31
0.0
  0
LINE
  8
0
 62
     0
 10
6.38859
 20
58.8779
 30
0.0
 11
6.03444
 21
59.2321
 31
0.0
  0
LINE
  8
0
 62
     0
 10
6.03444
 20
59.2321
 30
0.0
 11
5.58934
 21
59.4582
 31
0.0
  0
LINE
  8
0
 62
     0
 10
5.58934
 20
59.4582
 30
0.0
 11
5.0946
 21
59.5369
 31
0.0
  0
LINE
  8
0
 62
     0
 10
5.0946
 20
59.5369
 30
0.0
 11
4.5999
 21
59.4582
 31
0.0
  0
ENDSEC
  0
EOF
