M48
; DRILL file {KiCad (5.1.0-0)} date Wednesday, March 20, 2019 at 04:54:25 PM
; FORMAT={-:-/ absolute / inch / decimal}
; #@! TF.CreationDate,2019-03-20T16:54:25-04:00
; #@! TF.GenerationSoftware,Kicad,Pcbnew,(5.1.0-0)
; #@! TF.FileFunction,NonPlated,1,2,NPTH
FMAT,2
INCH
T1C0.0670
T2C0.0866
T3C0.1570
%
G90
G05
T1
X1.2063Y-2.3438
X1.6062Y-2.3438
X1.2063Y-3.0938
X1.6062Y-3.0938
X1.9563Y-2.3438
X2.3562Y-2.3438
X1.9563Y-3.0938
X2.3562Y-3.0938
X2.7062Y-2.3438
X3.1062Y-2.3438
X2.7062Y-3.0938
X3.1062Y-3.0938
X3.4562Y-2.3438
X3.8562Y-2.3438
X3.4562Y-3.0938
X3.8562Y-3.0938
T2
X4.872Y-3.3957
X1.1024Y-3.3957
X4.872Y-2.0177
X1.1024Y-2.0177
T3
X1.4062Y-2.3438
X1.4062Y-3.0938
X2.1562Y-2.3438
X2.1562Y-3.0938
X2.9062Y-2.3438
X2.9062Y-3.0938
X3.6562Y-2.3438
X3.6562Y-3.0938
T0
M30
