G04 #@! TF.GenerationSoftware,KiCad,Pcbnew,(5.1.0-0)*
G04 #@! TF.CreationDate,2019-03-20T16:53:29-04:00*
G04 #@! TF.ProjectId,keeb2x4,6b656562-3278-4342-9e6b-696361645f70,rev?*
G04 #@! TF.SameCoordinates,Original*
G04 #@! TF.FileFunction,Legend,Bot*
G04 #@! TF.FilePolarity,Positive*
%FSLAX46Y46*%
G04 Gerber Fmt 4.6, Leading zero omitted, Abs format (unit mm)*
G04 Created by KiCad (PCBNEW (5.1.0-0)) date 2019-03-20 16:53:29*
%MOMM*%
%LPD*%
G04 APERTURE LIST*
%ADD10C,0.120000*%
%ADD11C,0.200000*%
%ADD12C,0.150000*%
G04 APERTURE END LIST*
D10*
X108827500Y-57411252D02*
X108827500Y-56888748D01*
X110247500Y-57411252D02*
X110247500Y-56888748D01*
X119772500Y-57411252D02*
X119772500Y-56888748D01*
X118352500Y-57411252D02*
X118352500Y-56888748D01*
X124535000Y-73557498D02*
X124535000Y-74080002D01*
X123115000Y-73557498D02*
X123115000Y-74080002D01*
X123115000Y-64032498D02*
X123115000Y-64555002D01*
X124535000Y-64032498D02*
X124535000Y-64555002D01*
X104065000Y-64555002D02*
X104065000Y-64032498D01*
X105485000Y-64555002D02*
X105485000Y-64032498D01*
X105485000Y-57411252D02*
X105485000Y-56888748D01*
X104065000Y-57411252D02*
X104065000Y-56888748D01*
X104065000Y-74080002D02*
X104065000Y-73557498D01*
X105485000Y-74080002D02*
X105485000Y-73557498D01*
X105485000Y-69317502D02*
X105485000Y-68794998D01*
X104065000Y-69317502D02*
X104065000Y-68794998D01*
D11*
X38518750Y-63093750D02*
X32718750Y-63093750D01*
X38518750Y-65493750D02*
X38518750Y-63093750D01*
X32718750Y-65493750D02*
X38518750Y-65493750D01*
X32793750Y-65493750D02*
X32793750Y-63093750D01*
X32918750Y-65493750D02*
X32918750Y-63093750D01*
X32693750Y-63093750D02*
X32693750Y-65493750D01*
X33093750Y-65493750D02*
X33093750Y-63093750D01*
X33268750Y-65493750D02*
X33268750Y-63093750D01*
X33443750Y-65493750D02*
X33443750Y-63093750D01*
X33443750Y-84543750D02*
X33443750Y-82143750D01*
X33268750Y-84543750D02*
X33268750Y-82143750D01*
X33093750Y-84543750D02*
X33093750Y-82143750D01*
X32693750Y-82143750D02*
X32693750Y-84543750D01*
X32918750Y-84543750D02*
X32918750Y-82143750D01*
X32793750Y-84543750D02*
X32793750Y-82143750D01*
X32718750Y-84543750D02*
X38518750Y-84543750D01*
X38518750Y-84543750D02*
X38518750Y-82143750D01*
X38518750Y-82143750D02*
X32718750Y-82143750D01*
X57568750Y-63093750D02*
X51768750Y-63093750D01*
X57568750Y-65493750D02*
X57568750Y-63093750D01*
X51768750Y-65493750D02*
X57568750Y-65493750D01*
X51843750Y-65493750D02*
X51843750Y-63093750D01*
X51968750Y-65493750D02*
X51968750Y-63093750D01*
X51743750Y-63093750D02*
X51743750Y-65493750D01*
X52143750Y-65493750D02*
X52143750Y-63093750D01*
X52318750Y-65493750D02*
X52318750Y-63093750D01*
X52493750Y-65493750D02*
X52493750Y-63093750D01*
X52493750Y-84543750D02*
X52493750Y-82143750D01*
X52318750Y-84543750D02*
X52318750Y-82143750D01*
X52143750Y-84543750D02*
X52143750Y-82143750D01*
X51743750Y-82143750D02*
X51743750Y-84543750D01*
X51968750Y-84543750D02*
X51968750Y-82143750D01*
X51843750Y-84543750D02*
X51843750Y-82143750D01*
X51768750Y-84543750D02*
X57568750Y-84543750D01*
X57568750Y-84543750D02*
X57568750Y-82143750D01*
X57568750Y-82143750D02*
X51768750Y-82143750D01*
X76618750Y-63093750D02*
X70818750Y-63093750D01*
X76618750Y-65493750D02*
X76618750Y-63093750D01*
X70818750Y-65493750D02*
X76618750Y-65493750D01*
X70893750Y-65493750D02*
X70893750Y-63093750D01*
X71018750Y-65493750D02*
X71018750Y-63093750D01*
X70793750Y-63093750D02*
X70793750Y-65493750D01*
X71193750Y-65493750D02*
X71193750Y-63093750D01*
X71368750Y-65493750D02*
X71368750Y-63093750D01*
X71543750Y-65493750D02*
X71543750Y-63093750D01*
X71543750Y-84543750D02*
X71543750Y-82143750D01*
X71368750Y-84543750D02*
X71368750Y-82143750D01*
X71193750Y-84543750D02*
X71193750Y-82143750D01*
X70793750Y-82143750D02*
X70793750Y-84543750D01*
X71018750Y-84543750D02*
X71018750Y-82143750D01*
X70893750Y-84543750D02*
X70893750Y-82143750D01*
X70818750Y-84543750D02*
X76618750Y-84543750D01*
X76618750Y-84543750D02*
X76618750Y-82143750D01*
X76618750Y-82143750D02*
X70818750Y-82143750D01*
X95668750Y-63093750D02*
X89868750Y-63093750D01*
X95668750Y-65493750D02*
X95668750Y-63093750D01*
X89868750Y-65493750D02*
X95668750Y-65493750D01*
X89943750Y-65493750D02*
X89943750Y-63093750D01*
X90068750Y-65493750D02*
X90068750Y-63093750D01*
X89843750Y-63093750D02*
X89843750Y-65493750D01*
X90243750Y-65493750D02*
X90243750Y-63093750D01*
X90418750Y-65493750D02*
X90418750Y-63093750D01*
X90593750Y-65493750D02*
X90593750Y-63093750D01*
X90593750Y-84543750D02*
X90593750Y-82143750D01*
X90418750Y-84543750D02*
X90418750Y-82143750D01*
X90243750Y-84543750D02*
X90243750Y-82143750D01*
X89843750Y-82143750D02*
X89843750Y-84543750D01*
X90068750Y-84543750D02*
X90068750Y-82143750D01*
X89943750Y-84543750D02*
X89943750Y-82143750D01*
X89868750Y-84543750D02*
X95668750Y-84543750D01*
X95668750Y-84543750D02*
X95668750Y-82143750D01*
X95668750Y-82143750D02*
X89868750Y-82143750D01*
X68143750Y-55168750D02*
X68143750Y-48668750D01*
X60443750Y-55168750D02*
X60443750Y-48668750D01*
X60443750Y-55168750D02*
X68143750Y-55168750D01*
D10*
X104065088Y-81653507D02*
X104065088Y-81131003D01*
X105485088Y-81653507D02*
X105485088Y-81131003D01*
X123115104Y-68795056D02*
X123115104Y-69317560D01*
X124535104Y-68795056D02*
X124535104Y-69317560D01*
X105797279Y-51906918D02*
X105274775Y-51906918D01*
X105797279Y-50486918D02*
X105274775Y-50486918D01*
X111750409Y-50486918D02*
X111227905Y-50486918D01*
X111750409Y-51906918D02*
X111227905Y-51906918D01*
X112600000Y-79257881D02*
X113050000Y-78807881D01*
X116000000Y-79257881D02*
X115550000Y-78807881D01*
X116000000Y-83857881D02*
X115550000Y-84307881D01*
X112600000Y-83857881D02*
X113050000Y-84307881D01*
X117050000Y-82557881D02*
X117050000Y-80557881D01*
X113050000Y-78807881D02*
X115550000Y-78807881D01*
X111550000Y-82557881D02*
X111550000Y-80557881D01*
X113050000Y-84307881D02*
X115550000Y-84307881D01*
D12*
X109125000Y-74231250D02*
X109125000Y-73656250D01*
X119475000Y-74231250D02*
X119475000Y-73556250D01*
X119475000Y-63881250D02*
X119475000Y-64556250D01*
X109125000Y-63881250D02*
X109125000Y-64556250D01*
X109125000Y-74231250D02*
X109800000Y-74231250D01*
X109125000Y-63881250D02*
X109800000Y-63881250D01*
X119475000Y-63881250D02*
X118800000Y-63881250D01*
X119475000Y-74231250D02*
X118800000Y-74231250D01*
X109125000Y-73656250D02*
X107850000Y-73656250D01*
X113380761Y-56372183D02*
X114087868Y-57079289D01*
X113239340Y-56372183D02*
X113522183Y-56089340D01*
X115077817Y-58210660D02*
X115360660Y-57927817D01*
X111544642Y-56983333D02*
X111592261Y-56935714D01*
X111639880Y-56792857D01*
X111639880Y-56697619D01*
X111592261Y-56554761D01*
X111497023Y-56459523D01*
X111401785Y-56411904D01*
X111211309Y-56364285D01*
X111068452Y-56364285D01*
X110877976Y-56411904D01*
X110782738Y-56459523D01*
X110687500Y-56554761D01*
X110639880Y-56697619D01*
X110639880Y-56792857D01*
X110687500Y-56935714D01*
X110735119Y-56983333D01*
X111639880Y-57935714D02*
X111639880Y-57364285D01*
X111639880Y-57650000D02*
X110639880Y-57650000D01*
X110782738Y-57554761D01*
X110877976Y-57459523D01*
X110925595Y-57364285D01*
X121069642Y-56983333D02*
X121117261Y-56935714D01*
X121164880Y-56792857D01*
X121164880Y-56697619D01*
X121117261Y-56554761D01*
X121022023Y-56459523D01*
X120926785Y-56411904D01*
X120736309Y-56364285D01*
X120593452Y-56364285D01*
X120402976Y-56411904D01*
X120307738Y-56459523D01*
X120212500Y-56554761D01*
X120164880Y-56697619D01*
X120164880Y-56792857D01*
X120212500Y-56935714D01*
X120260119Y-56983333D01*
X120260119Y-57364285D02*
X120212500Y-57411904D01*
X120164880Y-57507142D01*
X120164880Y-57745238D01*
X120212500Y-57840476D01*
X120260119Y-57888095D01*
X120355357Y-57935714D01*
X120450595Y-57935714D01*
X120593452Y-57888095D01*
X121164880Y-57316666D01*
X121164880Y-57935714D01*
X122532142Y-73652083D02*
X122579761Y-73604464D01*
X122627380Y-73461607D01*
X122627380Y-73366369D01*
X122579761Y-73223511D01*
X122484523Y-73128273D01*
X122389285Y-73080654D01*
X122198809Y-73033035D01*
X122055952Y-73033035D01*
X121865476Y-73080654D01*
X121770238Y-73128273D01*
X121675000Y-73223511D01*
X121627380Y-73366369D01*
X121627380Y-73461607D01*
X121675000Y-73604464D01*
X121722619Y-73652083D01*
X121627380Y-73985416D02*
X121627380Y-74604464D01*
X122008333Y-74271130D01*
X122008333Y-74413988D01*
X122055952Y-74509226D01*
X122103571Y-74556845D01*
X122198809Y-74604464D01*
X122436904Y-74604464D01*
X122532142Y-74556845D01*
X122579761Y-74509226D01*
X122627380Y-74413988D01*
X122627380Y-74128273D01*
X122579761Y-74033035D01*
X122532142Y-73985416D01*
X122532142Y-64127083D02*
X122579761Y-64079464D01*
X122627380Y-63936607D01*
X122627380Y-63841369D01*
X122579761Y-63698511D01*
X122484523Y-63603273D01*
X122389285Y-63555654D01*
X122198809Y-63508035D01*
X122055952Y-63508035D01*
X121865476Y-63555654D01*
X121770238Y-63603273D01*
X121675000Y-63698511D01*
X121627380Y-63841369D01*
X121627380Y-63936607D01*
X121675000Y-64079464D01*
X121722619Y-64127083D01*
X121960714Y-64984226D02*
X122627380Y-64984226D01*
X121579761Y-64746130D02*
X122294047Y-64508035D01*
X122294047Y-65127083D01*
X106782142Y-64127083D02*
X106829761Y-64079464D01*
X106877380Y-63936607D01*
X106877380Y-63841369D01*
X106829761Y-63698511D01*
X106734523Y-63603273D01*
X106639285Y-63555654D01*
X106448809Y-63508035D01*
X106305952Y-63508035D01*
X106115476Y-63555654D01*
X106020238Y-63603273D01*
X105925000Y-63698511D01*
X105877380Y-63841369D01*
X105877380Y-63936607D01*
X105925000Y-64079464D01*
X105972619Y-64127083D01*
X105877380Y-65031845D02*
X105877380Y-64555654D01*
X106353571Y-64508035D01*
X106305952Y-64555654D01*
X106258333Y-64650892D01*
X106258333Y-64888988D01*
X106305952Y-64984226D01*
X106353571Y-65031845D01*
X106448809Y-65079464D01*
X106686904Y-65079464D01*
X106782142Y-65031845D01*
X106829761Y-64984226D01*
X106877380Y-64888988D01*
X106877380Y-64650892D01*
X106829761Y-64555654D01*
X106782142Y-64508035D01*
X106782142Y-56983333D02*
X106829761Y-56935714D01*
X106877380Y-56792857D01*
X106877380Y-56697619D01*
X106829761Y-56554761D01*
X106734523Y-56459523D01*
X106639285Y-56411904D01*
X106448809Y-56364285D01*
X106305952Y-56364285D01*
X106115476Y-56411904D01*
X106020238Y-56459523D01*
X105925000Y-56554761D01*
X105877380Y-56697619D01*
X105877380Y-56792857D01*
X105925000Y-56935714D01*
X105972619Y-56983333D01*
X105877380Y-57840476D02*
X105877380Y-57650000D01*
X105925000Y-57554761D01*
X105972619Y-57507142D01*
X106115476Y-57411904D01*
X106305952Y-57364285D01*
X106686904Y-57364285D01*
X106782142Y-57411904D01*
X106829761Y-57459523D01*
X106877380Y-57554761D01*
X106877380Y-57745238D01*
X106829761Y-57840476D01*
X106782142Y-57888095D01*
X106686904Y-57935714D01*
X106448809Y-57935714D01*
X106353571Y-57888095D01*
X106305952Y-57840476D01*
X106258333Y-57745238D01*
X106258333Y-57554761D01*
X106305952Y-57459523D01*
X106353571Y-57411904D01*
X106448809Y-57364285D01*
X106782142Y-73652083D02*
X106829761Y-73604464D01*
X106877380Y-73461607D01*
X106877380Y-73366369D01*
X106829761Y-73223511D01*
X106734523Y-73128273D01*
X106639285Y-73080654D01*
X106448809Y-73033035D01*
X106305952Y-73033035D01*
X106115476Y-73080654D01*
X106020238Y-73128273D01*
X105925000Y-73223511D01*
X105877380Y-73366369D01*
X105877380Y-73461607D01*
X105925000Y-73604464D01*
X105972619Y-73652083D01*
X105877380Y-73985416D02*
X105877380Y-74652083D01*
X106877380Y-74223511D01*
X106782142Y-68889583D02*
X106829761Y-68841964D01*
X106877380Y-68699107D01*
X106877380Y-68603869D01*
X106829761Y-68461011D01*
X106734523Y-68365773D01*
X106639285Y-68318154D01*
X106448809Y-68270535D01*
X106305952Y-68270535D01*
X106115476Y-68318154D01*
X106020238Y-68365773D01*
X105925000Y-68461011D01*
X105877380Y-68603869D01*
X105877380Y-68699107D01*
X105925000Y-68841964D01*
X105972619Y-68889583D01*
X106305952Y-69461011D02*
X106258333Y-69365773D01*
X106210714Y-69318154D01*
X106115476Y-69270535D01*
X106067857Y-69270535D01*
X105972619Y-69318154D01*
X105925000Y-69365773D01*
X105877380Y-69461011D01*
X105877380Y-69651488D01*
X105925000Y-69746726D01*
X105972619Y-69794345D01*
X106067857Y-69841964D01*
X106115476Y-69841964D01*
X106210714Y-69794345D01*
X106258333Y-69746726D01*
X106305952Y-69651488D01*
X106305952Y-69461011D01*
X106353571Y-69365773D01*
X106401190Y-69318154D01*
X106496428Y-69270535D01*
X106686904Y-69270535D01*
X106782142Y-69318154D01*
X106829761Y-69365773D01*
X106877380Y-69461011D01*
X106877380Y-69651488D01*
X106829761Y-69746726D01*
X106782142Y-69794345D01*
X106686904Y-69841964D01*
X106496428Y-69841964D01*
X106401190Y-69794345D01*
X106353571Y-69746726D01*
X106305952Y-69651488D01*
X36309226Y-62730654D02*
X36309226Y-61930654D01*
X36118750Y-61930654D01*
X36004464Y-61968750D01*
X35928273Y-62044940D01*
X35890178Y-62121130D01*
X35852083Y-62273511D01*
X35852083Y-62387797D01*
X35890178Y-62540178D01*
X35928273Y-62616369D01*
X36004464Y-62692559D01*
X36118750Y-62730654D01*
X36309226Y-62730654D01*
X35090178Y-62730654D02*
X35547321Y-62730654D01*
X35318750Y-62730654D02*
X35318750Y-61930654D01*
X35394940Y-62044940D01*
X35471130Y-62121130D01*
X35547321Y-62159226D01*
X36309226Y-81780654D02*
X36309226Y-80980654D01*
X36118750Y-80980654D01*
X36004464Y-81018750D01*
X35928273Y-81094940D01*
X35890178Y-81171130D01*
X35852083Y-81323511D01*
X35852083Y-81437797D01*
X35890178Y-81590178D01*
X35928273Y-81666369D01*
X36004464Y-81742559D01*
X36118750Y-81780654D01*
X36309226Y-81780654D01*
X35547321Y-81056845D02*
X35509226Y-81018750D01*
X35433035Y-80980654D01*
X35242559Y-80980654D01*
X35166369Y-81018750D01*
X35128273Y-81056845D01*
X35090178Y-81133035D01*
X35090178Y-81209226D01*
X35128273Y-81323511D01*
X35585416Y-81780654D01*
X35090178Y-81780654D01*
X55359226Y-62730654D02*
X55359226Y-61930654D01*
X55168750Y-61930654D01*
X55054464Y-61968750D01*
X54978273Y-62044940D01*
X54940178Y-62121130D01*
X54902083Y-62273511D01*
X54902083Y-62387797D01*
X54940178Y-62540178D01*
X54978273Y-62616369D01*
X55054464Y-62692559D01*
X55168750Y-62730654D01*
X55359226Y-62730654D01*
X54635416Y-61930654D02*
X54140178Y-61930654D01*
X54406845Y-62235416D01*
X54292559Y-62235416D01*
X54216369Y-62273511D01*
X54178273Y-62311607D01*
X54140178Y-62387797D01*
X54140178Y-62578273D01*
X54178273Y-62654464D01*
X54216369Y-62692559D01*
X54292559Y-62730654D01*
X54521130Y-62730654D01*
X54597321Y-62692559D01*
X54635416Y-62654464D01*
X55359226Y-81780654D02*
X55359226Y-80980654D01*
X55168750Y-80980654D01*
X55054464Y-81018750D01*
X54978273Y-81094940D01*
X54940178Y-81171130D01*
X54902083Y-81323511D01*
X54902083Y-81437797D01*
X54940178Y-81590178D01*
X54978273Y-81666369D01*
X55054464Y-81742559D01*
X55168750Y-81780654D01*
X55359226Y-81780654D01*
X54216369Y-81247321D02*
X54216369Y-81780654D01*
X54406845Y-80942559D02*
X54597321Y-81513988D01*
X54102083Y-81513988D01*
X74409226Y-62730654D02*
X74409226Y-61930654D01*
X74218750Y-61930654D01*
X74104464Y-61968750D01*
X74028273Y-62044940D01*
X73990178Y-62121130D01*
X73952083Y-62273511D01*
X73952083Y-62387797D01*
X73990178Y-62540178D01*
X74028273Y-62616369D01*
X74104464Y-62692559D01*
X74218750Y-62730654D01*
X74409226Y-62730654D01*
X73228273Y-61930654D02*
X73609226Y-61930654D01*
X73647321Y-62311607D01*
X73609226Y-62273511D01*
X73533035Y-62235416D01*
X73342559Y-62235416D01*
X73266369Y-62273511D01*
X73228273Y-62311607D01*
X73190178Y-62387797D01*
X73190178Y-62578273D01*
X73228273Y-62654464D01*
X73266369Y-62692559D01*
X73342559Y-62730654D01*
X73533035Y-62730654D01*
X73609226Y-62692559D01*
X73647321Y-62654464D01*
X74409226Y-81780654D02*
X74409226Y-80980654D01*
X74218750Y-80980654D01*
X74104464Y-81018750D01*
X74028273Y-81094940D01*
X73990178Y-81171130D01*
X73952083Y-81323511D01*
X73952083Y-81437797D01*
X73990178Y-81590178D01*
X74028273Y-81666369D01*
X74104464Y-81742559D01*
X74218750Y-81780654D01*
X74409226Y-81780654D01*
X73266369Y-80980654D02*
X73418750Y-80980654D01*
X73494940Y-81018750D01*
X73533035Y-81056845D01*
X73609226Y-81171130D01*
X73647321Y-81323511D01*
X73647321Y-81628273D01*
X73609226Y-81704464D01*
X73571130Y-81742559D01*
X73494940Y-81780654D01*
X73342559Y-81780654D01*
X73266369Y-81742559D01*
X73228273Y-81704464D01*
X73190178Y-81628273D01*
X73190178Y-81437797D01*
X73228273Y-81361607D01*
X73266369Y-81323511D01*
X73342559Y-81285416D01*
X73494940Y-81285416D01*
X73571130Y-81323511D01*
X73609226Y-81361607D01*
X73647321Y-81437797D01*
X93459226Y-62730654D02*
X93459226Y-61930654D01*
X93268750Y-61930654D01*
X93154464Y-61968750D01*
X93078273Y-62044940D01*
X93040178Y-62121130D01*
X93002083Y-62273511D01*
X93002083Y-62387797D01*
X93040178Y-62540178D01*
X93078273Y-62616369D01*
X93154464Y-62692559D01*
X93268750Y-62730654D01*
X93459226Y-62730654D01*
X92735416Y-61930654D02*
X92202083Y-61930654D01*
X92544940Y-62730654D01*
X93459226Y-81780654D02*
X93459226Y-80980654D01*
X93268750Y-80980654D01*
X93154464Y-81018750D01*
X93078273Y-81094940D01*
X93040178Y-81171130D01*
X93002083Y-81323511D01*
X93002083Y-81437797D01*
X93040178Y-81590178D01*
X93078273Y-81666369D01*
X93154464Y-81742559D01*
X93268750Y-81780654D01*
X93459226Y-81780654D01*
X92544940Y-81323511D02*
X92621130Y-81285416D01*
X92659226Y-81247321D01*
X92697321Y-81171130D01*
X92697321Y-81133035D01*
X92659226Y-81056845D01*
X92621130Y-81018750D01*
X92544940Y-80980654D01*
X92392559Y-80980654D01*
X92316369Y-81018750D01*
X92278273Y-81056845D01*
X92240178Y-81133035D01*
X92240178Y-81171130D01*
X92278273Y-81247321D01*
X92316369Y-81285416D01*
X92392559Y-81323511D01*
X92544940Y-81323511D01*
X92621130Y-81361607D01*
X92659226Y-81399702D01*
X92697321Y-81475892D01*
X92697321Y-81628273D01*
X92659226Y-81704464D01*
X92621130Y-81742559D01*
X92544940Y-81780654D01*
X92392559Y-81780654D01*
X92316369Y-81742559D01*
X92278273Y-81704464D01*
X92240178Y-81628273D01*
X92240178Y-81475892D01*
X92278273Y-81399702D01*
X92316369Y-81361607D01*
X92392559Y-81323511D01*
D11*
X36456845Y-64301630D02*
X36456845Y-63301630D01*
X35885416Y-64301630D02*
X36313988Y-63730202D01*
X35885416Y-63301630D02*
X36456845Y-63873059D01*
X34933035Y-64301630D02*
X35504464Y-64301630D01*
X35218750Y-64301630D02*
X35218750Y-63301630D01*
X35313988Y-63444488D01*
X35409226Y-63539726D01*
X35504464Y-63587345D01*
X36456845Y-83351630D02*
X36456845Y-82351630D01*
X35885416Y-83351630D02*
X36313988Y-82780202D01*
X35885416Y-82351630D02*
X36456845Y-82923059D01*
X35504464Y-82446869D02*
X35456845Y-82399250D01*
X35361607Y-82351630D01*
X35123511Y-82351630D01*
X35028273Y-82399250D01*
X34980654Y-82446869D01*
X34933035Y-82542107D01*
X34933035Y-82637345D01*
X34980654Y-82780202D01*
X35552083Y-83351630D01*
X34933035Y-83351630D01*
X55506845Y-64301630D02*
X55506845Y-63301630D01*
X54935416Y-64301630D02*
X55363988Y-63730202D01*
X54935416Y-63301630D02*
X55506845Y-63873059D01*
X54602083Y-63301630D02*
X53983035Y-63301630D01*
X54316369Y-63682583D01*
X54173511Y-63682583D01*
X54078273Y-63730202D01*
X54030654Y-63777821D01*
X53983035Y-63873059D01*
X53983035Y-64111154D01*
X54030654Y-64206392D01*
X54078273Y-64254011D01*
X54173511Y-64301630D01*
X54459226Y-64301630D01*
X54554464Y-64254011D01*
X54602083Y-64206392D01*
X55506845Y-83351630D02*
X55506845Y-82351630D01*
X54935416Y-83351630D02*
X55363988Y-82780202D01*
X54935416Y-82351630D02*
X55506845Y-82923059D01*
X54078273Y-82684964D02*
X54078273Y-83351630D01*
X54316369Y-82304011D02*
X54554464Y-83018297D01*
X53935416Y-83018297D01*
X74556845Y-64301630D02*
X74556845Y-63301630D01*
X73985416Y-64301630D02*
X74413988Y-63730202D01*
X73985416Y-63301630D02*
X74556845Y-63873059D01*
X73080654Y-63301630D02*
X73556845Y-63301630D01*
X73604464Y-63777821D01*
X73556845Y-63730202D01*
X73461607Y-63682583D01*
X73223511Y-63682583D01*
X73128273Y-63730202D01*
X73080654Y-63777821D01*
X73033035Y-63873059D01*
X73033035Y-64111154D01*
X73080654Y-64206392D01*
X73128273Y-64254011D01*
X73223511Y-64301630D01*
X73461607Y-64301630D01*
X73556845Y-64254011D01*
X73604464Y-64206392D01*
X74556845Y-83351630D02*
X74556845Y-82351630D01*
X73985416Y-83351630D02*
X74413988Y-82780202D01*
X73985416Y-82351630D02*
X74556845Y-82923059D01*
X73128273Y-82351630D02*
X73318750Y-82351630D01*
X73413988Y-82399250D01*
X73461607Y-82446869D01*
X73556845Y-82589726D01*
X73604464Y-82780202D01*
X73604464Y-83161154D01*
X73556845Y-83256392D01*
X73509226Y-83304011D01*
X73413988Y-83351630D01*
X73223511Y-83351630D01*
X73128273Y-83304011D01*
X73080654Y-83256392D01*
X73033035Y-83161154D01*
X73033035Y-82923059D01*
X73080654Y-82827821D01*
X73128273Y-82780202D01*
X73223511Y-82732583D01*
X73413988Y-82732583D01*
X73509226Y-82780202D01*
X73556845Y-82827821D01*
X73604464Y-82923059D01*
X93606845Y-64301630D02*
X93606845Y-63301630D01*
X93035416Y-64301630D02*
X93463988Y-63730202D01*
X93035416Y-63301630D02*
X93606845Y-63873059D01*
X92702083Y-63301630D02*
X92035416Y-63301630D01*
X92463988Y-64301630D01*
X93606845Y-83351630D02*
X93606845Y-82351630D01*
X93035416Y-83351630D02*
X93463988Y-82780202D01*
X93035416Y-82351630D02*
X93606845Y-82923059D01*
X92463988Y-82780202D02*
X92559226Y-82732583D01*
X92606845Y-82684964D01*
X92654464Y-82589726D01*
X92654464Y-82542107D01*
X92606845Y-82446869D01*
X92559226Y-82399250D01*
X92463988Y-82351630D01*
X92273511Y-82351630D01*
X92178273Y-82399250D01*
X92130654Y-82446869D01*
X92083035Y-82542107D01*
X92083035Y-82589726D01*
X92130654Y-82684964D01*
X92178273Y-82732583D01*
X92273511Y-82780202D01*
X92463988Y-82780202D01*
X92559226Y-82827821D01*
X92606845Y-82875440D01*
X92654464Y-82970678D01*
X92654464Y-83161154D01*
X92606845Y-83256392D01*
X92559226Y-83304011D01*
X92463988Y-83351630D01*
X92273511Y-83351630D01*
X92178273Y-83304011D01*
X92130654Y-83256392D01*
X92083035Y-83161154D01*
X92083035Y-82970678D01*
X92130654Y-82875440D01*
X92178273Y-82827821D01*
X92273511Y-82780202D01*
D12*
X106877468Y-81225588D02*
X106401278Y-80892255D01*
X106877468Y-80654159D02*
X105877468Y-80654159D01*
X105877468Y-81035112D01*
X105925088Y-81130350D01*
X105972707Y-81177969D01*
X106067945Y-81225588D01*
X106210802Y-81225588D01*
X106306040Y-81177969D01*
X106353659Y-81130350D01*
X106401278Y-81035112D01*
X106401278Y-80654159D01*
X106877468Y-82177969D02*
X106877468Y-81606540D01*
X106877468Y-81892255D02*
X105877468Y-81892255D01*
X106020326Y-81797016D01*
X106115564Y-81701778D01*
X106163183Y-81606540D01*
X122627484Y-68889641D02*
X122151294Y-68556308D01*
X122627484Y-68318212D02*
X121627484Y-68318212D01*
X121627484Y-68699165D01*
X121675104Y-68794403D01*
X121722723Y-68842022D01*
X121817961Y-68889641D01*
X121960818Y-68889641D01*
X122056056Y-68842022D01*
X122103675Y-68794403D01*
X122151294Y-68699165D01*
X122151294Y-68318212D01*
X121722723Y-69270593D02*
X121675104Y-69318212D01*
X121627484Y-69413450D01*
X121627484Y-69651546D01*
X121675104Y-69746784D01*
X121722723Y-69794403D01*
X121817961Y-69842022D01*
X121913199Y-69842022D01*
X122056056Y-69794403D01*
X122627484Y-69222974D01*
X122627484Y-69842022D01*
X105702693Y-49999298D02*
X106036027Y-49523108D01*
X106274122Y-49999298D02*
X106274122Y-48999298D01*
X105893169Y-48999298D01*
X105797931Y-49046918D01*
X105750312Y-49094537D01*
X105702693Y-49189775D01*
X105702693Y-49332632D01*
X105750312Y-49427870D01*
X105797931Y-49475489D01*
X105893169Y-49523108D01*
X106274122Y-49523108D01*
X105369360Y-48999298D02*
X104750312Y-48999298D01*
X105083646Y-49380251D01*
X104940788Y-49380251D01*
X104845550Y-49427870D01*
X104797931Y-49475489D01*
X104750312Y-49570727D01*
X104750312Y-49808822D01*
X104797931Y-49904060D01*
X104845550Y-49951679D01*
X104940788Y-49999298D01*
X105226503Y-49999298D01*
X105321741Y-49951679D01*
X105369360Y-49904060D01*
X111655823Y-49999298D02*
X111989157Y-49523108D01*
X112227252Y-49999298D02*
X112227252Y-48999298D01*
X111846299Y-48999298D01*
X111751061Y-49046918D01*
X111703442Y-49094537D01*
X111655823Y-49189775D01*
X111655823Y-49332632D01*
X111703442Y-49427870D01*
X111751061Y-49475489D01*
X111846299Y-49523108D01*
X112227252Y-49523108D01*
X110798680Y-49332632D02*
X110798680Y-49999298D01*
X111036776Y-48951679D02*
X111274871Y-49665965D01*
X110655823Y-49665965D01*
X115633333Y-85712642D02*
X115490476Y-85760261D01*
X115252380Y-85760261D01*
X115157142Y-85712642D01*
X115109523Y-85665023D01*
X115061904Y-85569785D01*
X115061904Y-85474547D01*
X115109523Y-85379309D01*
X115157142Y-85331690D01*
X115252380Y-85284071D01*
X115442857Y-85236452D01*
X115538095Y-85188833D01*
X115585714Y-85141214D01*
X115633333Y-85045976D01*
X115633333Y-84950738D01*
X115585714Y-84855500D01*
X115538095Y-84807881D01*
X115442857Y-84760261D01*
X115204761Y-84760261D01*
X115061904Y-84807881D01*
X114728571Y-84760261D02*
X114490476Y-85760261D01*
X114300000Y-85045976D01*
X114109523Y-85760261D01*
X113871428Y-84760261D01*
X112966666Y-85760261D02*
X113538095Y-85760261D01*
X113252380Y-85760261D02*
X113252380Y-84760261D01*
X113347619Y-84903119D01*
X113442857Y-84998357D01*
X113538095Y-85045976D01*
X115061904Y-75958630D02*
X115061904Y-76768154D01*
X115014285Y-76863392D01*
X114966666Y-76911011D01*
X114871428Y-76958630D01*
X114680952Y-76958630D01*
X114585714Y-76911011D01*
X114538095Y-76863392D01*
X114490476Y-76768154D01*
X114490476Y-75958630D01*
X113490476Y-76958630D02*
X114061904Y-76958630D01*
X113776190Y-76958630D02*
X113776190Y-75958630D01*
X113871428Y-76101488D01*
X113966666Y-76196726D01*
X114061904Y-76244345D01*
X116040829Y-57887411D02*
X116276531Y-59065922D01*
X115569425Y-58358815D02*
X116747936Y-58594517D01*
X115636768Y-59705685D02*
X116040829Y-59301624D01*
X115838799Y-59503655D02*
X115131692Y-58796548D01*
X115300051Y-58830220D01*
X115434738Y-58830220D01*
X115535753Y-58796548D01*
M02*
