G04 #@! TF.GenerationSoftware,KiCad,Pcbnew,(5.1.0-0)*
G04 #@! TF.CreationDate,2019-03-20T16:53:29-04:00*
G04 #@! TF.ProjectId,keeb2x4,6b656562-3278-4342-9e6b-696361645f70,rev?*
G04 #@! TF.SameCoordinates,Original*
G04 #@! TF.FileFunction,Paste,Bot*
G04 #@! TF.FilePolarity,Positive*
%FSLAX46Y46*%
G04 Gerber Fmt 4.6, Leading zero omitted, Abs format (unit mm)*
G04 Created by KiCad (PCBNEW (5.1.0-0)) date 2019-03-20 16:53:29*
%MOMM*%
%LPD*%
G04 APERTURE LIST*
%ADD10C,0.100000*%
%ADD11C,1.150000*%
%ADD12R,1.200000X1.200000*%
%ADD13R,2.350000X0.800000*%
%ADD14R,0.500000X1.400000*%
%ADD15O,1.500000X4.000000*%
%ADD16R,1.700000X1.000000*%
%ADD17R,1.500000X0.550000*%
%ADD18R,0.550000X1.500000*%
%ADD19C,1.200000*%
G04 APERTURE END LIST*
D10*
G36*
X110012005Y-55551204D02*
G01*
X110036273Y-55554804D01*
X110060072Y-55560765D01*
X110083171Y-55569030D01*
X110105350Y-55579520D01*
X110126393Y-55592132D01*
X110146099Y-55606747D01*
X110164277Y-55623223D01*
X110180753Y-55641401D01*
X110195368Y-55661107D01*
X110207980Y-55682150D01*
X110218470Y-55704329D01*
X110226735Y-55727428D01*
X110232696Y-55751227D01*
X110236296Y-55775495D01*
X110237500Y-55799999D01*
X110237500Y-56450001D01*
X110236296Y-56474505D01*
X110232696Y-56498773D01*
X110226735Y-56522572D01*
X110218470Y-56545671D01*
X110207980Y-56567850D01*
X110195368Y-56588893D01*
X110180753Y-56608599D01*
X110164277Y-56626777D01*
X110146099Y-56643253D01*
X110126393Y-56657868D01*
X110105350Y-56670480D01*
X110083171Y-56680970D01*
X110060072Y-56689235D01*
X110036273Y-56695196D01*
X110012005Y-56698796D01*
X109987501Y-56700000D01*
X109087499Y-56700000D01*
X109062995Y-56698796D01*
X109038727Y-56695196D01*
X109014928Y-56689235D01*
X108991829Y-56680970D01*
X108969650Y-56670480D01*
X108948607Y-56657868D01*
X108928901Y-56643253D01*
X108910723Y-56626777D01*
X108894247Y-56608599D01*
X108879632Y-56588893D01*
X108867020Y-56567850D01*
X108856530Y-56545671D01*
X108848265Y-56522572D01*
X108842304Y-56498773D01*
X108838704Y-56474505D01*
X108837500Y-56450001D01*
X108837500Y-55799999D01*
X108838704Y-55775495D01*
X108842304Y-55751227D01*
X108848265Y-55727428D01*
X108856530Y-55704329D01*
X108867020Y-55682150D01*
X108879632Y-55661107D01*
X108894247Y-55641401D01*
X108910723Y-55623223D01*
X108928901Y-55606747D01*
X108948607Y-55592132D01*
X108969650Y-55579520D01*
X108991829Y-55569030D01*
X109014928Y-55560765D01*
X109038727Y-55554804D01*
X109062995Y-55551204D01*
X109087499Y-55550000D01*
X109987501Y-55550000D01*
X110012005Y-55551204D01*
X110012005Y-55551204D01*
G37*
D11*
X109537500Y-56125000D03*
D10*
G36*
X110012005Y-57601204D02*
G01*
X110036273Y-57604804D01*
X110060072Y-57610765D01*
X110083171Y-57619030D01*
X110105350Y-57629520D01*
X110126393Y-57642132D01*
X110146099Y-57656747D01*
X110164277Y-57673223D01*
X110180753Y-57691401D01*
X110195368Y-57711107D01*
X110207980Y-57732150D01*
X110218470Y-57754329D01*
X110226735Y-57777428D01*
X110232696Y-57801227D01*
X110236296Y-57825495D01*
X110237500Y-57849999D01*
X110237500Y-58500001D01*
X110236296Y-58524505D01*
X110232696Y-58548773D01*
X110226735Y-58572572D01*
X110218470Y-58595671D01*
X110207980Y-58617850D01*
X110195368Y-58638893D01*
X110180753Y-58658599D01*
X110164277Y-58676777D01*
X110146099Y-58693253D01*
X110126393Y-58707868D01*
X110105350Y-58720480D01*
X110083171Y-58730970D01*
X110060072Y-58739235D01*
X110036273Y-58745196D01*
X110012005Y-58748796D01*
X109987501Y-58750000D01*
X109087499Y-58750000D01*
X109062995Y-58748796D01*
X109038727Y-58745196D01*
X109014928Y-58739235D01*
X108991829Y-58730970D01*
X108969650Y-58720480D01*
X108948607Y-58707868D01*
X108928901Y-58693253D01*
X108910723Y-58676777D01*
X108894247Y-58658599D01*
X108879632Y-58638893D01*
X108867020Y-58617850D01*
X108856530Y-58595671D01*
X108848265Y-58572572D01*
X108842304Y-58548773D01*
X108838704Y-58524505D01*
X108837500Y-58500001D01*
X108837500Y-57849999D01*
X108838704Y-57825495D01*
X108842304Y-57801227D01*
X108848265Y-57777428D01*
X108856530Y-57754329D01*
X108867020Y-57732150D01*
X108879632Y-57711107D01*
X108894247Y-57691401D01*
X108910723Y-57673223D01*
X108928901Y-57656747D01*
X108948607Y-57642132D01*
X108969650Y-57629520D01*
X108991829Y-57619030D01*
X109014928Y-57610765D01*
X109038727Y-57604804D01*
X109062995Y-57601204D01*
X109087499Y-57600000D01*
X109987501Y-57600000D01*
X110012005Y-57601204D01*
X110012005Y-57601204D01*
G37*
D11*
X109537500Y-58175000D03*
D10*
G36*
X119537005Y-57601204D02*
G01*
X119561273Y-57604804D01*
X119585072Y-57610765D01*
X119608171Y-57619030D01*
X119630350Y-57629520D01*
X119651393Y-57642132D01*
X119671099Y-57656747D01*
X119689277Y-57673223D01*
X119705753Y-57691401D01*
X119720368Y-57711107D01*
X119732980Y-57732150D01*
X119743470Y-57754329D01*
X119751735Y-57777428D01*
X119757696Y-57801227D01*
X119761296Y-57825495D01*
X119762500Y-57849999D01*
X119762500Y-58500001D01*
X119761296Y-58524505D01*
X119757696Y-58548773D01*
X119751735Y-58572572D01*
X119743470Y-58595671D01*
X119732980Y-58617850D01*
X119720368Y-58638893D01*
X119705753Y-58658599D01*
X119689277Y-58676777D01*
X119671099Y-58693253D01*
X119651393Y-58707868D01*
X119630350Y-58720480D01*
X119608171Y-58730970D01*
X119585072Y-58739235D01*
X119561273Y-58745196D01*
X119537005Y-58748796D01*
X119512501Y-58750000D01*
X118612499Y-58750000D01*
X118587995Y-58748796D01*
X118563727Y-58745196D01*
X118539928Y-58739235D01*
X118516829Y-58730970D01*
X118494650Y-58720480D01*
X118473607Y-58707868D01*
X118453901Y-58693253D01*
X118435723Y-58676777D01*
X118419247Y-58658599D01*
X118404632Y-58638893D01*
X118392020Y-58617850D01*
X118381530Y-58595671D01*
X118373265Y-58572572D01*
X118367304Y-58548773D01*
X118363704Y-58524505D01*
X118362500Y-58500001D01*
X118362500Y-57849999D01*
X118363704Y-57825495D01*
X118367304Y-57801227D01*
X118373265Y-57777428D01*
X118381530Y-57754329D01*
X118392020Y-57732150D01*
X118404632Y-57711107D01*
X118419247Y-57691401D01*
X118435723Y-57673223D01*
X118453901Y-57656747D01*
X118473607Y-57642132D01*
X118494650Y-57629520D01*
X118516829Y-57619030D01*
X118539928Y-57610765D01*
X118563727Y-57604804D01*
X118587995Y-57601204D01*
X118612499Y-57600000D01*
X119512501Y-57600000D01*
X119537005Y-57601204D01*
X119537005Y-57601204D01*
G37*
D11*
X119062500Y-58175000D03*
D10*
G36*
X119537005Y-55551204D02*
G01*
X119561273Y-55554804D01*
X119585072Y-55560765D01*
X119608171Y-55569030D01*
X119630350Y-55579520D01*
X119651393Y-55592132D01*
X119671099Y-55606747D01*
X119689277Y-55623223D01*
X119705753Y-55641401D01*
X119720368Y-55661107D01*
X119732980Y-55682150D01*
X119743470Y-55704329D01*
X119751735Y-55727428D01*
X119757696Y-55751227D01*
X119761296Y-55775495D01*
X119762500Y-55799999D01*
X119762500Y-56450001D01*
X119761296Y-56474505D01*
X119757696Y-56498773D01*
X119751735Y-56522572D01*
X119743470Y-56545671D01*
X119732980Y-56567850D01*
X119720368Y-56588893D01*
X119705753Y-56608599D01*
X119689277Y-56626777D01*
X119671099Y-56643253D01*
X119651393Y-56657868D01*
X119630350Y-56670480D01*
X119608171Y-56680970D01*
X119585072Y-56689235D01*
X119561273Y-56695196D01*
X119537005Y-56698796D01*
X119512501Y-56700000D01*
X118612499Y-56700000D01*
X118587995Y-56698796D01*
X118563727Y-56695196D01*
X118539928Y-56689235D01*
X118516829Y-56680970D01*
X118494650Y-56670480D01*
X118473607Y-56657868D01*
X118453901Y-56643253D01*
X118435723Y-56626777D01*
X118419247Y-56608599D01*
X118404632Y-56588893D01*
X118392020Y-56567850D01*
X118381530Y-56545671D01*
X118373265Y-56522572D01*
X118367304Y-56498773D01*
X118363704Y-56474505D01*
X118362500Y-56450001D01*
X118362500Y-55799999D01*
X118363704Y-55775495D01*
X118367304Y-55751227D01*
X118373265Y-55727428D01*
X118381530Y-55704329D01*
X118392020Y-55682150D01*
X118404632Y-55661107D01*
X118419247Y-55641401D01*
X118435723Y-55623223D01*
X118453901Y-55606747D01*
X118473607Y-55592132D01*
X118494650Y-55579520D01*
X118516829Y-55569030D01*
X118539928Y-55560765D01*
X118563727Y-55554804D01*
X118587995Y-55551204D01*
X118612499Y-55550000D01*
X119512501Y-55550000D01*
X119537005Y-55551204D01*
X119537005Y-55551204D01*
G37*
D11*
X119062500Y-56125000D03*
D10*
G36*
X124299505Y-74269954D02*
G01*
X124323773Y-74273554D01*
X124347572Y-74279515D01*
X124370671Y-74287780D01*
X124392850Y-74298270D01*
X124413893Y-74310882D01*
X124433599Y-74325497D01*
X124451777Y-74341973D01*
X124468253Y-74360151D01*
X124482868Y-74379857D01*
X124495480Y-74400900D01*
X124505970Y-74423079D01*
X124514235Y-74446178D01*
X124520196Y-74469977D01*
X124523796Y-74494245D01*
X124525000Y-74518749D01*
X124525000Y-75168751D01*
X124523796Y-75193255D01*
X124520196Y-75217523D01*
X124514235Y-75241322D01*
X124505970Y-75264421D01*
X124495480Y-75286600D01*
X124482868Y-75307643D01*
X124468253Y-75327349D01*
X124451777Y-75345527D01*
X124433599Y-75362003D01*
X124413893Y-75376618D01*
X124392850Y-75389230D01*
X124370671Y-75399720D01*
X124347572Y-75407985D01*
X124323773Y-75413946D01*
X124299505Y-75417546D01*
X124275001Y-75418750D01*
X123374999Y-75418750D01*
X123350495Y-75417546D01*
X123326227Y-75413946D01*
X123302428Y-75407985D01*
X123279329Y-75399720D01*
X123257150Y-75389230D01*
X123236107Y-75376618D01*
X123216401Y-75362003D01*
X123198223Y-75345527D01*
X123181747Y-75327349D01*
X123167132Y-75307643D01*
X123154520Y-75286600D01*
X123144030Y-75264421D01*
X123135765Y-75241322D01*
X123129804Y-75217523D01*
X123126204Y-75193255D01*
X123125000Y-75168751D01*
X123125000Y-74518749D01*
X123126204Y-74494245D01*
X123129804Y-74469977D01*
X123135765Y-74446178D01*
X123144030Y-74423079D01*
X123154520Y-74400900D01*
X123167132Y-74379857D01*
X123181747Y-74360151D01*
X123198223Y-74341973D01*
X123216401Y-74325497D01*
X123236107Y-74310882D01*
X123257150Y-74298270D01*
X123279329Y-74287780D01*
X123302428Y-74279515D01*
X123326227Y-74273554D01*
X123350495Y-74269954D01*
X123374999Y-74268750D01*
X124275001Y-74268750D01*
X124299505Y-74269954D01*
X124299505Y-74269954D01*
G37*
D11*
X123825000Y-74843750D03*
D10*
G36*
X124299505Y-72219954D02*
G01*
X124323773Y-72223554D01*
X124347572Y-72229515D01*
X124370671Y-72237780D01*
X124392850Y-72248270D01*
X124413893Y-72260882D01*
X124433599Y-72275497D01*
X124451777Y-72291973D01*
X124468253Y-72310151D01*
X124482868Y-72329857D01*
X124495480Y-72350900D01*
X124505970Y-72373079D01*
X124514235Y-72396178D01*
X124520196Y-72419977D01*
X124523796Y-72444245D01*
X124525000Y-72468749D01*
X124525000Y-73118751D01*
X124523796Y-73143255D01*
X124520196Y-73167523D01*
X124514235Y-73191322D01*
X124505970Y-73214421D01*
X124495480Y-73236600D01*
X124482868Y-73257643D01*
X124468253Y-73277349D01*
X124451777Y-73295527D01*
X124433599Y-73312003D01*
X124413893Y-73326618D01*
X124392850Y-73339230D01*
X124370671Y-73349720D01*
X124347572Y-73357985D01*
X124323773Y-73363946D01*
X124299505Y-73367546D01*
X124275001Y-73368750D01*
X123374999Y-73368750D01*
X123350495Y-73367546D01*
X123326227Y-73363946D01*
X123302428Y-73357985D01*
X123279329Y-73349720D01*
X123257150Y-73339230D01*
X123236107Y-73326618D01*
X123216401Y-73312003D01*
X123198223Y-73295527D01*
X123181747Y-73277349D01*
X123167132Y-73257643D01*
X123154520Y-73236600D01*
X123144030Y-73214421D01*
X123135765Y-73191322D01*
X123129804Y-73167523D01*
X123126204Y-73143255D01*
X123125000Y-73118751D01*
X123125000Y-72468749D01*
X123126204Y-72444245D01*
X123129804Y-72419977D01*
X123135765Y-72396178D01*
X123144030Y-72373079D01*
X123154520Y-72350900D01*
X123167132Y-72329857D01*
X123181747Y-72310151D01*
X123198223Y-72291973D01*
X123216401Y-72275497D01*
X123236107Y-72260882D01*
X123257150Y-72248270D01*
X123279329Y-72237780D01*
X123302428Y-72229515D01*
X123326227Y-72223554D01*
X123350495Y-72219954D01*
X123374999Y-72218750D01*
X124275001Y-72218750D01*
X124299505Y-72219954D01*
X124299505Y-72219954D01*
G37*
D11*
X123825000Y-72793750D03*
D10*
G36*
X124299505Y-62694954D02*
G01*
X124323773Y-62698554D01*
X124347572Y-62704515D01*
X124370671Y-62712780D01*
X124392850Y-62723270D01*
X124413893Y-62735882D01*
X124433599Y-62750497D01*
X124451777Y-62766973D01*
X124468253Y-62785151D01*
X124482868Y-62804857D01*
X124495480Y-62825900D01*
X124505970Y-62848079D01*
X124514235Y-62871178D01*
X124520196Y-62894977D01*
X124523796Y-62919245D01*
X124525000Y-62943749D01*
X124525000Y-63593751D01*
X124523796Y-63618255D01*
X124520196Y-63642523D01*
X124514235Y-63666322D01*
X124505970Y-63689421D01*
X124495480Y-63711600D01*
X124482868Y-63732643D01*
X124468253Y-63752349D01*
X124451777Y-63770527D01*
X124433599Y-63787003D01*
X124413893Y-63801618D01*
X124392850Y-63814230D01*
X124370671Y-63824720D01*
X124347572Y-63832985D01*
X124323773Y-63838946D01*
X124299505Y-63842546D01*
X124275001Y-63843750D01*
X123374999Y-63843750D01*
X123350495Y-63842546D01*
X123326227Y-63838946D01*
X123302428Y-63832985D01*
X123279329Y-63824720D01*
X123257150Y-63814230D01*
X123236107Y-63801618D01*
X123216401Y-63787003D01*
X123198223Y-63770527D01*
X123181747Y-63752349D01*
X123167132Y-63732643D01*
X123154520Y-63711600D01*
X123144030Y-63689421D01*
X123135765Y-63666322D01*
X123129804Y-63642523D01*
X123126204Y-63618255D01*
X123125000Y-63593751D01*
X123125000Y-62943749D01*
X123126204Y-62919245D01*
X123129804Y-62894977D01*
X123135765Y-62871178D01*
X123144030Y-62848079D01*
X123154520Y-62825900D01*
X123167132Y-62804857D01*
X123181747Y-62785151D01*
X123198223Y-62766973D01*
X123216401Y-62750497D01*
X123236107Y-62735882D01*
X123257150Y-62723270D01*
X123279329Y-62712780D01*
X123302428Y-62704515D01*
X123326227Y-62698554D01*
X123350495Y-62694954D01*
X123374999Y-62693750D01*
X124275001Y-62693750D01*
X124299505Y-62694954D01*
X124299505Y-62694954D01*
G37*
D11*
X123825000Y-63268750D03*
D10*
G36*
X124299505Y-64744954D02*
G01*
X124323773Y-64748554D01*
X124347572Y-64754515D01*
X124370671Y-64762780D01*
X124392850Y-64773270D01*
X124413893Y-64785882D01*
X124433599Y-64800497D01*
X124451777Y-64816973D01*
X124468253Y-64835151D01*
X124482868Y-64854857D01*
X124495480Y-64875900D01*
X124505970Y-64898079D01*
X124514235Y-64921178D01*
X124520196Y-64944977D01*
X124523796Y-64969245D01*
X124525000Y-64993749D01*
X124525000Y-65643751D01*
X124523796Y-65668255D01*
X124520196Y-65692523D01*
X124514235Y-65716322D01*
X124505970Y-65739421D01*
X124495480Y-65761600D01*
X124482868Y-65782643D01*
X124468253Y-65802349D01*
X124451777Y-65820527D01*
X124433599Y-65837003D01*
X124413893Y-65851618D01*
X124392850Y-65864230D01*
X124370671Y-65874720D01*
X124347572Y-65882985D01*
X124323773Y-65888946D01*
X124299505Y-65892546D01*
X124275001Y-65893750D01*
X123374999Y-65893750D01*
X123350495Y-65892546D01*
X123326227Y-65888946D01*
X123302428Y-65882985D01*
X123279329Y-65874720D01*
X123257150Y-65864230D01*
X123236107Y-65851618D01*
X123216401Y-65837003D01*
X123198223Y-65820527D01*
X123181747Y-65802349D01*
X123167132Y-65782643D01*
X123154520Y-65761600D01*
X123144030Y-65739421D01*
X123135765Y-65716322D01*
X123129804Y-65692523D01*
X123126204Y-65668255D01*
X123125000Y-65643751D01*
X123125000Y-64993749D01*
X123126204Y-64969245D01*
X123129804Y-64944977D01*
X123135765Y-64921178D01*
X123144030Y-64898079D01*
X123154520Y-64875900D01*
X123167132Y-64854857D01*
X123181747Y-64835151D01*
X123198223Y-64816973D01*
X123216401Y-64800497D01*
X123236107Y-64785882D01*
X123257150Y-64773270D01*
X123279329Y-64762780D01*
X123302428Y-64754515D01*
X123326227Y-64748554D01*
X123350495Y-64744954D01*
X123374999Y-64743750D01*
X124275001Y-64743750D01*
X124299505Y-64744954D01*
X124299505Y-64744954D01*
G37*
D11*
X123825000Y-65318750D03*
D10*
G36*
X105249505Y-62694954D02*
G01*
X105273773Y-62698554D01*
X105297572Y-62704515D01*
X105320671Y-62712780D01*
X105342850Y-62723270D01*
X105363893Y-62735882D01*
X105383599Y-62750497D01*
X105401777Y-62766973D01*
X105418253Y-62785151D01*
X105432868Y-62804857D01*
X105445480Y-62825900D01*
X105455970Y-62848079D01*
X105464235Y-62871178D01*
X105470196Y-62894977D01*
X105473796Y-62919245D01*
X105475000Y-62943749D01*
X105475000Y-63593751D01*
X105473796Y-63618255D01*
X105470196Y-63642523D01*
X105464235Y-63666322D01*
X105455970Y-63689421D01*
X105445480Y-63711600D01*
X105432868Y-63732643D01*
X105418253Y-63752349D01*
X105401777Y-63770527D01*
X105383599Y-63787003D01*
X105363893Y-63801618D01*
X105342850Y-63814230D01*
X105320671Y-63824720D01*
X105297572Y-63832985D01*
X105273773Y-63838946D01*
X105249505Y-63842546D01*
X105225001Y-63843750D01*
X104324999Y-63843750D01*
X104300495Y-63842546D01*
X104276227Y-63838946D01*
X104252428Y-63832985D01*
X104229329Y-63824720D01*
X104207150Y-63814230D01*
X104186107Y-63801618D01*
X104166401Y-63787003D01*
X104148223Y-63770527D01*
X104131747Y-63752349D01*
X104117132Y-63732643D01*
X104104520Y-63711600D01*
X104094030Y-63689421D01*
X104085765Y-63666322D01*
X104079804Y-63642523D01*
X104076204Y-63618255D01*
X104075000Y-63593751D01*
X104075000Y-62943749D01*
X104076204Y-62919245D01*
X104079804Y-62894977D01*
X104085765Y-62871178D01*
X104094030Y-62848079D01*
X104104520Y-62825900D01*
X104117132Y-62804857D01*
X104131747Y-62785151D01*
X104148223Y-62766973D01*
X104166401Y-62750497D01*
X104186107Y-62735882D01*
X104207150Y-62723270D01*
X104229329Y-62712780D01*
X104252428Y-62704515D01*
X104276227Y-62698554D01*
X104300495Y-62694954D01*
X104324999Y-62693750D01*
X105225001Y-62693750D01*
X105249505Y-62694954D01*
X105249505Y-62694954D01*
G37*
D11*
X104775000Y-63268750D03*
D10*
G36*
X105249505Y-64744954D02*
G01*
X105273773Y-64748554D01*
X105297572Y-64754515D01*
X105320671Y-64762780D01*
X105342850Y-64773270D01*
X105363893Y-64785882D01*
X105383599Y-64800497D01*
X105401777Y-64816973D01*
X105418253Y-64835151D01*
X105432868Y-64854857D01*
X105445480Y-64875900D01*
X105455970Y-64898079D01*
X105464235Y-64921178D01*
X105470196Y-64944977D01*
X105473796Y-64969245D01*
X105475000Y-64993749D01*
X105475000Y-65643751D01*
X105473796Y-65668255D01*
X105470196Y-65692523D01*
X105464235Y-65716322D01*
X105455970Y-65739421D01*
X105445480Y-65761600D01*
X105432868Y-65782643D01*
X105418253Y-65802349D01*
X105401777Y-65820527D01*
X105383599Y-65837003D01*
X105363893Y-65851618D01*
X105342850Y-65864230D01*
X105320671Y-65874720D01*
X105297572Y-65882985D01*
X105273773Y-65888946D01*
X105249505Y-65892546D01*
X105225001Y-65893750D01*
X104324999Y-65893750D01*
X104300495Y-65892546D01*
X104276227Y-65888946D01*
X104252428Y-65882985D01*
X104229329Y-65874720D01*
X104207150Y-65864230D01*
X104186107Y-65851618D01*
X104166401Y-65837003D01*
X104148223Y-65820527D01*
X104131747Y-65802349D01*
X104117132Y-65782643D01*
X104104520Y-65761600D01*
X104094030Y-65739421D01*
X104085765Y-65716322D01*
X104079804Y-65692523D01*
X104076204Y-65668255D01*
X104075000Y-65643751D01*
X104075000Y-64993749D01*
X104076204Y-64969245D01*
X104079804Y-64944977D01*
X104085765Y-64921178D01*
X104094030Y-64898079D01*
X104104520Y-64875900D01*
X104117132Y-64854857D01*
X104131747Y-64835151D01*
X104148223Y-64816973D01*
X104166401Y-64800497D01*
X104186107Y-64785882D01*
X104207150Y-64773270D01*
X104229329Y-64762780D01*
X104252428Y-64754515D01*
X104276227Y-64748554D01*
X104300495Y-64744954D01*
X104324999Y-64743750D01*
X105225001Y-64743750D01*
X105249505Y-64744954D01*
X105249505Y-64744954D01*
G37*
D11*
X104775000Y-65318750D03*
D10*
G36*
X105249505Y-57601204D02*
G01*
X105273773Y-57604804D01*
X105297572Y-57610765D01*
X105320671Y-57619030D01*
X105342850Y-57629520D01*
X105363893Y-57642132D01*
X105383599Y-57656747D01*
X105401777Y-57673223D01*
X105418253Y-57691401D01*
X105432868Y-57711107D01*
X105445480Y-57732150D01*
X105455970Y-57754329D01*
X105464235Y-57777428D01*
X105470196Y-57801227D01*
X105473796Y-57825495D01*
X105475000Y-57849999D01*
X105475000Y-58500001D01*
X105473796Y-58524505D01*
X105470196Y-58548773D01*
X105464235Y-58572572D01*
X105455970Y-58595671D01*
X105445480Y-58617850D01*
X105432868Y-58638893D01*
X105418253Y-58658599D01*
X105401777Y-58676777D01*
X105383599Y-58693253D01*
X105363893Y-58707868D01*
X105342850Y-58720480D01*
X105320671Y-58730970D01*
X105297572Y-58739235D01*
X105273773Y-58745196D01*
X105249505Y-58748796D01*
X105225001Y-58750000D01*
X104324999Y-58750000D01*
X104300495Y-58748796D01*
X104276227Y-58745196D01*
X104252428Y-58739235D01*
X104229329Y-58730970D01*
X104207150Y-58720480D01*
X104186107Y-58707868D01*
X104166401Y-58693253D01*
X104148223Y-58676777D01*
X104131747Y-58658599D01*
X104117132Y-58638893D01*
X104104520Y-58617850D01*
X104094030Y-58595671D01*
X104085765Y-58572572D01*
X104079804Y-58548773D01*
X104076204Y-58524505D01*
X104075000Y-58500001D01*
X104075000Y-57849999D01*
X104076204Y-57825495D01*
X104079804Y-57801227D01*
X104085765Y-57777428D01*
X104094030Y-57754329D01*
X104104520Y-57732150D01*
X104117132Y-57711107D01*
X104131747Y-57691401D01*
X104148223Y-57673223D01*
X104166401Y-57656747D01*
X104186107Y-57642132D01*
X104207150Y-57629520D01*
X104229329Y-57619030D01*
X104252428Y-57610765D01*
X104276227Y-57604804D01*
X104300495Y-57601204D01*
X104324999Y-57600000D01*
X105225001Y-57600000D01*
X105249505Y-57601204D01*
X105249505Y-57601204D01*
G37*
D11*
X104775000Y-58175000D03*
D10*
G36*
X105249505Y-55551204D02*
G01*
X105273773Y-55554804D01*
X105297572Y-55560765D01*
X105320671Y-55569030D01*
X105342850Y-55579520D01*
X105363893Y-55592132D01*
X105383599Y-55606747D01*
X105401777Y-55623223D01*
X105418253Y-55641401D01*
X105432868Y-55661107D01*
X105445480Y-55682150D01*
X105455970Y-55704329D01*
X105464235Y-55727428D01*
X105470196Y-55751227D01*
X105473796Y-55775495D01*
X105475000Y-55799999D01*
X105475000Y-56450001D01*
X105473796Y-56474505D01*
X105470196Y-56498773D01*
X105464235Y-56522572D01*
X105455970Y-56545671D01*
X105445480Y-56567850D01*
X105432868Y-56588893D01*
X105418253Y-56608599D01*
X105401777Y-56626777D01*
X105383599Y-56643253D01*
X105363893Y-56657868D01*
X105342850Y-56670480D01*
X105320671Y-56680970D01*
X105297572Y-56689235D01*
X105273773Y-56695196D01*
X105249505Y-56698796D01*
X105225001Y-56700000D01*
X104324999Y-56700000D01*
X104300495Y-56698796D01*
X104276227Y-56695196D01*
X104252428Y-56689235D01*
X104229329Y-56680970D01*
X104207150Y-56670480D01*
X104186107Y-56657868D01*
X104166401Y-56643253D01*
X104148223Y-56626777D01*
X104131747Y-56608599D01*
X104117132Y-56588893D01*
X104104520Y-56567850D01*
X104094030Y-56545671D01*
X104085765Y-56522572D01*
X104079804Y-56498773D01*
X104076204Y-56474505D01*
X104075000Y-56450001D01*
X104075000Y-55799999D01*
X104076204Y-55775495D01*
X104079804Y-55751227D01*
X104085765Y-55727428D01*
X104094030Y-55704329D01*
X104104520Y-55682150D01*
X104117132Y-55661107D01*
X104131747Y-55641401D01*
X104148223Y-55623223D01*
X104166401Y-55606747D01*
X104186107Y-55592132D01*
X104207150Y-55579520D01*
X104229329Y-55569030D01*
X104252428Y-55560765D01*
X104276227Y-55554804D01*
X104300495Y-55551204D01*
X104324999Y-55550000D01*
X105225001Y-55550000D01*
X105249505Y-55551204D01*
X105249505Y-55551204D01*
G37*
D11*
X104775000Y-56125000D03*
D10*
G36*
X105249505Y-72219954D02*
G01*
X105273773Y-72223554D01*
X105297572Y-72229515D01*
X105320671Y-72237780D01*
X105342850Y-72248270D01*
X105363893Y-72260882D01*
X105383599Y-72275497D01*
X105401777Y-72291973D01*
X105418253Y-72310151D01*
X105432868Y-72329857D01*
X105445480Y-72350900D01*
X105455970Y-72373079D01*
X105464235Y-72396178D01*
X105470196Y-72419977D01*
X105473796Y-72444245D01*
X105475000Y-72468749D01*
X105475000Y-73118751D01*
X105473796Y-73143255D01*
X105470196Y-73167523D01*
X105464235Y-73191322D01*
X105455970Y-73214421D01*
X105445480Y-73236600D01*
X105432868Y-73257643D01*
X105418253Y-73277349D01*
X105401777Y-73295527D01*
X105383599Y-73312003D01*
X105363893Y-73326618D01*
X105342850Y-73339230D01*
X105320671Y-73349720D01*
X105297572Y-73357985D01*
X105273773Y-73363946D01*
X105249505Y-73367546D01*
X105225001Y-73368750D01*
X104324999Y-73368750D01*
X104300495Y-73367546D01*
X104276227Y-73363946D01*
X104252428Y-73357985D01*
X104229329Y-73349720D01*
X104207150Y-73339230D01*
X104186107Y-73326618D01*
X104166401Y-73312003D01*
X104148223Y-73295527D01*
X104131747Y-73277349D01*
X104117132Y-73257643D01*
X104104520Y-73236600D01*
X104094030Y-73214421D01*
X104085765Y-73191322D01*
X104079804Y-73167523D01*
X104076204Y-73143255D01*
X104075000Y-73118751D01*
X104075000Y-72468749D01*
X104076204Y-72444245D01*
X104079804Y-72419977D01*
X104085765Y-72396178D01*
X104094030Y-72373079D01*
X104104520Y-72350900D01*
X104117132Y-72329857D01*
X104131747Y-72310151D01*
X104148223Y-72291973D01*
X104166401Y-72275497D01*
X104186107Y-72260882D01*
X104207150Y-72248270D01*
X104229329Y-72237780D01*
X104252428Y-72229515D01*
X104276227Y-72223554D01*
X104300495Y-72219954D01*
X104324999Y-72218750D01*
X105225001Y-72218750D01*
X105249505Y-72219954D01*
X105249505Y-72219954D01*
G37*
D11*
X104775000Y-72793750D03*
D10*
G36*
X105249505Y-74269954D02*
G01*
X105273773Y-74273554D01*
X105297572Y-74279515D01*
X105320671Y-74287780D01*
X105342850Y-74298270D01*
X105363893Y-74310882D01*
X105383599Y-74325497D01*
X105401777Y-74341973D01*
X105418253Y-74360151D01*
X105432868Y-74379857D01*
X105445480Y-74400900D01*
X105455970Y-74423079D01*
X105464235Y-74446178D01*
X105470196Y-74469977D01*
X105473796Y-74494245D01*
X105475000Y-74518749D01*
X105475000Y-75168751D01*
X105473796Y-75193255D01*
X105470196Y-75217523D01*
X105464235Y-75241322D01*
X105455970Y-75264421D01*
X105445480Y-75286600D01*
X105432868Y-75307643D01*
X105418253Y-75327349D01*
X105401777Y-75345527D01*
X105383599Y-75362003D01*
X105363893Y-75376618D01*
X105342850Y-75389230D01*
X105320671Y-75399720D01*
X105297572Y-75407985D01*
X105273773Y-75413946D01*
X105249505Y-75417546D01*
X105225001Y-75418750D01*
X104324999Y-75418750D01*
X104300495Y-75417546D01*
X104276227Y-75413946D01*
X104252428Y-75407985D01*
X104229329Y-75399720D01*
X104207150Y-75389230D01*
X104186107Y-75376618D01*
X104166401Y-75362003D01*
X104148223Y-75345527D01*
X104131747Y-75327349D01*
X104117132Y-75307643D01*
X104104520Y-75286600D01*
X104094030Y-75264421D01*
X104085765Y-75241322D01*
X104079804Y-75217523D01*
X104076204Y-75193255D01*
X104075000Y-75168751D01*
X104075000Y-74518749D01*
X104076204Y-74494245D01*
X104079804Y-74469977D01*
X104085765Y-74446178D01*
X104094030Y-74423079D01*
X104104520Y-74400900D01*
X104117132Y-74379857D01*
X104131747Y-74360151D01*
X104148223Y-74341973D01*
X104166401Y-74325497D01*
X104186107Y-74310882D01*
X104207150Y-74298270D01*
X104229329Y-74287780D01*
X104252428Y-74279515D01*
X104276227Y-74273554D01*
X104300495Y-74269954D01*
X104324999Y-74268750D01*
X105225001Y-74268750D01*
X105249505Y-74269954D01*
X105249505Y-74269954D01*
G37*
D11*
X104775000Y-74843750D03*
D10*
G36*
X105249505Y-69507454D02*
G01*
X105273773Y-69511054D01*
X105297572Y-69517015D01*
X105320671Y-69525280D01*
X105342850Y-69535770D01*
X105363893Y-69548382D01*
X105383599Y-69562997D01*
X105401777Y-69579473D01*
X105418253Y-69597651D01*
X105432868Y-69617357D01*
X105445480Y-69638400D01*
X105455970Y-69660579D01*
X105464235Y-69683678D01*
X105470196Y-69707477D01*
X105473796Y-69731745D01*
X105475000Y-69756249D01*
X105475000Y-70406251D01*
X105473796Y-70430755D01*
X105470196Y-70455023D01*
X105464235Y-70478822D01*
X105455970Y-70501921D01*
X105445480Y-70524100D01*
X105432868Y-70545143D01*
X105418253Y-70564849D01*
X105401777Y-70583027D01*
X105383599Y-70599503D01*
X105363893Y-70614118D01*
X105342850Y-70626730D01*
X105320671Y-70637220D01*
X105297572Y-70645485D01*
X105273773Y-70651446D01*
X105249505Y-70655046D01*
X105225001Y-70656250D01*
X104324999Y-70656250D01*
X104300495Y-70655046D01*
X104276227Y-70651446D01*
X104252428Y-70645485D01*
X104229329Y-70637220D01*
X104207150Y-70626730D01*
X104186107Y-70614118D01*
X104166401Y-70599503D01*
X104148223Y-70583027D01*
X104131747Y-70564849D01*
X104117132Y-70545143D01*
X104104520Y-70524100D01*
X104094030Y-70501921D01*
X104085765Y-70478822D01*
X104079804Y-70455023D01*
X104076204Y-70430755D01*
X104075000Y-70406251D01*
X104075000Y-69756249D01*
X104076204Y-69731745D01*
X104079804Y-69707477D01*
X104085765Y-69683678D01*
X104094030Y-69660579D01*
X104104520Y-69638400D01*
X104117132Y-69617357D01*
X104131747Y-69597651D01*
X104148223Y-69579473D01*
X104166401Y-69562997D01*
X104186107Y-69548382D01*
X104207150Y-69535770D01*
X104229329Y-69525280D01*
X104252428Y-69517015D01*
X104276227Y-69511054D01*
X104300495Y-69507454D01*
X104324999Y-69506250D01*
X105225001Y-69506250D01*
X105249505Y-69507454D01*
X105249505Y-69507454D01*
G37*
D11*
X104775000Y-70081250D03*
D10*
G36*
X105249505Y-67457454D02*
G01*
X105273773Y-67461054D01*
X105297572Y-67467015D01*
X105320671Y-67475280D01*
X105342850Y-67485770D01*
X105363893Y-67498382D01*
X105383599Y-67512997D01*
X105401777Y-67529473D01*
X105418253Y-67547651D01*
X105432868Y-67567357D01*
X105445480Y-67588400D01*
X105455970Y-67610579D01*
X105464235Y-67633678D01*
X105470196Y-67657477D01*
X105473796Y-67681745D01*
X105475000Y-67706249D01*
X105475000Y-68356251D01*
X105473796Y-68380755D01*
X105470196Y-68405023D01*
X105464235Y-68428822D01*
X105455970Y-68451921D01*
X105445480Y-68474100D01*
X105432868Y-68495143D01*
X105418253Y-68514849D01*
X105401777Y-68533027D01*
X105383599Y-68549503D01*
X105363893Y-68564118D01*
X105342850Y-68576730D01*
X105320671Y-68587220D01*
X105297572Y-68595485D01*
X105273773Y-68601446D01*
X105249505Y-68605046D01*
X105225001Y-68606250D01*
X104324999Y-68606250D01*
X104300495Y-68605046D01*
X104276227Y-68601446D01*
X104252428Y-68595485D01*
X104229329Y-68587220D01*
X104207150Y-68576730D01*
X104186107Y-68564118D01*
X104166401Y-68549503D01*
X104148223Y-68533027D01*
X104131747Y-68514849D01*
X104117132Y-68495143D01*
X104104520Y-68474100D01*
X104094030Y-68451921D01*
X104085765Y-68428822D01*
X104079804Y-68405023D01*
X104076204Y-68380755D01*
X104075000Y-68356251D01*
X104075000Y-67706249D01*
X104076204Y-67681745D01*
X104079804Y-67657477D01*
X104085765Y-67633678D01*
X104094030Y-67610579D01*
X104104520Y-67588400D01*
X104117132Y-67567357D01*
X104131747Y-67547651D01*
X104148223Y-67529473D01*
X104166401Y-67512997D01*
X104186107Y-67498382D01*
X104207150Y-67485770D01*
X104229329Y-67475280D01*
X104252428Y-67467015D01*
X104276227Y-67461054D01*
X104300495Y-67457454D01*
X104324999Y-67456250D01*
X105225001Y-67456250D01*
X105249505Y-67457454D01*
X105249505Y-67457454D01*
G37*
D11*
X104775000Y-68031250D03*
D12*
X34143750Y-64293750D03*
X37293750Y-64293750D03*
X37293750Y-83343750D03*
X34143750Y-83343750D03*
X53193750Y-64293750D03*
X56343750Y-64293750D03*
X56343750Y-83343750D03*
X53193750Y-83343750D03*
X72243750Y-64293750D03*
X75393750Y-64293750D03*
X75393750Y-83343750D03*
X72243750Y-83343750D03*
X91293750Y-64293750D03*
X94443750Y-64293750D03*
X94443750Y-83343750D03*
X91293750Y-83343750D03*
D13*
X66968750Y-49568750D03*
X61618750Y-49568750D03*
D14*
X62693750Y-54768750D03*
X63493750Y-54768750D03*
X64293750Y-54768750D03*
X65093750Y-54768750D03*
X65893750Y-54768750D03*
D15*
X60643750Y-52368750D03*
X67943750Y-52368750D03*
D10*
G36*
X105249593Y-79793459D02*
G01*
X105273861Y-79797059D01*
X105297660Y-79803020D01*
X105320759Y-79811285D01*
X105342938Y-79821775D01*
X105363981Y-79834387D01*
X105383687Y-79849002D01*
X105401865Y-79865478D01*
X105418341Y-79883656D01*
X105432956Y-79903362D01*
X105445568Y-79924405D01*
X105456058Y-79946584D01*
X105464323Y-79969683D01*
X105470284Y-79993482D01*
X105473884Y-80017750D01*
X105475088Y-80042254D01*
X105475088Y-80692256D01*
X105473884Y-80716760D01*
X105470284Y-80741028D01*
X105464323Y-80764827D01*
X105456058Y-80787926D01*
X105445568Y-80810105D01*
X105432956Y-80831148D01*
X105418341Y-80850854D01*
X105401865Y-80869032D01*
X105383687Y-80885508D01*
X105363981Y-80900123D01*
X105342938Y-80912735D01*
X105320759Y-80923225D01*
X105297660Y-80931490D01*
X105273861Y-80937451D01*
X105249593Y-80941051D01*
X105225089Y-80942255D01*
X104325087Y-80942255D01*
X104300583Y-80941051D01*
X104276315Y-80937451D01*
X104252516Y-80931490D01*
X104229417Y-80923225D01*
X104207238Y-80912735D01*
X104186195Y-80900123D01*
X104166489Y-80885508D01*
X104148311Y-80869032D01*
X104131835Y-80850854D01*
X104117220Y-80831148D01*
X104104608Y-80810105D01*
X104094118Y-80787926D01*
X104085853Y-80764827D01*
X104079892Y-80741028D01*
X104076292Y-80716760D01*
X104075088Y-80692256D01*
X104075088Y-80042254D01*
X104076292Y-80017750D01*
X104079892Y-79993482D01*
X104085853Y-79969683D01*
X104094118Y-79946584D01*
X104104608Y-79924405D01*
X104117220Y-79903362D01*
X104131835Y-79883656D01*
X104148311Y-79865478D01*
X104166489Y-79849002D01*
X104186195Y-79834387D01*
X104207238Y-79821775D01*
X104229417Y-79811285D01*
X104252516Y-79803020D01*
X104276315Y-79797059D01*
X104300583Y-79793459D01*
X104325087Y-79792255D01*
X105225089Y-79792255D01*
X105249593Y-79793459D01*
X105249593Y-79793459D01*
G37*
D11*
X104775088Y-80367255D03*
D10*
G36*
X105249593Y-81843459D02*
G01*
X105273861Y-81847059D01*
X105297660Y-81853020D01*
X105320759Y-81861285D01*
X105342938Y-81871775D01*
X105363981Y-81884387D01*
X105383687Y-81899002D01*
X105401865Y-81915478D01*
X105418341Y-81933656D01*
X105432956Y-81953362D01*
X105445568Y-81974405D01*
X105456058Y-81996584D01*
X105464323Y-82019683D01*
X105470284Y-82043482D01*
X105473884Y-82067750D01*
X105475088Y-82092254D01*
X105475088Y-82742256D01*
X105473884Y-82766760D01*
X105470284Y-82791028D01*
X105464323Y-82814827D01*
X105456058Y-82837926D01*
X105445568Y-82860105D01*
X105432956Y-82881148D01*
X105418341Y-82900854D01*
X105401865Y-82919032D01*
X105383687Y-82935508D01*
X105363981Y-82950123D01*
X105342938Y-82962735D01*
X105320759Y-82973225D01*
X105297660Y-82981490D01*
X105273861Y-82987451D01*
X105249593Y-82991051D01*
X105225089Y-82992255D01*
X104325087Y-82992255D01*
X104300583Y-82991051D01*
X104276315Y-82987451D01*
X104252516Y-82981490D01*
X104229417Y-82973225D01*
X104207238Y-82962735D01*
X104186195Y-82950123D01*
X104166489Y-82935508D01*
X104148311Y-82919032D01*
X104131835Y-82900854D01*
X104117220Y-82881148D01*
X104104608Y-82860105D01*
X104094118Y-82837926D01*
X104085853Y-82814827D01*
X104079892Y-82791028D01*
X104076292Y-82766760D01*
X104075088Y-82742256D01*
X104075088Y-82092254D01*
X104076292Y-82067750D01*
X104079892Y-82043482D01*
X104085853Y-82019683D01*
X104094118Y-81996584D01*
X104104608Y-81974405D01*
X104117220Y-81953362D01*
X104131835Y-81933656D01*
X104148311Y-81915478D01*
X104166489Y-81899002D01*
X104186195Y-81884387D01*
X104207238Y-81871775D01*
X104229417Y-81861285D01*
X104252516Y-81853020D01*
X104276315Y-81847059D01*
X104300583Y-81843459D01*
X104325087Y-81842255D01*
X105225089Y-81842255D01*
X105249593Y-81843459D01*
X105249593Y-81843459D01*
G37*
D11*
X104775088Y-82417255D03*
D10*
G36*
X124299609Y-67457512D02*
G01*
X124323877Y-67461112D01*
X124347676Y-67467073D01*
X124370775Y-67475338D01*
X124392954Y-67485828D01*
X124413997Y-67498440D01*
X124433703Y-67513055D01*
X124451881Y-67529531D01*
X124468357Y-67547709D01*
X124482972Y-67567415D01*
X124495584Y-67588458D01*
X124506074Y-67610637D01*
X124514339Y-67633736D01*
X124520300Y-67657535D01*
X124523900Y-67681803D01*
X124525104Y-67706307D01*
X124525104Y-68356309D01*
X124523900Y-68380813D01*
X124520300Y-68405081D01*
X124514339Y-68428880D01*
X124506074Y-68451979D01*
X124495584Y-68474158D01*
X124482972Y-68495201D01*
X124468357Y-68514907D01*
X124451881Y-68533085D01*
X124433703Y-68549561D01*
X124413997Y-68564176D01*
X124392954Y-68576788D01*
X124370775Y-68587278D01*
X124347676Y-68595543D01*
X124323877Y-68601504D01*
X124299609Y-68605104D01*
X124275105Y-68606308D01*
X123375103Y-68606308D01*
X123350599Y-68605104D01*
X123326331Y-68601504D01*
X123302532Y-68595543D01*
X123279433Y-68587278D01*
X123257254Y-68576788D01*
X123236211Y-68564176D01*
X123216505Y-68549561D01*
X123198327Y-68533085D01*
X123181851Y-68514907D01*
X123167236Y-68495201D01*
X123154624Y-68474158D01*
X123144134Y-68451979D01*
X123135869Y-68428880D01*
X123129908Y-68405081D01*
X123126308Y-68380813D01*
X123125104Y-68356309D01*
X123125104Y-67706307D01*
X123126308Y-67681803D01*
X123129908Y-67657535D01*
X123135869Y-67633736D01*
X123144134Y-67610637D01*
X123154624Y-67588458D01*
X123167236Y-67567415D01*
X123181851Y-67547709D01*
X123198327Y-67529531D01*
X123216505Y-67513055D01*
X123236211Y-67498440D01*
X123257254Y-67485828D01*
X123279433Y-67475338D01*
X123302532Y-67467073D01*
X123326331Y-67461112D01*
X123350599Y-67457512D01*
X123375103Y-67456308D01*
X124275105Y-67456308D01*
X124299609Y-67457512D01*
X124299609Y-67457512D01*
G37*
D11*
X123825104Y-68031308D03*
D10*
G36*
X124299609Y-69507512D02*
G01*
X124323877Y-69511112D01*
X124347676Y-69517073D01*
X124370775Y-69525338D01*
X124392954Y-69535828D01*
X124413997Y-69548440D01*
X124433703Y-69563055D01*
X124451881Y-69579531D01*
X124468357Y-69597709D01*
X124482972Y-69617415D01*
X124495584Y-69638458D01*
X124506074Y-69660637D01*
X124514339Y-69683736D01*
X124520300Y-69707535D01*
X124523900Y-69731803D01*
X124525104Y-69756307D01*
X124525104Y-70406309D01*
X124523900Y-70430813D01*
X124520300Y-70455081D01*
X124514339Y-70478880D01*
X124506074Y-70501979D01*
X124495584Y-70524158D01*
X124482972Y-70545201D01*
X124468357Y-70564907D01*
X124451881Y-70583085D01*
X124433703Y-70599561D01*
X124413997Y-70614176D01*
X124392954Y-70626788D01*
X124370775Y-70637278D01*
X124347676Y-70645543D01*
X124323877Y-70651504D01*
X124299609Y-70655104D01*
X124275105Y-70656308D01*
X123375103Y-70656308D01*
X123350599Y-70655104D01*
X123326331Y-70651504D01*
X123302532Y-70645543D01*
X123279433Y-70637278D01*
X123257254Y-70626788D01*
X123236211Y-70614176D01*
X123216505Y-70599561D01*
X123198327Y-70583085D01*
X123181851Y-70564907D01*
X123167236Y-70545201D01*
X123154624Y-70524158D01*
X123144134Y-70501979D01*
X123135869Y-70478880D01*
X123129908Y-70455081D01*
X123126308Y-70430813D01*
X123125104Y-70406309D01*
X123125104Y-69756307D01*
X123126308Y-69731803D01*
X123129908Y-69707535D01*
X123135869Y-69683736D01*
X123144134Y-69660637D01*
X123154624Y-69638458D01*
X123167236Y-69617415D01*
X123181851Y-69597709D01*
X123198327Y-69579531D01*
X123216505Y-69563055D01*
X123236211Y-69548440D01*
X123257254Y-69535828D01*
X123279433Y-69525338D01*
X123302532Y-69517073D01*
X123326331Y-69511112D01*
X123350599Y-69507512D01*
X123375103Y-69506308D01*
X124275105Y-69506308D01*
X124299609Y-69507512D01*
X124299609Y-69507512D01*
G37*
D11*
X123825104Y-70081308D03*
D10*
G36*
X104860532Y-50498122D02*
G01*
X104884800Y-50501722D01*
X104908599Y-50507683D01*
X104931698Y-50515948D01*
X104953877Y-50526438D01*
X104974920Y-50539050D01*
X104994626Y-50553665D01*
X105012804Y-50570141D01*
X105029280Y-50588319D01*
X105043895Y-50608025D01*
X105056507Y-50629068D01*
X105066997Y-50651247D01*
X105075262Y-50674346D01*
X105081223Y-50698145D01*
X105084823Y-50722413D01*
X105086027Y-50746917D01*
X105086027Y-51646919D01*
X105084823Y-51671423D01*
X105081223Y-51695691D01*
X105075262Y-51719490D01*
X105066997Y-51742589D01*
X105056507Y-51764768D01*
X105043895Y-51785811D01*
X105029280Y-51805517D01*
X105012804Y-51823695D01*
X104994626Y-51840171D01*
X104974920Y-51854786D01*
X104953877Y-51867398D01*
X104931698Y-51877888D01*
X104908599Y-51886153D01*
X104884800Y-51892114D01*
X104860532Y-51895714D01*
X104836028Y-51896918D01*
X104186026Y-51896918D01*
X104161522Y-51895714D01*
X104137254Y-51892114D01*
X104113455Y-51886153D01*
X104090356Y-51877888D01*
X104068177Y-51867398D01*
X104047134Y-51854786D01*
X104027428Y-51840171D01*
X104009250Y-51823695D01*
X103992774Y-51805517D01*
X103978159Y-51785811D01*
X103965547Y-51764768D01*
X103955057Y-51742589D01*
X103946792Y-51719490D01*
X103940831Y-51695691D01*
X103937231Y-51671423D01*
X103936027Y-51646919D01*
X103936027Y-50746917D01*
X103937231Y-50722413D01*
X103940831Y-50698145D01*
X103946792Y-50674346D01*
X103955057Y-50651247D01*
X103965547Y-50629068D01*
X103978159Y-50608025D01*
X103992774Y-50588319D01*
X104009250Y-50570141D01*
X104027428Y-50553665D01*
X104047134Y-50539050D01*
X104068177Y-50526438D01*
X104090356Y-50515948D01*
X104113455Y-50507683D01*
X104137254Y-50501722D01*
X104161522Y-50498122D01*
X104186026Y-50496918D01*
X104836028Y-50496918D01*
X104860532Y-50498122D01*
X104860532Y-50498122D01*
G37*
D11*
X104511027Y-51196918D03*
D10*
G36*
X106910532Y-50498122D02*
G01*
X106934800Y-50501722D01*
X106958599Y-50507683D01*
X106981698Y-50515948D01*
X107003877Y-50526438D01*
X107024920Y-50539050D01*
X107044626Y-50553665D01*
X107062804Y-50570141D01*
X107079280Y-50588319D01*
X107093895Y-50608025D01*
X107106507Y-50629068D01*
X107116997Y-50651247D01*
X107125262Y-50674346D01*
X107131223Y-50698145D01*
X107134823Y-50722413D01*
X107136027Y-50746917D01*
X107136027Y-51646919D01*
X107134823Y-51671423D01*
X107131223Y-51695691D01*
X107125262Y-51719490D01*
X107116997Y-51742589D01*
X107106507Y-51764768D01*
X107093895Y-51785811D01*
X107079280Y-51805517D01*
X107062804Y-51823695D01*
X107044626Y-51840171D01*
X107024920Y-51854786D01*
X107003877Y-51867398D01*
X106981698Y-51877888D01*
X106958599Y-51886153D01*
X106934800Y-51892114D01*
X106910532Y-51895714D01*
X106886028Y-51896918D01*
X106236026Y-51896918D01*
X106211522Y-51895714D01*
X106187254Y-51892114D01*
X106163455Y-51886153D01*
X106140356Y-51877888D01*
X106118177Y-51867398D01*
X106097134Y-51854786D01*
X106077428Y-51840171D01*
X106059250Y-51823695D01*
X106042774Y-51805517D01*
X106028159Y-51785811D01*
X106015547Y-51764768D01*
X106005057Y-51742589D01*
X105996792Y-51719490D01*
X105990831Y-51695691D01*
X105987231Y-51671423D01*
X105986027Y-51646919D01*
X105986027Y-50746917D01*
X105987231Y-50722413D01*
X105990831Y-50698145D01*
X105996792Y-50674346D01*
X106005057Y-50651247D01*
X106015547Y-50629068D01*
X106028159Y-50608025D01*
X106042774Y-50588319D01*
X106059250Y-50570141D01*
X106077428Y-50553665D01*
X106097134Y-50539050D01*
X106118177Y-50526438D01*
X106140356Y-50515948D01*
X106163455Y-50507683D01*
X106187254Y-50501722D01*
X106211522Y-50498122D01*
X106236026Y-50496918D01*
X106886028Y-50496918D01*
X106910532Y-50498122D01*
X106910532Y-50498122D01*
G37*
D11*
X106561027Y-51196918D03*
D10*
G36*
X112863662Y-50498122D02*
G01*
X112887930Y-50501722D01*
X112911729Y-50507683D01*
X112934828Y-50515948D01*
X112957007Y-50526438D01*
X112978050Y-50539050D01*
X112997756Y-50553665D01*
X113015934Y-50570141D01*
X113032410Y-50588319D01*
X113047025Y-50608025D01*
X113059637Y-50629068D01*
X113070127Y-50651247D01*
X113078392Y-50674346D01*
X113084353Y-50698145D01*
X113087953Y-50722413D01*
X113089157Y-50746917D01*
X113089157Y-51646919D01*
X113087953Y-51671423D01*
X113084353Y-51695691D01*
X113078392Y-51719490D01*
X113070127Y-51742589D01*
X113059637Y-51764768D01*
X113047025Y-51785811D01*
X113032410Y-51805517D01*
X113015934Y-51823695D01*
X112997756Y-51840171D01*
X112978050Y-51854786D01*
X112957007Y-51867398D01*
X112934828Y-51877888D01*
X112911729Y-51886153D01*
X112887930Y-51892114D01*
X112863662Y-51895714D01*
X112839158Y-51896918D01*
X112189156Y-51896918D01*
X112164652Y-51895714D01*
X112140384Y-51892114D01*
X112116585Y-51886153D01*
X112093486Y-51877888D01*
X112071307Y-51867398D01*
X112050264Y-51854786D01*
X112030558Y-51840171D01*
X112012380Y-51823695D01*
X111995904Y-51805517D01*
X111981289Y-51785811D01*
X111968677Y-51764768D01*
X111958187Y-51742589D01*
X111949922Y-51719490D01*
X111943961Y-51695691D01*
X111940361Y-51671423D01*
X111939157Y-51646919D01*
X111939157Y-50746917D01*
X111940361Y-50722413D01*
X111943961Y-50698145D01*
X111949922Y-50674346D01*
X111958187Y-50651247D01*
X111968677Y-50629068D01*
X111981289Y-50608025D01*
X111995904Y-50588319D01*
X112012380Y-50570141D01*
X112030558Y-50553665D01*
X112050264Y-50539050D01*
X112071307Y-50526438D01*
X112093486Y-50515948D01*
X112116585Y-50507683D01*
X112140384Y-50501722D01*
X112164652Y-50498122D01*
X112189156Y-50496918D01*
X112839158Y-50496918D01*
X112863662Y-50498122D01*
X112863662Y-50498122D01*
G37*
D11*
X112514157Y-51196918D03*
D10*
G36*
X110813662Y-50498122D02*
G01*
X110837930Y-50501722D01*
X110861729Y-50507683D01*
X110884828Y-50515948D01*
X110907007Y-50526438D01*
X110928050Y-50539050D01*
X110947756Y-50553665D01*
X110965934Y-50570141D01*
X110982410Y-50588319D01*
X110997025Y-50608025D01*
X111009637Y-50629068D01*
X111020127Y-50651247D01*
X111028392Y-50674346D01*
X111034353Y-50698145D01*
X111037953Y-50722413D01*
X111039157Y-50746917D01*
X111039157Y-51646919D01*
X111037953Y-51671423D01*
X111034353Y-51695691D01*
X111028392Y-51719490D01*
X111020127Y-51742589D01*
X111009637Y-51764768D01*
X110997025Y-51785811D01*
X110982410Y-51805517D01*
X110965934Y-51823695D01*
X110947756Y-51840171D01*
X110928050Y-51854786D01*
X110907007Y-51867398D01*
X110884828Y-51877888D01*
X110861729Y-51886153D01*
X110837930Y-51892114D01*
X110813662Y-51895714D01*
X110789158Y-51896918D01*
X110139156Y-51896918D01*
X110114652Y-51895714D01*
X110090384Y-51892114D01*
X110066585Y-51886153D01*
X110043486Y-51877888D01*
X110021307Y-51867398D01*
X110000264Y-51854786D01*
X109980558Y-51840171D01*
X109962380Y-51823695D01*
X109945904Y-51805517D01*
X109931289Y-51785811D01*
X109918677Y-51764768D01*
X109908187Y-51742589D01*
X109899922Y-51719490D01*
X109893961Y-51695691D01*
X109890361Y-51671423D01*
X109889157Y-51646919D01*
X109889157Y-50746917D01*
X109890361Y-50722413D01*
X109893961Y-50698145D01*
X109899922Y-50674346D01*
X109908187Y-50651247D01*
X109918677Y-50629068D01*
X109931289Y-50608025D01*
X109945904Y-50588319D01*
X109962380Y-50570141D01*
X109980558Y-50553665D01*
X110000264Y-50539050D01*
X110021307Y-50526438D01*
X110043486Y-50515948D01*
X110066585Y-50507683D01*
X110090384Y-50501722D01*
X110114652Y-50498122D01*
X110139156Y-50496918D01*
X110789158Y-50496918D01*
X110813662Y-50498122D01*
X110813662Y-50498122D01*
G37*
D11*
X110464157Y-51196918D03*
D16*
X111150000Y-83457881D03*
X117450000Y-83457881D03*
X111150000Y-79657881D03*
X117450000Y-79657881D03*
D17*
X108600000Y-73056250D03*
X108600000Y-72256250D03*
X108600000Y-71456250D03*
X108600000Y-70656250D03*
X108600000Y-69856250D03*
X108600000Y-69056250D03*
X108600000Y-68256250D03*
X108600000Y-67456250D03*
X108600000Y-66656250D03*
X108600000Y-65856250D03*
X108600000Y-65056250D03*
D18*
X110300000Y-63356250D03*
X111100000Y-63356250D03*
X111900000Y-63356250D03*
X112700000Y-63356250D03*
X113500000Y-63356250D03*
X114300000Y-63356250D03*
X115100000Y-63356250D03*
X115900000Y-63356250D03*
X116700000Y-63356250D03*
X117500000Y-63356250D03*
X118300000Y-63356250D03*
D17*
X120000000Y-65056250D03*
X120000000Y-65856250D03*
X120000000Y-66656250D03*
X120000000Y-67456250D03*
X120000000Y-68256250D03*
X120000000Y-69056250D03*
X120000000Y-69856250D03*
X120000000Y-70656250D03*
X120000000Y-71456250D03*
X120000000Y-72256250D03*
X120000000Y-73056250D03*
D18*
X118300000Y-74756250D03*
X117500000Y-74756250D03*
X116700000Y-74756250D03*
X115900000Y-74756250D03*
X115100000Y-74756250D03*
X114300000Y-74756250D03*
X113500000Y-74756250D03*
X112700000Y-74756250D03*
X111900000Y-74756250D03*
X111100000Y-74756250D03*
X110300000Y-74756250D03*
D19*
X112956497Y-57362132D03*
D10*
G36*
X112885786Y-58281371D02*
G01*
X112037258Y-57432843D01*
X113027208Y-56442893D01*
X113875736Y-57291421D01*
X112885786Y-58281371D01*
X112885786Y-58281371D01*
G37*
D19*
X114512132Y-55806497D03*
D10*
G36*
X114441421Y-56725736D02*
G01*
X113592893Y-55877208D01*
X114582843Y-54887258D01*
X115431371Y-55735786D01*
X114441421Y-56725736D01*
X114441421Y-56725736D01*
G37*
D19*
X114087868Y-58493503D03*
D10*
G36*
X114017157Y-59412742D02*
G01*
X113168629Y-58564214D01*
X114158579Y-57574264D01*
X115007107Y-58422792D01*
X114017157Y-59412742D01*
X114017157Y-59412742D01*
G37*
D19*
X115643503Y-56937868D03*
D10*
G36*
X115572792Y-57857107D02*
G01*
X114724264Y-57008579D01*
X115714214Y-56018629D01*
X116562742Y-56867157D01*
X115572792Y-57857107D01*
X115572792Y-57857107D01*
G37*
M02*
