M48
; DRILL file {KiCad (5.1.0-0)} date Wednesday, March 20, 2019 at 04:54:25 PM
; FORMAT={-:-/ absolute / inch / decimal}
; #@! TF.CreationDate,2019-03-20T16:54:25-04:00
; #@! TF.GenerationSoftware,Kicad,Pcbnew,(5.1.0-0)
; #@! TF.FileFunction,Plated,1,2,PTH
FMAT,2
INCH
T1C0.0157
T2C0.0276
T3C0.0591
%
G90
G05
T1
X2.4847Y-2.5743
X2.6673Y-2.5787
X3.9961Y-2.1654
X4.1427Y-2.1654
X4.1831Y-2.2539
X4.1831Y-2.2539
X4.1839Y-2.7742
X4.2126Y-2.2146
X4.2126Y-2.7473
X4.2618Y-2.1654
X4.2717Y-2.0866
X4.2717Y-2.9921
X4.2995Y-3.0207
X4.3406Y-2.7657
X4.3727Y-2.8274
X4.3799Y-2.5591
X4.4995Y-3.2594
X4.5335Y-3.1851
X4.5625Y-3.1157
X4.5965Y-3.0413
X4.626Y-3.0709
X4.7897Y-2.5358
X4.8031Y-2.6378
T2
X1.2527Y-3.2812
X1.5598Y-3.2812
X1.2527Y-2.5312
X1.5598Y-2.5312
X2.0027Y-3.2812
X2.3098Y-3.2812
X3.5027Y-2.5312
X3.8098Y-2.5312
X2.7527Y-3.2812
X3.0598Y-3.2812
X2.0027Y-2.5312
X2.3098Y-2.5312
X3.5027Y-3.2812
X3.8098Y-3.2812
X2.7527Y-2.5312
X3.0598Y-2.5312
T2
G00X2.3875Y-2.0125
M15
G01X2.3875Y-2.111
M16
G05
G00X2.675Y-2.0125
M15
G01X2.675Y-2.111
M16
G05
T3
G00X1.2882Y-2.1863
M15
G01X1.2562Y-2.2437
M16
G05
G00X1.5062Y-2.1438
M15
G01X1.5047Y-2.1666
M16
G05
G00X1.2882Y-2.9363
M15
G01X1.2562Y-2.9937
M16
G05
G00X1.5062Y-2.8938
M15
G01X1.5047Y-2.9166
M16
G05
G00X2.0382Y-2.1863
M15
G01X2.0062Y-2.2437
M16
G05
G00X2.2562Y-2.1438
M15
G01X2.2547Y-2.1666
M16
G05
G00X2.0382Y-2.9363
M15
G01X2.0062Y-2.9937
M16
G05
G00X2.2562Y-2.8938
M15
G01X2.2547Y-2.9166
M16
G05
G00X2.7882Y-2.1863
M15
G01X2.7562Y-2.2437
M16
G05
G00X3.0062Y-2.1438
M15
G01X3.0047Y-2.1666
M16
G05
G00X2.7882Y-2.9363
M15
G01X2.7562Y-2.9937
M16
G05
G00X3.0062Y-2.8938
M15
G01X3.0047Y-2.9166
M16
G05
G00X3.5382Y-2.1863
M15
G01X3.5062Y-2.2437
M16
G05
G00X3.7562Y-2.1438
M15
G01X3.7547Y-2.1666
M16
G05
G00X3.5382Y-2.9363
M15
G01X3.5062Y-2.9937
M16
G05
G00X3.7562Y-2.8938
M15
G01X3.7547Y-2.9166
M16
G05
T0
M30
