G04 #@! TF.GenerationSoftware,KiCad,Pcbnew,(5.1.0-0)*
G04 #@! TF.CreationDate,2019-03-20T16:53:29-04:00*
G04 #@! TF.ProjectId,keeb2x4,6b656562-3278-4342-9e6b-696361645f70,rev?*
G04 #@! TF.SameCoordinates,Original*
G04 #@! TF.FileFunction,Soldermask,Top*
G04 #@! TF.FilePolarity,Negative*
%FSLAX46Y46*%
G04 Gerber Fmt 4.6, Leading zero omitted, Abs format (unit mm)*
G04 Created by KiCad (PCBNEW (5.1.0-0)) date 2019-03-20 16:53:29*
%MOMM*%
%LPD*%
G04 APERTURE LIST*
%ADD10C,0.100000*%
G04 APERTURE END LIST*
D10*
G36*
X123974549Y-85121116D02*
G01*
X124085734Y-85143232D01*
X124295203Y-85229997D01*
X124483720Y-85355960D01*
X124644040Y-85516280D01*
X124770003Y-85704797D01*
X124856768Y-85914266D01*
X124901000Y-86136636D01*
X124901000Y-86363364D01*
X124856768Y-86585734D01*
X124770003Y-86795203D01*
X124644040Y-86983720D01*
X124483720Y-87144040D01*
X124295203Y-87270003D01*
X124085734Y-87356768D01*
X123974549Y-87378884D01*
X123863365Y-87401000D01*
X123636635Y-87401000D01*
X123525451Y-87378884D01*
X123414266Y-87356768D01*
X123204797Y-87270003D01*
X123016280Y-87144040D01*
X122855960Y-86983720D01*
X122729997Y-86795203D01*
X122643232Y-86585734D01*
X122599000Y-86363364D01*
X122599000Y-86136636D01*
X122643232Y-85914266D01*
X122729997Y-85704797D01*
X122855960Y-85516280D01*
X123016280Y-85355960D01*
X123204797Y-85229997D01*
X123414266Y-85143232D01*
X123525451Y-85121116D01*
X123636635Y-85099000D01*
X123863365Y-85099000D01*
X123974549Y-85121116D01*
X123974549Y-85121116D01*
G37*
G36*
X28224549Y-85121116D02*
G01*
X28335734Y-85143232D01*
X28545203Y-85229997D01*
X28733720Y-85355960D01*
X28894040Y-85516280D01*
X29020003Y-85704797D01*
X29106768Y-85914266D01*
X29151000Y-86136636D01*
X29151000Y-86363364D01*
X29106768Y-86585734D01*
X29020003Y-86795203D01*
X28894040Y-86983720D01*
X28733720Y-87144040D01*
X28545203Y-87270003D01*
X28335734Y-87356768D01*
X28224549Y-87378884D01*
X28113365Y-87401000D01*
X27886635Y-87401000D01*
X27775451Y-87378884D01*
X27664266Y-87356768D01*
X27454797Y-87270003D01*
X27266280Y-87144040D01*
X27105960Y-86983720D01*
X26979997Y-86795203D01*
X26893232Y-86585734D01*
X26849000Y-86363364D01*
X26849000Y-86136636D01*
X26893232Y-85914266D01*
X26979997Y-85704797D01*
X27105960Y-85516280D01*
X27266280Y-85355960D01*
X27454797Y-85229997D01*
X27664266Y-85143232D01*
X27775451Y-85121116D01*
X27886635Y-85099000D01*
X28113365Y-85099000D01*
X28224549Y-85121116D01*
X28224549Y-85121116D01*
G37*
G36*
X77966978Y-82525453D02*
G01*
X78121850Y-82589603D01*
X78261231Y-82682735D01*
X78379765Y-82801269D01*
X78472897Y-82940650D01*
X78537047Y-83095522D01*
X78569750Y-83259934D01*
X78569750Y-83427566D01*
X78537047Y-83591978D01*
X78472897Y-83746850D01*
X78379765Y-83886231D01*
X78261231Y-84004765D01*
X78121850Y-84097897D01*
X77966978Y-84162047D01*
X77802566Y-84194750D01*
X77634934Y-84194750D01*
X77470522Y-84162047D01*
X77315650Y-84097897D01*
X77176269Y-84004765D01*
X77057735Y-83886231D01*
X76964603Y-83746850D01*
X76900453Y-83591978D01*
X76867750Y-83427566D01*
X76867750Y-83259934D01*
X76900453Y-83095522D01*
X76964603Y-82940650D01*
X77057735Y-82801269D01*
X77176269Y-82682735D01*
X77315650Y-82589603D01*
X77470522Y-82525453D01*
X77634934Y-82492750D01*
X77802566Y-82492750D01*
X77966978Y-82525453D01*
X77966978Y-82525453D01*
G37*
G36*
X70769750Y-84194750D02*
G01*
X69067750Y-84194750D01*
X69067750Y-82492750D01*
X70769750Y-82492750D01*
X70769750Y-84194750D01*
X70769750Y-84194750D01*
G37*
G36*
X58916978Y-82525453D02*
G01*
X59071850Y-82589603D01*
X59211231Y-82682735D01*
X59329765Y-82801269D01*
X59422897Y-82940650D01*
X59487047Y-83095522D01*
X59519750Y-83259934D01*
X59519750Y-83427566D01*
X59487047Y-83591978D01*
X59422897Y-83746850D01*
X59329765Y-83886231D01*
X59211231Y-84004765D01*
X59071850Y-84097897D01*
X58916978Y-84162047D01*
X58752566Y-84194750D01*
X58584934Y-84194750D01*
X58420522Y-84162047D01*
X58265650Y-84097897D01*
X58126269Y-84004765D01*
X58007735Y-83886231D01*
X57914603Y-83746850D01*
X57850453Y-83591978D01*
X57817750Y-83427566D01*
X57817750Y-83259934D01*
X57850453Y-83095522D01*
X57914603Y-82940650D01*
X58007735Y-82801269D01*
X58126269Y-82682735D01*
X58265650Y-82589603D01*
X58420522Y-82525453D01*
X58584934Y-82492750D01*
X58752566Y-82492750D01*
X58916978Y-82525453D01*
X58916978Y-82525453D01*
G37*
G36*
X51719750Y-84194750D02*
G01*
X50017750Y-84194750D01*
X50017750Y-82492750D01*
X51719750Y-82492750D01*
X51719750Y-84194750D01*
X51719750Y-84194750D01*
G37*
G36*
X39866978Y-82525453D02*
G01*
X40021850Y-82589603D01*
X40161231Y-82682735D01*
X40279765Y-82801269D01*
X40372897Y-82940650D01*
X40437047Y-83095522D01*
X40469750Y-83259934D01*
X40469750Y-83427566D01*
X40437047Y-83591978D01*
X40372897Y-83746850D01*
X40279765Y-83886231D01*
X40161231Y-84004765D01*
X40021850Y-84097897D01*
X39866978Y-84162047D01*
X39702566Y-84194750D01*
X39534934Y-84194750D01*
X39370522Y-84162047D01*
X39215650Y-84097897D01*
X39076269Y-84004765D01*
X38957735Y-83886231D01*
X38864603Y-83746850D01*
X38800453Y-83591978D01*
X38767750Y-83427566D01*
X38767750Y-83259934D01*
X38800453Y-83095522D01*
X38864603Y-82940650D01*
X38957735Y-82801269D01*
X39076269Y-82682735D01*
X39215650Y-82589603D01*
X39370522Y-82525453D01*
X39534934Y-82492750D01*
X39702566Y-82492750D01*
X39866978Y-82525453D01*
X39866978Y-82525453D01*
G37*
G36*
X32669750Y-84194750D02*
G01*
X30967750Y-84194750D01*
X30967750Y-82492750D01*
X32669750Y-82492750D01*
X32669750Y-84194750D01*
X32669750Y-84194750D01*
G37*
G36*
X97016978Y-82525453D02*
G01*
X97171850Y-82589603D01*
X97311231Y-82682735D01*
X97429765Y-82801269D01*
X97522897Y-82940650D01*
X97587047Y-83095522D01*
X97619750Y-83259934D01*
X97619750Y-83427566D01*
X97587047Y-83591978D01*
X97522897Y-83746850D01*
X97429765Y-83886231D01*
X97311231Y-84004765D01*
X97171850Y-84097897D01*
X97016978Y-84162047D01*
X96852566Y-84194750D01*
X96684934Y-84194750D01*
X96520522Y-84162047D01*
X96365650Y-84097897D01*
X96226269Y-84004765D01*
X96107735Y-83886231D01*
X96014603Y-83746850D01*
X95950453Y-83591978D01*
X95917750Y-83427566D01*
X95917750Y-83259934D01*
X95950453Y-83095522D01*
X96014603Y-82940650D01*
X96107735Y-82801269D01*
X96226269Y-82682735D01*
X96365650Y-82589603D01*
X96520522Y-82525453D01*
X96684934Y-82492750D01*
X96852566Y-82492750D01*
X97016978Y-82525453D01*
X97016978Y-82525453D01*
G37*
G36*
X89819750Y-84194750D02*
G01*
X88117750Y-84194750D01*
X88117750Y-82492750D01*
X89819750Y-82492750D01*
X89819750Y-84194750D01*
X89819750Y-84194750D01*
G37*
G36*
X90018325Y-73282536D02*
G01*
X90268836Y-73336583D01*
X90402107Y-73394324D01*
X90503989Y-73438465D01*
X90615438Y-73515564D01*
X90714746Y-73584264D01*
X90714748Y-73584266D01*
X90893012Y-73768380D01*
X91031930Y-73983733D01*
X91126169Y-74222054D01*
X91158769Y-74401003D01*
X91172101Y-74474178D01*
X91167963Y-74730419D01*
X91113916Y-74980930D01*
X91037563Y-75157161D01*
X90164596Y-76728799D01*
X90055329Y-76886747D01*
X90055327Y-76886749D01*
X89871213Y-77065013D01*
X89686703Y-77184035D01*
X89655858Y-77203932D01*
X89633296Y-77212853D01*
X89417539Y-77298170D01*
X89238590Y-77330770D01*
X89165415Y-77344102D01*
X88909175Y-77339964D01*
X88658664Y-77285917D01*
X88525393Y-77228176D01*
X88423511Y-77184035D01*
X88312062Y-77106936D01*
X88212754Y-77038236D01*
X88212752Y-77038234D01*
X88034488Y-76854120D01*
X87895570Y-76638767D01*
X87801331Y-76400446D01*
X87768731Y-76221497D01*
X87755399Y-76148322D01*
X87759537Y-75892082D01*
X87813584Y-75641571D01*
X87889937Y-75465340D01*
X88762904Y-73893701D01*
X88872171Y-73735753D01*
X88872173Y-73735751D01*
X89056287Y-73557487D01*
X89271639Y-73418568D01*
X89509960Y-73324330D01*
X89688909Y-73291730D01*
X89762084Y-73278398D01*
X90018325Y-73282536D01*
X90018325Y-73282536D01*
G37*
G36*
X70968325Y-73282536D02*
G01*
X71218836Y-73336583D01*
X71352107Y-73394324D01*
X71453989Y-73438465D01*
X71565438Y-73515564D01*
X71664746Y-73584264D01*
X71664748Y-73584266D01*
X71843012Y-73768380D01*
X71981930Y-73983733D01*
X72076169Y-74222054D01*
X72108769Y-74401003D01*
X72122101Y-74474178D01*
X72117963Y-74730419D01*
X72063916Y-74980930D01*
X71987563Y-75157161D01*
X71114596Y-76728799D01*
X71005329Y-76886747D01*
X71005327Y-76886749D01*
X70821213Y-77065013D01*
X70636703Y-77184035D01*
X70605858Y-77203932D01*
X70583296Y-77212853D01*
X70367539Y-77298170D01*
X70188590Y-77330770D01*
X70115415Y-77344102D01*
X69859175Y-77339964D01*
X69608664Y-77285917D01*
X69475393Y-77228176D01*
X69373511Y-77184035D01*
X69262062Y-77106936D01*
X69162754Y-77038236D01*
X69162752Y-77038234D01*
X68984488Y-76854120D01*
X68845570Y-76638767D01*
X68751331Y-76400446D01*
X68718731Y-76221497D01*
X68705399Y-76148322D01*
X68709537Y-75892082D01*
X68763584Y-75641571D01*
X68839937Y-75465340D01*
X69712904Y-73893701D01*
X69822171Y-73735753D01*
X69822173Y-73735751D01*
X70006287Y-73557487D01*
X70221639Y-73418568D01*
X70459960Y-73324330D01*
X70638909Y-73291730D01*
X70712084Y-73278398D01*
X70968325Y-73282536D01*
X70968325Y-73282536D01*
G37*
G36*
X51918325Y-73282536D02*
G01*
X52168836Y-73336583D01*
X52302107Y-73394324D01*
X52403989Y-73438465D01*
X52515438Y-73515564D01*
X52614746Y-73584264D01*
X52614748Y-73584266D01*
X52793012Y-73768380D01*
X52931930Y-73983733D01*
X53026169Y-74222054D01*
X53058769Y-74401003D01*
X53072101Y-74474178D01*
X53067963Y-74730419D01*
X53013916Y-74980930D01*
X52937563Y-75157161D01*
X52064596Y-76728799D01*
X51955329Y-76886747D01*
X51955327Y-76886749D01*
X51771213Y-77065013D01*
X51586703Y-77184035D01*
X51555858Y-77203932D01*
X51533296Y-77212853D01*
X51317539Y-77298170D01*
X51138590Y-77330770D01*
X51065415Y-77344102D01*
X50809175Y-77339964D01*
X50558664Y-77285917D01*
X50425393Y-77228176D01*
X50323511Y-77184035D01*
X50212062Y-77106936D01*
X50112754Y-77038236D01*
X50112752Y-77038234D01*
X49934488Y-76854120D01*
X49795570Y-76638767D01*
X49701331Y-76400446D01*
X49668731Y-76221497D01*
X49655399Y-76148322D01*
X49659537Y-75892082D01*
X49713584Y-75641571D01*
X49789937Y-75465340D01*
X50662904Y-73893701D01*
X50772171Y-73735753D01*
X50772173Y-73735751D01*
X50956287Y-73557487D01*
X51171639Y-73418568D01*
X51409960Y-73324330D01*
X51588909Y-73291730D01*
X51662084Y-73278398D01*
X51918325Y-73282536D01*
X51918325Y-73282536D01*
G37*
G36*
X32868325Y-73282536D02*
G01*
X33118836Y-73336583D01*
X33252107Y-73394324D01*
X33353989Y-73438465D01*
X33465438Y-73515564D01*
X33564746Y-73584264D01*
X33564748Y-73584266D01*
X33743012Y-73768380D01*
X33881930Y-73983733D01*
X33976169Y-74222054D01*
X34008769Y-74401003D01*
X34022101Y-74474178D01*
X34017963Y-74730419D01*
X33963916Y-74980930D01*
X33887563Y-75157161D01*
X33014596Y-76728799D01*
X32905329Y-76886747D01*
X32905327Y-76886749D01*
X32721213Y-77065013D01*
X32536703Y-77184035D01*
X32505858Y-77203932D01*
X32483296Y-77212853D01*
X32267539Y-77298170D01*
X32088590Y-77330770D01*
X32015415Y-77344102D01*
X31759175Y-77339964D01*
X31508664Y-77285917D01*
X31375393Y-77228176D01*
X31273511Y-77184035D01*
X31162062Y-77106936D01*
X31062754Y-77038236D01*
X31062752Y-77038234D01*
X30884488Y-76854120D01*
X30745570Y-76638767D01*
X30651331Y-76400446D01*
X30618731Y-76221497D01*
X30605399Y-76148322D01*
X30609537Y-75892082D01*
X30663584Y-75641571D01*
X30739937Y-75465340D01*
X31612904Y-73893701D01*
X31722171Y-73735753D01*
X31722173Y-73735751D01*
X31906287Y-73557487D01*
X32121639Y-73418568D01*
X32359960Y-73324330D01*
X32538909Y-73291730D01*
X32612084Y-73278398D01*
X32868325Y-73282536D01*
X32868325Y-73282536D01*
G37*
G36*
X95750129Y-72240063D02*
G01*
X95989741Y-72330963D01*
X96207015Y-72466863D01*
X96393602Y-72642538D01*
X96504959Y-72798800D01*
X96542330Y-72851240D01*
X96647485Y-73084947D01*
X96647486Y-73084951D01*
X96705026Y-73334678D01*
X96710808Y-73526644D01*
X96696552Y-73735751D01*
X96662666Y-74232821D01*
X96630885Y-74422233D01*
X96539985Y-74661845D01*
X96496567Y-74731260D01*
X96404085Y-74879119D01*
X96228410Y-75065706D01*
X96072148Y-75177063D01*
X96019708Y-75214434D01*
X95786001Y-75319589D01*
X95785997Y-75319590D01*
X95536271Y-75377130D01*
X95280116Y-75384844D01*
X95280112Y-75384844D01*
X95027371Y-75342437D01*
X94787759Y-75251537D01*
X94570485Y-75115637D01*
X94517453Y-75065706D01*
X94383898Y-74939962D01*
X94272541Y-74783700D01*
X94235170Y-74731260D01*
X94130015Y-74497553D01*
X94072474Y-74247821D01*
X94071698Y-74222054D01*
X94066692Y-74055858D01*
X94114834Y-73349678D01*
X94126794Y-73278398D01*
X94146615Y-73160267D01*
X94237515Y-72920655D01*
X94373415Y-72703381D01*
X94430700Y-72642538D01*
X94549090Y-72516794D01*
X94705352Y-72405437D01*
X94757792Y-72368066D01*
X94991499Y-72262911D01*
X94991503Y-72262910D01*
X95241229Y-72205370D01*
X95497384Y-72197656D01*
X95497388Y-72197656D01*
X95750129Y-72240063D01*
X95750129Y-72240063D01*
G37*
G36*
X38600129Y-72240063D02*
G01*
X38839741Y-72330963D01*
X39057015Y-72466863D01*
X39243602Y-72642538D01*
X39354959Y-72798800D01*
X39392330Y-72851240D01*
X39497485Y-73084947D01*
X39497486Y-73084951D01*
X39555026Y-73334678D01*
X39560808Y-73526644D01*
X39546552Y-73735751D01*
X39512666Y-74232821D01*
X39480885Y-74422233D01*
X39389985Y-74661845D01*
X39346567Y-74731260D01*
X39254085Y-74879119D01*
X39078410Y-75065706D01*
X38922148Y-75177063D01*
X38869708Y-75214434D01*
X38636001Y-75319589D01*
X38635997Y-75319590D01*
X38386271Y-75377130D01*
X38130116Y-75384844D01*
X38130112Y-75384844D01*
X37877371Y-75342437D01*
X37637759Y-75251537D01*
X37420485Y-75115637D01*
X37367453Y-75065706D01*
X37233898Y-74939962D01*
X37122541Y-74783700D01*
X37085170Y-74731260D01*
X36980015Y-74497553D01*
X36922474Y-74247821D01*
X36921698Y-74222054D01*
X36916692Y-74055858D01*
X36964834Y-73349678D01*
X36976794Y-73278398D01*
X36996615Y-73160267D01*
X37087515Y-72920655D01*
X37223415Y-72703381D01*
X37280700Y-72642538D01*
X37399090Y-72516794D01*
X37555352Y-72405437D01*
X37607792Y-72368066D01*
X37841499Y-72262911D01*
X37841503Y-72262910D01*
X38091229Y-72205370D01*
X38347384Y-72197656D01*
X38347388Y-72197656D01*
X38600129Y-72240063D01*
X38600129Y-72240063D01*
G37*
G36*
X57650129Y-72240063D02*
G01*
X57889741Y-72330963D01*
X58107015Y-72466863D01*
X58293602Y-72642538D01*
X58404959Y-72798800D01*
X58442330Y-72851240D01*
X58547485Y-73084947D01*
X58547486Y-73084951D01*
X58605026Y-73334678D01*
X58610808Y-73526644D01*
X58596552Y-73735751D01*
X58562666Y-74232821D01*
X58530885Y-74422233D01*
X58439985Y-74661845D01*
X58396567Y-74731260D01*
X58304085Y-74879119D01*
X58128410Y-75065706D01*
X57972148Y-75177063D01*
X57919708Y-75214434D01*
X57686001Y-75319589D01*
X57685997Y-75319590D01*
X57436271Y-75377130D01*
X57180116Y-75384844D01*
X57180112Y-75384844D01*
X56927371Y-75342437D01*
X56687759Y-75251537D01*
X56470485Y-75115637D01*
X56417453Y-75065706D01*
X56283898Y-74939962D01*
X56172541Y-74783700D01*
X56135170Y-74731260D01*
X56030015Y-74497553D01*
X55972474Y-74247821D01*
X55971698Y-74222054D01*
X55966692Y-74055858D01*
X56014834Y-73349678D01*
X56026794Y-73278398D01*
X56046615Y-73160267D01*
X56137515Y-72920655D01*
X56273415Y-72703381D01*
X56330700Y-72642538D01*
X56449090Y-72516794D01*
X56605352Y-72405437D01*
X56657792Y-72368066D01*
X56891499Y-72262911D01*
X56891503Y-72262910D01*
X57141229Y-72205370D01*
X57397384Y-72197656D01*
X57397388Y-72197656D01*
X57650129Y-72240063D01*
X57650129Y-72240063D01*
G37*
G36*
X76700129Y-72240063D02*
G01*
X76939741Y-72330963D01*
X77157015Y-72466863D01*
X77343602Y-72642538D01*
X77454959Y-72798800D01*
X77492330Y-72851240D01*
X77597485Y-73084947D01*
X77597486Y-73084951D01*
X77655026Y-73334678D01*
X77660808Y-73526644D01*
X77646552Y-73735751D01*
X77612666Y-74232821D01*
X77580885Y-74422233D01*
X77489985Y-74661845D01*
X77446567Y-74731260D01*
X77354085Y-74879119D01*
X77178410Y-75065706D01*
X77022148Y-75177063D01*
X76969708Y-75214434D01*
X76736001Y-75319589D01*
X76735997Y-75319590D01*
X76486271Y-75377130D01*
X76230116Y-75384844D01*
X76230112Y-75384844D01*
X75977371Y-75342437D01*
X75737759Y-75251537D01*
X75520485Y-75115637D01*
X75467453Y-75065706D01*
X75333898Y-74939962D01*
X75222541Y-74783700D01*
X75185170Y-74731260D01*
X75080015Y-74497553D01*
X75022474Y-74247821D01*
X75021698Y-74222054D01*
X75016692Y-74055858D01*
X75064834Y-73349678D01*
X75076794Y-73278398D01*
X75096615Y-73160267D01*
X75187515Y-72920655D01*
X75323415Y-72703381D01*
X75380700Y-72642538D01*
X75499090Y-72516794D01*
X75655352Y-72405437D01*
X75707792Y-72368066D01*
X75941499Y-72262911D01*
X75941503Y-72262910D01*
X76191229Y-72205370D01*
X76447384Y-72197656D01*
X76447388Y-72197656D01*
X76700129Y-72240063D01*
X76700129Y-72240063D01*
G37*
G36*
X70769750Y-65144750D02*
G01*
X69067750Y-65144750D01*
X69067750Y-63442750D01*
X70769750Y-63442750D01*
X70769750Y-65144750D01*
X70769750Y-65144750D01*
G37*
G36*
X97016978Y-63475453D02*
G01*
X97171850Y-63539603D01*
X97311231Y-63632735D01*
X97429765Y-63751269D01*
X97522897Y-63890650D01*
X97587047Y-64045522D01*
X97619750Y-64209934D01*
X97619750Y-64377566D01*
X97587047Y-64541978D01*
X97522897Y-64696850D01*
X97429765Y-64836231D01*
X97311231Y-64954765D01*
X97171850Y-65047897D01*
X97016978Y-65112047D01*
X96852566Y-65144750D01*
X96684934Y-65144750D01*
X96520522Y-65112047D01*
X96365650Y-65047897D01*
X96226269Y-64954765D01*
X96107735Y-64836231D01*
X96014603Y-64696850D01*
X95950453Y-64541978D01*
X95917750Y-64377566D01*
X95917750Y-64209934D01*
X95950453Y-64045522D01*
X96014603Y-63890650D01*
X96107735Y-63751269D01*
X96226269Y-63632735D01*
X96365650Y-63539603D01*
X96520522Y-63475453D01*
X96684934Y-63442750D01*
X96852566Y-63442750D01*
X97016978Y-63475453D01*
X97016978Y-63475453D01*
G37*
G36*
X39866978Y-63475453D02*
G01*
X40021850Y-63539603D01*
X40161231Y-63632735D01*
X40279765Y-63751269D01*
X40372897Y-63890650D01*
X40437047Y-64045522D01*
X40469750Y-64209934D01*
X40469750Y-64377566D01*
X40437047Y-64541978D01*
X40372897Y-64696850D01*
X40279765Y-64836231D01*
X40161231Y-64954765D01*
X40021850Y-65047897D01*
X39866978Y-65112047D01*
X39702566Y-65144750D01*
X39534934Y-65144750D01*
X39370522Y-65112047D01*
X39215650Y-65047897D01*
X39076269Y-64954765D01*
X38957735Y-64836231D01*
X38864603Y-64696850D01*
X38800453Y-64541978D01*
X38767750Y-64377566D01*
X38767750Y-64209934D01*
X38800453Y-64045522D01*
X38864603Y-63890650D01*
X38957735Y-63751269D01*
X39076269Y-63632735D01*
X39215650Y-63539603D01*
X39370522Y-63475453D01*
X39534934Y-63442750D01*
X39702566Y-63442750D01*
X39866978Y-63475453D01*
X39866978Y-63475453D01*
G37*
G36*
X32669750Y-65144750D02*
G01*
X30967750Y-65144750D01*
X30967750Y-63442750D01*
X32669750Y-63442750D01*
X32669750Y-65144750D01*
X32669750Y-65144750D01*
G37*
G36*
X58916978Y-63475453D02*
G01*
X59071850Y-63539603D01*
X59211231Y-63632735D01*
X59329765Y-63751269D01*
X59422897Y-63890650D01*
X59487047Y-64045522D01*
X59519750Y-64209934D01*
X59519750Y-64377566D01*
X59487047Y-64541978D01*
X59422897Y-64696850D01*
X59329765Y-64836231D01*
X59211231Y-64954765D01*
X59071850Y-65047897D01*
X58916978Y-65112047D01*
X58752566Y-65144750D01*
X58584934Y-65144750D01*
X58420522Y-65112047D01*
X58265650Y-65047897D01*
X58126269Y-64954765D01*
X58007735Y-64836231D01*
X57914603Y-64696850D01*
X57850453Y-64541978D01*
X57817750Y-64377566D01*
X57817750Y-64209934D01*
X57850453Y-64045522D01*
X57914603Y-63890650D01*
X58007735Y-63751269D01*
X58126269Y-63632735D01*
X58265650Y-63539603D01*
X58420522Y-63475453D01*
X58584934Y-63442750D01*
X58752566Y-63442750D01*
X58916978Y-63475453D01*
X58916978Y-63475453D01*
G37*
G36*
X51719750Y-65144750D02*
G01*
X50017750Y-65144750D01*
X50017750Y-63442750D01*
X51719750Y-63442750D01*
X51719750Y-65144750D01*
X51719750Y-65144750D01*
G37*
G36*
X77966978Y-63475453D02*
G01*
X78121850Y-63539603D01*
X78261231Y-63632735D01*
X78379765Y-63751269D01*
X78472897Y-63890650D01*
X78537047Y-64045522D01*
X78569750Y-64209934D01*
X78569750Y-64377566D01*
X78537047Y-64541978D01*
X78472897Y-64696850D01*
X78379765Y-64836231D01*
X78261231Y-64954765D01*
X78121850Y-65047897D01*
X77966978Y-65112047D01*
X77802566Y-65144750D01*
X77634934Y-65144750D01*
X77470522Y-65112047D01*
X77315650Y-65047897D01*
X77176269Y-64954765D01*
X77057735Y-64836231D01*
X76964603Y-64696850D01*
X76900453Y-64541978D01*
X76867750Y-64377566D01*
X76867750Y-64209934D01*
X76900453Y-64045522D01*
X76964603Y-63890650D01*
X77057735Y-63751269D01*
X77176269Y-63632735D01*
X77315650Y-63539603D01*
X77470522Y-63475453D01*
X77634934Y-63442750D01*
X77802566Y-63442750D01*
X77966978Y-63475453D01*
X77966978Y-63475453D01*
G37*
G36*
X89819750Y-65144750D02*
G01*
X88117750Y-65144750D01*
X88117750Y-63442750D01*
X89819750Y-63442750D01*
X89819750Y-65144750D01*
X89819750Y-65144750D01*
G37*
G36*
X90018325Y-54232536D02*
G01*
X90268836Y-54286583D01*
X90402107Y-54344324D01*
X90503989Y-54388465D01*
X90615438Y-54465564D01*
X90714746Y-54534264D01*
X90714748Y-54534266D01*
X90893012Y-54718380D01*
X91031930Y-54933733D01*
X91126169Y-55172054D01*
X91158769Y-55351003D01*
X91172101Y-55424178D01*
X91167963Y-55680419D01*
X91113916Y-55930930D01*
X91037563Y-56107161D01*
X90164596Y-57678799D01*
X90055329Y-57836747D01*
X90055327Y-57836749D01*
X89871213Y-58015013D01*
X89686703Y-58134035D01*
X89655858Y-58153932D01*
X89633296Y-58162853D01*
X89417539Y-58248170D01*
X89238590Y-58280770D01*
X89165415Y-58294102D01*
X88909175Y-58289964D01*
X88658664Y-58235917D01*
X88525393Y-58178176D01*
X88423511Y-58134035D01*
X88312062Y-58056936D01*
X88212754Y-57988236D01*
X88212752Y-57988234D01*
X88034488Y-57804120D01*
X87895570Y-57588767D01*
X87801331Y-57350446D01*
X87768731Y-57171497D01*
X87755399Y-57098322D01*
X87759537Y-56842082D01*
X87813584Y-56591571D01*
X87889937Y-56415340D01*
X88762904Y-54843701D01*
X88872171Y-54685753D01*
X88872173Y-54685751D01*
X89056287Y-54507487D01*
X89271639Y-54368568D01*
X89509960Y-54274330D01*
X89688909Y-54241730D01*
X89762084Y-54228398D01*
X90018325Y-54232536D01*
X90018325Y-54232536D01*
G37*
G36*
X70968325Y-54232536D02*
G01*
X71218836Y-54286583D01*
X71352107Y-54344324D01*
X71453989Y-54388465D01*
X71565438Y-54465564D01*
X71664746Y-54534264D01*
X71664748Y-54534266D01*
X71843012Y-54718380D01*
X71981930Y-54933733D01*
X72076169Y-55172054D01*
X72108769Y-55351003D01*
X72122101Y-55424178D01*
X72117963Y-55680419D01*
X72063916Y-55930930D01*
X71987563Y-56107161D01*
X71114596Y-57678799D01*
X71005329Y-57836747D01*
X71005327Y-57836749D01*
X70821213Y-58015013D01*
X70636703Y-58134035D01*
X70605858Y-58153932D01*
X70583296Y-58162853D01*
X70367539Y-58248170D01*
X70188590Y-58280770D01*
X70115415Y-58294102D01*
X69859175Y-58289964D01*
X69608664Y-58235917D01*
X69475393Y-58178176D01*
X69373511Y-58134035D01*
X69262062Y-58056936D01*
X69162754Y-57988236D01*
X69162752Y-57988234D01*
X68984488Y-57804120D01*
X68845570Y-57588767D01*
X68751331Y-57350446D01*
X68718731Y-57171497D01*
X68705399Y-57098322D01*
X68709537Y-56842082D01*
X68763584Y-56591571D01*
X68839937Y-56415340D01*
X69712904Y-54843701D01*
X69822171Y-54685753D01*
X69822173Y-54685751D01*
X70006287Y-54507487D01*
X70221639Y-54368568D01*
X70459960Y-54274330D01*
X70638909Y-54241730D01*
X70712084Y-54228398D01*
X70968325Y-54232536D01*
X70968325Y-54232536D01*
G37*
G36*
X51918325Y-54232536D02*
G01*
X52168836Y-54286583D01*
X52302107Y-54344324D01*
X52403989Y-54388465D01*
X52515438Y-54465564D01*
X52614746Y-54534264D01*
X52614748Y-54534266D01*
X52793012Y-54718380D01*
X52931930Y-54933733D01*
X53026169Y-55172054D01*
X53058769Y-55351003D01*
X53072101Y-55424178D01*
X53067963Y-55680419D01*
X53013916Y-55930930D01*
X52937563Y-56107161D01*
X52064596Y-57678799D01*
X51955329Y-57836747D01*
X51955327Y-57836749D01*
X51771213Y-58015013D01*
X51586703Y-58134035D01*
X51555858Y-58153932D01*
X51533296Y-58162853D01*
X51317539Y-58248170D01*
X51138590Y-58280770D01*
X51065415Y-58294102D01*
X50809175Y-58289964D01*
X50558664Y-58235917D01*
X50425393Y-58178176D01*
X50323511Y-58134035D01*
X50212062Y-58056936D01*
X50112754Y-57988236D01*
X50112752Y-57988234D01*
X49934488Y-57804120D01*
X49795570Y-57588767D01*
X49701331Y-57350446D01*
X49668731Y-57171497D01*
X49655399Y-57098322D01*
X49659537Y-56842082D01*
X49713584Y-56591571D01*
X49789937Y-56415340D01*
X50662904Y-54843701D01*
X50772171Y-54685753D01*
X50772173Y-54685751D01*
X50956287Y-54507487D01*
X51171639Y-54368568D01*
X51409960Y-54274330D01*
X51588909Y-54241730D01*
X51662084Y-54228398D01*
X51918325Y-54232536D01*
X51918325Y-54232536D01*
G37*
G36*
X32868325Y-54232536D02*
G01*
X33118836Y-54286583D01*
X33252107Y-54344324D01*
X33353989Y-54388465D01*
X33465438Y-54465564D01*
X33564746Y-54534264D01*
X33564748Y-54534266D01*
X33743012Y-54718380D01*
X33881930Y-54933733D01*
X33976169Y-55172054D01*
X34008769Y-55351003D01*
X34022101Y-55424178D01*
X34017963Y-55680419D01*
X33963916Y-55930930D01*
X33887563Y-56107161D01*
X33014596Y-57678799D01*
X32905329Y-57836747D01*
X32905327Y-57836749D01*
X32721213Y-58015013D01*
X32536703Y-58134035D01*
X32505858Y-58153932D01*
X32483296Y-58162853D01*
X32267539Y-58248170D01*
X32088590Y-58280770D01*
X32015415Y-58294102D01*
X31759175Y-58289964D01*
X31508664Y-58235917D01*
X31375393Y-58178176D01*
X31273511Y-58134035D01*
X31162062Y-58056936D01*
X31062754Y-57988236D01*
X31062752Y-57988234D01*
X30884488Y-57804120D01*
X30745570Y-57588767D01*
X30651331Y-57350446D01*
X30618731Y-57171497D01*
X30605399Y-57098322D01*
X30609537Y-56842082D01*
X30663584Y-56591571D01*
X30739937Y-56415340D01*
X31612904Y-54843701D01*
X31722171Y-54685753D01*
X31722173Y-54685751D01*
X31906287Y-54507487D01*
X32121639Y-54368568D01*
X32359960Y-54274330D01*
X32538909Y-54241730D01*
X32612084Y-54228398D01*
X32868325Y-54232536D01*
X32868325Y-54232536D01*
G37*
G36*
X38600129Y-53190063D02*
G01*
X38839741Y-53280963D01*
X39057015Y-53416863D01*
X39243602Y-53592538D01*
X39354959Y-53748800D01*
X39392330Y-53801240D01*
X39497485Y-54034947D01*
X39497486Y-54034951D01*
X39555026Y-54284678D01*
X39560808Y-54476644D01*
X39546552Y-54685751D01*
X39512666Y-55182821D01*
X39480885Y-55372233D01*
X39389985Y-55611845D01*
X39346567Y-55681260D01*
X39254085Y-55829119D01*
X39078410Y-56015706D01*
X38922148Y-56127063D01*
X38869708Y-56164434D01*
X38636001Y-56269589D01*
X38635997Y-56269590D01*
X38386271Y-56327130D01*
X38130116Y-56334844D01*
X38130112Y-56334844D01*
X37877371Y-56292437D01*
X37637759Y-56201537D01*
X37420485Y-56065637D01*
X37367453Y-56015706D01*
X37233898Y-55889962D01*
X37122541Y-55733700D01*
X37085170Y-55681260D01*
X36980015Y-55447553D01*
X36922474Y-55197821D01*
X36921698Y-55172054D01*
X36916692Y-55005858D01*
X36964834Y-54299678D01*
X36976794Y-54228398D01*
X36996615Y-54110267D01*
X37087515Y-53870655D01*
X37223415Y-53653381D01*
X37280700Y-53592538D01*
X37399090Y-53466794D01*
X37555352Y-53355437D01*
X37607792Y-53318066D01*
X37841499Y-53212911D01*
X37841503Y-53212910D01*
X38091229Y-53155370D01*
X38347384Y-53147656D01*
X38347388Y-53147656D01*
X38600129Y-53190063D01*
X38600129Y-53190063D01*
G37*
G36*
X57650129Y-53190063D02*
G01*
X57889741Y-53280963D01*
X58107015Y-53416863D01*
X58293602Y-53592538D01*
X58404959Y-53748800D01*
X58442330Y-53801240D01*
X58547485Y-54034947D01*
X58547486Y-54034951D01*
X58605026Y-54284678D01*
X58610808Y-54476644D01*
X58596552Y-54685751D01*
X58562666Y-55182821D01*
X58530885Y-55372233D01*
X58439985Y-55611845D01*
X58396567Y-55681260D01*
X58304085Y-55829119D01*
X58128410Y-56015706D01*
X57972148Y-56127063D01*
X57919708Y-56164434D01*
X57686001Y-56269589D01*
X57685997Y-56269590D01*
X57436271Y-56327130D01*
X57180116Y-56334844D01*
X57180112Y-56334844D01*
X56927371Y-56292437D01*
X56687759Y-56201537D01*
X56470485Y-56065637D01*
X56417453Y-56015706D01*
X56283898Y-55889962D01*
X56172541Y-55733700D01*
X56135170Y-55681260D01*
X56030015Y-55447553D01*
X55972474Y-55197821D01*
X55971698Y-55172054D01*
X55966692Y-55005858D01*
X56014834Y-54299678D01*
X56026794Y-54228398D01*
X56046615Y-54110267D01*
X56137515Y-53870655D01*
X56273415Y-53653381D01*
X56330700Y-53592538D01*
X56449090Y-53466794D01*
X56605352Y-53355437D01*
X56657792Y-53318066D01*
X56891499Y-53212911D01*
X56891503Y-53212910D01*
X57141229Y-53155370D01*
X57397384Y-53147656D01*
X57397388Y-53147656D01*
X57650129Y-53190063D01*
X57650129Y-53190063D01*
G37*
G36*
X76700129Y-53190063D02*
G01*
X76939741Y-53280963D01*
X77157015Y-53416863D01*
X77343602Y-53592538D01*
X77454959Y-53748800D01*
X77492330Y-53801240D01*
X77597485Y-54034947D01*
X77597486Y-54034951D01*
X77655026Y-54284678D01*
X77660808Y-54476644D01*
X77646552Y-54685751D01*
X77612666Y-55182821D01*
X77580885Y-55372233D01*
X77489985Y-55611845D01*
X77446567Y-55681260D01*
X77354085Y-55829119D01*
X77178410Y-56015706D01*
X77022148Y-56127063D01*
X76969708Y-56164434D01*
X76736001Y-56269589D01*
X76735997Y-56269590D01*
X76486271Y-56327130D01*
X76230116Y-56334844D01*
X76230112Y-56334844D01*
X75977371Y-56292437D01*
X75737759Y-56201537D01*
X75520485Y-56065637D01*
X75467453Y-56015706D01*
X75333898Y-55889962D01*
X75222541Y-55733700D01*
X75185170Y-55681260D01*
X75080015Y-55447553D01*
X75022474Y-55197821D01*
X75021698Y-55172054D01*
X75016692Y-55005858D01*
X75064834Y-54299678D01*
X75076794Y-54228398D01*
X75096615Y-54110267D01*
X75187515Y-53870655D01*
X75323415Y-53653381D01*
X75380700Y-53592538D01*
X75499090Y-53466794D01*
X75655352Y-53355437D01*
X75707792Y-53318066D01*
X75941499Y-53212911D01*
X75941503Y-53212910D01*
X76191229Y-53155370D01*
X76447384Y-53147656D01*
X76447388Y-53147656D01*
X76700129Y-53190063D01*
X76700129Y-53190063D01*
G37*
G36*
X95750129Y-53190063D02*
G01*
X95989741Y-53280963D01*
X96207015Y-53416863D01*
X96393602Y-53592538D01*
X96504959Y-53748800D01*
X96542330Y-53801240D01*
X96647485Y-54034947D01*
X96647486Y-54034951D01*
X96705026Y-54284678D01*
X96710808Y-54476644D01*
X96696552Y-54685751D01*
X96662666Y-55182821D01*
X96630885Y-55372233D01*
X96539985Y-55611845D01*
X96496567Y-55681260D01*
X96404085Y-55829119D01*
X96228410Y-56015706D01*
X96072148Y-56127063D01*
X96019708Y-56164434D01*
X95786001Y-56269589D01*
X95785997Y-56269590D01*
X95536271Y-56327130D01*
X95280116Y-56334844D01*
X95280112Y-56334844D01*
X95027371Y-56292437D01*
X94787759Y-56201537D01*
X94570485Y-56065637D01*
X94517453Y-56015706D01*
X94383898Y-55889962D01*
X94272541Y-55733700D01*
X94235170Y-55681260D01*
X94130015Y-55447553D01*
X94072474Y-55197821D01*
X94071698Y-55172054D01*
X94066692Y-55005858D01*
X94114834Y-54299678D01*
X94126794Y-54228398D01*
X94146615Y-54110267D01*
X94237515Y-53870655D01*
X94373415Y-53653381D01*
X94430700Y-53592538D01*
X94549090Y-53466794D01*
X94705352Y-53355437D01*
X94757792Y-53318066D01*
X94991499Y-53212911D01*
X94991503Y-53212910D01*
X95241229Y-53155370D01*
X95497384Y-53147656D01*
X95497388Y-53147656D01*
X95750129Y-53190063D01*
X95750129Y-53190063D01*
G37*
G36*
X60800772Y-50329340D02*
G01*
X60888526Y-50355960D01*
X60951762Y-50375142D01*
X61090914Y-50449521D01*
X61212883Y-50549617D01*
X61312979Y-50671585D01*
X61387358Y-50810737D01*
X61402625Y-50861068D01*
X61433160Y-50961727D01*
X61444750Y-51079405D01*
X61444750Y-53658095D01*
X61433160Y-53775773D01*
X61404378Y-53870654D01*
X61387358Y-53926763D01*
X61312979Y-54065915D01*
X61212883Y-54187883D01*
X61090915Y-54287979D01*
X60951763Y-54362358D01*
X60901432Y-54377625D01*
X60800773Y-54408160D01*
X60643750Y-54423625D01*
X60486728Y-54408160D01*
X60386069Y-54377625D01*
X60335738Y-54362358D01*
X60196586Y-54287979D01*
X60074618Y-54187883D01*
X59974522Y-54065915D01*
X59900143Y-53926763D01*
X59883123Y-53870654D01*
X59854341Y-53775773D01*
X59842751Y-53658095D01*
X59842750Y-51079406D01*
X59854340Y-50961728D01*
X59900142Y-50810739D01*
X59900142Y-50810738D01*
X59974521Y-50671586D01*
X59974522Y-50671585D01*
X60074617Y-50549617D01*
X60196585Y-50449521D01*
X60335737Y-50375142D01*
X60398973Y-50355960D01*
X60486727Y-50329340D01*
X60643750Y-50313875D01*
X60800772Y-50329340D01*
X60800772Y-50329340D01*
G37*
G36*
X68100772Y-50329340D02*
G01*
X68188526Y-50355960D01*
X68251762Y-50375142D01*
X68390914Y-50449521D01*
X68512883Y-50549617D01*
X68612979Y-50671585D01*
X68687358Y-50810737D01*
X68702625Y-50861068D01*
X68733160Y-50961727D01*
X68744750Y-51079405D01*
X68744750Y-53658095D01*
X68733160Y-53775773D01*
X68704378Y-53870654D01*
X68687358Y-53926763D01*
X68612979Y-54065915D01*
X68512883Y-54187883D01*
X68390915Y-54287979D01*
X68251763Y-54362358D01*
X68201432Y-54377625D01*
X68100773Y-54408160D01*
X67943750Y-54423625D01*
X67786728Y-54408160D01*
X67686069Y-54377625D01*
X67635738Y-54362358D01*
X67496586Y-54287979D01*
X67374618Y-54187883D01*
X67274522Y-54065915D01*
X67200143Y-53926763D01*
X67183123Y-53870654D01*
X67154341Y-53775773D01*
X67142751Y-53658095D01*
X67142750Y-51079406D01*
X67154340Y-50961728D01*
X67200142Y-50810739D01*
X67200142Y-50810738D01*
X67274521Y-50671586D01*
X67274522Y-50671585D01*
X67374617Y-50549617D01*
X67496585Y-50449521D01*
X67635737Y-50375142D01*
X67698973Y-50355960D01*
X67786727Y-50329340D01*
X67943750Y-50313875D01*
X68100772Y-50329340D01*
X68100772Y-50329340D01*
G37*
G36*
X28224549Y-50121116D02*
G01*
X28335734Y-50143232D01*
X28545203Y-50229997D01*
X28733720Y-50355960D01*
X28894040Y-50516280D01*
X29020003Y-50704797D01*
X29106768Y-50914266D01*
X29151000Y-51136636D01*
X29151000Y-51363364D01*
X29106768Y-51585734D01*
X29020003Y-51795203D01*
X28894040Y-51983720D01*
X28733720Y-52144040D01*
X28545203Y-52270003D01*
X28335734Y-52356768D01*
X28224549Y-52378884D01*
X28113365Y-52401000D01*
X27886635Y-52401000D01*
X27775451Y-52378884D01*
X27664266Y-52356768D01*
X27454797Y-52270003D01*
X27266280Y-52144040D01*
X27105960Y-51983720D01*
X26979997Y-51795203D01*
X26893232Y-51585734D01*
X26849000Y-51363364D01*
X26849000Y-51136636D01*
X26893232Y-50914266D01*
X26979997Y-50704797D01*
X27105960Y-50516280D01*
X27266280Y-50355960D01*
X27454797Y-50229997D01*
X27664266Y-50143232D01*
X27775451Y-50121116D01*
X27886635Y-50099000D01*
X28113365Y-50099000D01*
X28224549Y-50121116D01*
X28224549Y-50121116D01*
G37*
G36*
X123974549Y-50121116D02*
G01*
X124085734Y-50143232D01*
X124295203Y-50229997D01*
X124483720Y-50355960D01*
X124644040Y-50516280D01*
X124770003Y-50704797D01*
X124856768Y-50914266D01*
X124901000Y-51136636D01*
X124901000Y-51363364D01*
X124856768Y-51585734D01*
X124770003Y-51795203D01*
X124644040Y-51983720D01*
X124483720Y-52144040D01*
X124295203Y-52270003D01*
X124085734Y-52356768D01*
X123974549Y-52378884D01*
X123863365Y-52401000D01*
X123636635Y-52401000D01*
X123525451Y-52378884D01*
X123414266Y-52356768D01*
X123204797Y-52270003D01*
X123016280Y-52144040D01*
X122855960Y-51983720D01*
X122729997Y-51795203D01*
X122643232Y-51585734D01*
X122599000Y-51363364D01*
X122599000Y-51136636D01*
X122643232Y-50914266D01*
X122729997Y-50704797D01*
X122855960Y-50516280D01*
X123016280Y-50355960D01*
X123204797Y-50229997D01*
X123414266Y-50143232D01*
X123525451Y-50121116D01*
X123636635Y-50099000D01*
X123863365Y-50099000D01*
X123974549Y-50121116D01*
X123974549Y-50121116D01*
G37*
M02*
