G04 #@! TF.GenerationSoftware,KiCad,Pcbnew,(5.1.0-0)*
G04 #@! TF.CreationDate,2019-03-20T16:53:29-04:00*
G04 #@! TF.ProjectId,keeb2x4,6b656562-3278-4342-9e6b-696361645f70,rev?*
G04 #@! TF.SameCoordinates,Original*
G04 #@! TF.FileFunction,Copper,L1,Top*
G04 #@! TF.FilePolarity,Positive*
%FSLAX46Y46*%
G04 Gerber Fmt 4.6, Leading zero omitted, Abs format (unit mm)*
G04 Created by KiCad (PCBNEW (5.1.0-0)) date 2019-03-20 16:53:29*
%MOMM*%
%LPD*%
G04 APERTURE LIST*
%ADD10C,1.600000*%
%ADD11R,1.600000X1.600000*%
%ADD12O,1.500000X4.000000*%
%ADD13C,2.500000*%
%ADD14C,2.500000*%
%ADD15C,0.800000*%
%ADD16C,0.250000*%
%ADD17C,0.254000*%
G04 APERTURE END LIST*
D10*
X39618750Y-64293750D03*
D11*
X31818750Y-64293750D03*
X31818750Y-83343750D03*
D10*
X39618750Y-83343750D03*
X58668750Y-64293750D03*
D11*
X50868750Y-64293750D03*
X50868750Y-83343750D03*
D10*
X58668750Y-83343750D03*
X77718750Y-64293750D03*
D11*
X69918750Y-64293750D03*
X69918750Y-83343750D03*
D10*
X77718750Y-83343750D03*
X96768750Y-64293750D03*
D11*
X88968750Y-64293750D03*
X88968750Y-83343750D03*
D10*
X96768750Y-83343750D03*
D12*
X60643750Y-52368750D03*
X67943750Y-52368750D03*
D13*
X32313750Y-56261250D03*
D14*
X32719203Y-55531296D02*
X31908297Y-56991204D01*
D13*
X38238750Y-54741250D03*
D14*
X38258474Y-54451922D02*
X38219026Y-55030578D01*
D13*
X38238750Y-73791250D03*
D14*
X38258474Y-73501922D02*
X38219026Y-74080578D01*
D13*
X32313750Y-75311250D03*
D14*
X32719203Y-74581296D02*
X31908297Y-76041204D01*
D13*
X51363750Y-56261250D03*
D14*
X51769203Y-55531296D02*
X50958297Y-56991204D01*
D13*
X57288750Y-54741250D03*
D14*
X57308474Y-54451922D02*
X57269026Y-55030578D01*
D13*
X57288750Y-73791250D03*
D14*
X57308474Y-73501922D02*
X57269026Y-74080578D01*
D13*
X51363750Y-75311250D03*
D14*
X51769203Y-74581296D02*
X50958297Y-76041204D01*
D13*
X70413750Y-56261250D03*
D14*
X70819203Y-55531296D02*
X70008297Y-56991204D01*
D13*
X76338750Y-54741250D03*
D14*
X76358474Y-54451922D02*
X76319026Y-55030578D01*
D13*
X76338750Y-73791250D03*
D14*
X76358474Y-73501922D02*
X76319026Y-74080578D01*
D13*
X70413750Y-75311250D03*
D14*
X70819203Y-74581296D02*
X70008297Y-76041204D01*
D13*
X95388750Y-54741250D03*
D14*
X95408474Y-54451922D02*
X95369026Y-55030578D01*
D13*
X89463750Y-56261250D03*
D14*
X89869203Y-55531296D02*
X89058297Y-56991204D01*
D13*
X89463750Y-75311250D03*
D14*
X89869203Y-74581296D02*
X89058297Y-76041204D01*
D13*
X95388750Y-73791250D03*
D14*
X95408474Y-73501922D02*
X95369026Y-74080578D01*
D15*
X105225000Y-55000000D03*
X108250000Y-55000000D03*
X122000000Y-67000000D03*
X121659222Y-64409222D03*
X111065778Y-71815778D03*
X110250000Y-70250000D03*
X108500000Y-76000000D03*
X63112347Y-65387653D03*
X67750000Y-65500000D03*
X109207108Y-76725000D03*
X101500000Y-55000000D03*
X108500000Y-53000000D03*
X114287959Y-82787959D03*
X115150306Y-80900306D03*
X115887653Y-79137653D03*
X116750000Y-77250000D03*
X117500000Y-78000000D03*
X111250000Y-65000000D03*
X106250000Y-57250000D03*
X106250000Y-57250000D03*
X106270462Y-70465192D03*
X107000000Y-56250000D03*
X107000000Y-69781250D03*
D16*
X105225000Y-55000000D02*
X108250000Y-55000000D01*
X122000000Y-67000000D02*
X122000000Y-64750000D01*
X122000000Y-64750000D02*
X121659222Y-64409222D01*
X111065778Y-71065778D02*
X110250000Y-70250000D01*
X111065778Y-71815778D02*
X111065778Y-71065778D01*
X39618750Y-56121250D02*
X38238750Y-54741250D01*
X39618750Y-64293750D02*
X39618750Y-56121250D01*
X90018750Y-64293750D02*
X101725000Y-76000000D01*
X88968750Y-64293750D02*
X90018750Y-64293750D01*
X101725000Y-76000000D02*
X108500000Y-76000000D01*
X67637653Y-65387653D02*
X67750000Y-65500000D01*
X63112347Y-65387653D02*
X67637653Y-65387653D01*
X39618750Y-75171250D02*
X38238750Y-73791250D01*
X39618750Y-83343750D02*
X39618750Y-75171250D01*
X88968750Y-84393750D02*
X89325000Y-84750000D01*
X88968750Y-83343750D02*
X88968750Y-84393750D01*
X105052502Y-76725000D02*
X109207108Y-76725000D01*
X97027502Y-84750000D02*
X105052502Y-76725000D01*
X89325000Y-84750000D02*
X97027502Y-84750000D01*
X58668750Y-56121250D02*
X57288750Y-54741250D01*
X58668750Y-64293750D02*
X58668750Y-56121250D01*
X58668750Y-75171250D02*
X57288750Y-73791250D01*
X58668750Y-83343750D02*
X58668750Y-75171250D01*
X77718750Y-56121250D02*
X76338750Y-54741250D01*
X77718750Y-64293750D02*
X77718750Y-56121250D01*
X77718750Y-75171250D02*
X76338750Y-73791250D01*
X77718750Y-83343750D02*
X77718750Y-75171250D01*
X96768750Y-56121250D02*
X95388750Y-54741250D01*
X96768750Y-64293750D02*
X96768750Y-56121250D01*
X96768750Y-75171250D02*
X95388750Y-73791250D01*
X96768750Y-83343750D02*
X96768750Y-75171250D01*
X101500000Y-55000000D02*
X103500000Y-53000000D01*
X103500000Y-53000000D02*
X108500000Y-53000000D01*
X32313750Y-58270428D02*
X32313750Y-56261250D01*
X32313750Y-59596584D02*
X32313750Y-58270428D01*
X30693749Y-61216585D02*
X32313750Y-59596584D01*
X30693749Y-71682071D02*
X30693749Y-61216585D01*
X32313750Y-73302072D02*
X30693749Y-71682071D01*
X32313750Y-75311250D02*
X32313750Y-73302072D01*
X30693749Y-84403751D02*
X32840038Y-86550040D01*
X30693749Y-82283749D02*
X30693749Y-84403751D01*
X33303734Y-79673764D02*
X30693749Y-82283749D01*
X33303734Y-76301234D02*
X33303734Y-79673764D01*
X32313750Y-75311250D02*
X33303734Y-76301234D01*
X110525878Y-86550040D02*
X114287959Y-82787959D01*
X32840038Y-86550040D02*
X110525878Y-86550040D01*
X51363750Y-58270428D02*
X51363750Y-56261250D01*
X51363750Y-59596584D02*
X51363750Y-58270428D01*
X49743749Y-61216585D02*
X51363750Y-59596584D01*
X49743749Y-71682071D02*
X49743749Y-61216585D01*
X51363750Y-73302072D02*
X49743749Y-71682071D01*
X51363750Y-75311250D02*
X51363750Y-73302072D01*
X49743749Y-84403751D02*
X51440028Y-86100030D01*
X49743749Y-82283749D02*
X49743749Y-84403751D01*
X51363750Y-80663748D02*
X49743749Y-82283749D01*
X51363750Y-75311250D02*
X51363750Y-80663748D01*
X109950582Y-86100030D02*
X115150306Y-80900306D01*
X51440028Y-86100030D02*
X109950582Y-86100030D01*
X70413750Y-59596584D02*
X70413750Y-58270428D01*
X68793749Y-61216585D02*
X70413750Y-59596584D01*
X70413750Y-58270428D02*
X70413750Y-56261250D01*
X68793749Y-73691249D02*
X68793749Y-61216585D01*
X70413750Y-75311250D02*
X68793749Y-73691249D01*
X68793749Y-84403751D02*
X70040018Y-85650020D01*
X68793749Y-82283749D02*
X68793749Y-84403751D01*
X70413750Y-80663748D02*
X68793749Y-82283749D01*
X70413750Y-75311250D02*
X70413750Y-80663748D01*
X109375286Y-85650020D02*
X115887653Y-79137653D01*
X70040018Y-85650020D02*
X109375286Y-85650020D01*
X89463750Y-58270428D02*
X89463750Y-56261250D01*
X89463750Y-59596584D02*
X89463750Y-58270428D01*
X87750000Y-61310334D02*
X89463750Y-59596584D01*
X87750000Y-73597500D02*
X87750000Y-61310334D01*
X89463750Y-75311250D02*
X87750000Y-73597500D01*
X108799990Y-85200010D02*
X116750000Y-77250000D01*
X87843749Y-84403751D02*
X88640008Y-85200010D01*
X87843749Y-82283749D02*
X87843749Y-84403751D01*
X88640008Y-85200010D02*
X108799990Y-85200010D01*
X89463750Y-80663748D02*
X87843749Y-82283749D01*
X89463750Y-75311250D02*
X89463750Y-80663748D01*
X117500000Y-78000000D02*
X117500000Y-71250000D01*
X117500000Y-71250000D02*
X111250000Y-65000000D01*
X106250000Y-57250000D02*
X106250000Y-62250000D01*
X106250000Y-62250000D02*
X106250000Y-65250000D01*
X106250000Y-65250000D02*
X106250000Y-69500000D01*
X106250000Y-70444730D02*
X106270462Y-70465192D01*
X106250000Y-69500000D02*
X106250000Y-70444730D01*
X107000000Y-69750000D02*
X107000000Y-69781250D01*
X107000000Y-56250000D02*
X107000000Y-69750000D01*
D17*
G36*
X123243919Y-49581675D02*
G01*
X122928169Y-49712463D01*
X122644002Y-49902337D01*
X122402337Y-50144002D01*
X122212463Y-50428169D01*
X122081675Y-50743919D01*
X122015000Y-51079117D01*
X122015000Y-51420883D01*
X122081675Y-51756081D01*
X122212463Y-52071831D01*
X122402337Y-52355998D01*
X122644002Y-52597663D01*
X122928169Y-52787537D01*
X123243919Y-52918325D01*
X123579117Y-52985000D01*
X123920883Y-52985000D01*
X124256081Y-52918325D01*
X124571831Y-52787537D01*
X124855998Y-52597663D01*
X125097663Y-52355998D01*
X125287537Y-52071831D01*
X125418325Y-51756081D01*
X125484043Y-51425694D01*
X125484043Y-86074306D01*
X125418325Y-85743919D01*
X125287537Y-85428169D01*
X125097663Y-85144002D01*
X124855998Y-84902337D01*
X124571831Y-84712463D01*
X124256081Y-84581675D01*
X123920883Y-84515000D01*
X123579117Y-84515000D01*
X123243919Y-84581675D01*
X122928169Y-84712463D01*
X122644002Y-84902337D01*
X122402337Y-85144002D01*
X122212463Y-85428169D01*
X122081675Y-85743919D01*
X122015000Y-86079117D01*
X122015000Y-86420883D01*
X122081675Y-86756081D01*
X122212463Y-87071831D01*
X122402337Y-87355998D01*
X122644002Y-87597663D01*
X122928169Y-87787537D01*
X123243919Y-87918325D01*
X123550582Y-87979324D01*
X28199418Y-87979324D01*
X28506081Y-87918325D01*
X28821831Y-87787537D01*
X29105998Y-87597663D01*
X29347663Y-87355998D01*
X29537537Y-87071831D01*
X29668325Y-86756081D01*
X29735000Y-86420883D01*
X29735000Y-86079117D01*
X29668325Y-85743919D01*
X29537537Y-85428169D01*
X29347663Y-85144002D01*
X29105998Y-84902337D01*
X28821831Y-84712463D01*
X28506081Y-84581675D01*
X28170883Y-84515000D01*
X27829117Y-84515000D01*
X27493919Y-84581675D01*
X27178169Y-84712463D01*
X26894002Y-84902337D01*
X26652337Y-85144002D01*
X26462463Y-85428169D01*
X26331675Y-85743919D01*
X26320772Y-85798732D01*
X26320772Y-59384902D01*
X29152850Y-59384902D01*
X29152850Y-59677598D01*
X29209952Y-59964671D01*
X29321962Y-60235088D01*
X29484576Y-60478456D01*
X29691544Y-60685424D01*
X29934912Y-60848038D01*
X30011934Y-60879941D01*
X29988203Y-60924339D01*
X29944747Y-61067600D01*
X29930073Y-61216585D01*
X29933750Y-61253917D01*
X29933749Y-71644749D01*
X29930073Y-71682071D01*
X29933749Y-71719393D01*
X29933749Y-71719403D01*
X29944746Y-71831056D01*
X29961102Y-71884974D01*
X29988203Y-71974317D01*
X30058775Y-72106347D01*
X30098620Y-72154897D01*
X30153748Y-72222072D01*
X30182751Y-72245874D01*
X31283996Y-73347120D01*
X31274618Y-73356200D01*
X31116306Y-73585044D01*
X30215475Y-75206848D01*
X30104850Y-75462181D01*
X30026541Y-75825142D01*
X30020547Y-76196406D01*
X30087098Y-76561705D01*
X30223636Y-76907002D01*
X30361882Y-77121312D01*
X30205329Y-77152452D01*
X29934912Y-77264462D01*
X29691544Y-77427076D01*
X29484576Y-77634044D01*
X29321962Y-77877412D01*
X29209952Y-78147829D01*
X29152850Y-78434902D01*
X29152850Y-78727598D01*
X29209952Y-79014671D01*
X29321962Y-79285088D01*
X29484576Y-79528456D01*
X29691544Y-79735424D01*
X29934912Y-79898038D01*
X30205329Y-80010048D01*
X30492402Y-80067150D01*
X30785098Y-80067150D01*
X31072171Y-80010048D01*
X31342588Y-79898038D01*
X31585956Y-79735424D01*
X31792924Y-79528456D01*
X31955538Y-79285088D01*
X32067548Y-79014671D01*
X32124650Y-78727598D01*
X32124650Y-78434902D01*
X32067548Y-78147829D01*
X31976304Y-77927546D01*
X32063499Y-77928954D01*
X32428798Y-77862403D01*
X32543734Y-77816955D01*
X32543735Y-79358961D01*
X30182752Y-81719945D01*
X30153748Y-81743748D01*
X30098620Y-81810923D01*
X30058775Y-81859473D01*
X30002959Y-81963897D01*
X29988203Y-81991503D01*
X29944746Y-82134764D01*
X29933749Y-82246417D01*
X29933749Y-82246427D01*
X29930073Y-82283749D01*
X29933749Y-82321072D01*
X29933750Y-84366419D01*
X29930073Y-84403751D01*
X29944747Y-84552736D01*
X29988203Y-84695997D01*
X30058775Y-84828027D01*
X30124214Y-84907764D01*
X30153749Y-84943752D01*
X30182747Y-84967550D01*
X32276239Y-87061043D01*
X32300037Y-87090041D01*
X32329035Y-87113839D01*
X32415761Y-87185014D01*
X32502290Y-87231265D01*
X32547791Y-87255586D01*
X32691052Y-87299043D01*
X32802705Y-87310040D01*
X32802715Y-87310040D01*
X32840037Y-87313716D01*
X32877360Y-87310040D01*
X110488556Y-87310040D01*
X110525878Y-87313716D01*
X110563200Y-87310040D01*
X110563211Y-87310040D01*
X110674864Y-87299043D01*
X110818125Y-87255586D01*
X110950154Y-87185014D01*
X111065879Y-87090041D01*
X111089682Y-87061037D01*
X114327761Y-83822959D01*
X114389898Y-83822959D01*
X114589857Y-83783185D01*
X114778215Y-83705164D01*
X114947733Y-83591896D01*
X115091896Y-83447733D01*
X115205164Y-83278215D01*
X115283185Y-83089857D01*
X115322959Y-82889898D01*
X115322959Y-82686020D01*
X115283185Y-82486061D01*
X115205164Y-82297703D01*
X115091896Y-82128185D01*
X115044562Y-82080851D01*
X115190108Y-81935306D01*
X115252245Y-81935306D01*
X115452204Y-81895532D01*
X115640562Y-81817511D01*
X115810080Y-81704243D01*
X115954243Y-81560080D01*
X116067511Y-81390562D01*
X116145532Y-81202204D01*
X116185306Y-81002245D01*
X116185306Y-80798367D01*
X116145532Y-80598408D01*
X116067511Y-80410050D01*
X115954243Y-80240532D01*
X115906909Y-80193198D01*
X115927455Y-80172653D01*
X115989592Y-80172653D01*
X116189551Y-80132879D01*
X116377909Y-80054858D01*
X116547427Y-79941590D01*
X116691590Y-79797427D01*
X116804858Y-79627909D01*
X116882879Y-79439551D01*
X116922653Y-79239592D01*
X116922653Y-79035714D01*
X116882879Y-78835755D01*
X116880979Y-78831167D01*
X117009744Y-78917205D01*
X117198102Y-78995226D01*
X117398061Y-79035000D01*
X117601939Y-79035000D01*
X117801898Y-78995226D01*
X117990256Y-78917205D01*
X118159774Y-78803937D01*
X118303937Y-78659774D01*
X118417205Y-78490256D01*
X118495226Y-78301898D01*
X118535000Y-78101939D01*
X118535000Y-77898061D01*
X118495226Y-77698102D01*
X118417205Y-77509744D01*
X118303937Y-77340226D01*
X118260000Y-77296289D01*
X118260000Y-71287325D01*
X118263676Y-71250000D01*
X118260000Y-71212675D01*
X118260000Y-71212667D01*
X118249003Y-71101014D01*
X118205546Y-70957753D01*
X118134974Y-70825724D01*
X118040001Y-70709999D01*
X118011003Y-70686201D01*
X112285000Y-64960199D01*
X112285000Y-64898061D01*
X112245226Y-64698102D01*
X112167205Y-64509744D01*
X112053937Y-64340226D01*
X111909774Y-64196063D01*
X111740256Y-64082795D01*
X111551898Y-64004774D01*
X111351939Y-63965000D01*
X111148061Y-63965000D01*
X110948102Y-64004774D01*
X110759744Y-64082795D01*
X110590226Y-64196063D01*
X110446063Y-64340226D01*
X110332795Y-64509744D01*
X110254774Y-64698102D01*
X110215000Y-64898061D01*
X110215000Y-65101939D01*
X110254774Y-65301898D01*
X110332795Y-65490256D01*
X110446063Y-65659774D01*
X110590226Y-65803937D01*
X110759744Y-65917205D01*
X110948102Y-65995226D01*
X111148061Y-66035000D01*
X111210199Y-66035000D01*
X116740001Y-71564803D01*
X116740000Y-76215000D01*
X116648061Y-76215000D01*
X116448102Y-76254774D01*
X116259744Y-76332795D01*
X116090226Y-76446063D01*
X115946063Y-76590226D01*
X115832795Y-76759744D01*
X115754774Y-76948102D01*
X115715000Y-77148061D01*
X115715000Y-77210198D01*
X108485189Y-84440010D01*
X98412293Y-84440010D01*
X105367304Y-77485000D01*
X108503397Y-77485000D01*
X108547334Y-77528937D01*
X108716852Y-77642205D01*
X108905210Y-77720226D01*
X109105169Y-77760000D01*
X109309047Y-77760000D01*
X109509006Y-77720226D01*
X109697364Y-77642205D01*
X109866882Y-77528937D01*
X110011045Y-77384774D01*
X110124313Y-77215256D01*
X110202334Y-77026898D01*
X110242108Y-76826939D01*
X110242108Y-76623061D01*
X110202334Y-76423102D01*
X110124313Y-76234744D01*
X110011045Y-76065226D01*
X109866882Y-75921063D01*
X109697364Y-75807795D01*
X109509006Y-75729774D01*
X109501218Y-75728225D01*
X109495226Y-75698102D01*
X109417205Y-75509744D01*
X109303937Y-75340226D01*
X109159774Y-75196063D01*
X108990256Y-75082795D01*
X108801898Y-75004774D01*
X108601939Y-74965000D01*
X108398061Y-74965000D01*
X108198102Y-75004774D01*
X108009744Y-75082795D01*
X107840226Y-75196063D01*
X107796289Y-75240000D01*
X102039802Y-75240000D01*
X90582554Y-63782753D01*
X90558751Y-63753749D01*
X90443026Y-63658776D01*
X90406822Y-63639424D01*
X90406822Y-63493750D01*
X90394562Y-63369268D01*
X90358252Y-63249570D01*
X90299287Y-63139256D01*
X90219935Y-63042565D01*
X90123244Y-62963213D01*
X90012930Y-62904248D01*
X89893232Y-62867938D01*
X89768750Y-62855678D01*
X88510000Y-62855678D01*
X88510000Y-61625135D01*
X89974759Y-60160378D01*
X90003751Y-60136585D01*
X90027545Y-60107592D01*
X90027549Y-60107588D01*
X90098723Y-60020861D01*
X90098724Y-60020860D01*
X90169296Y-59888831D01*
X90212753Y-59745570D01*
X90223750Y-59633917D01*
X90223750Y-59633908D01*
X90227426Y-59596585D01*
X90223750Y-59559262D01*
X90223750Y-59272326D01*
X90239850Y-59272326D01*
X90239850Y-59790174D01*
X90340877Y-60298072D01*
X90539049Y-60776501D01*
X90826750Y-61207076D01*
X91192924Y-61573250D01*
X91623499Y-61860951D01*
X92101928Y-62059123D01*
X92609826Y-62160150D01*
X93127674Y-62160150D01*
X93635572Y-62059123D01*
X94114001Y-61860951D01*
X94544576Y-61573250D01*
X94910750Y-61207076D01*
X95198451Y-60776501D01*
X95396623Y-60298072D01*
X95497650Y-59790174D01*
X95497650Y-59272326D01*
X95396623Y-58764428D01*
X95198451Y-58285999D01*
X94910750Y-57855424D01*
X94544576Y-57489250D01*
X94114001Y-57201549D01*
X93635572Y-57003377D01*
X93127674Y-56902350D01*
X92609826Y-56902350D01*
X92101928Y-57003377D01*
X91623499Y-57201549D01*
X91192924Y-57489250D01*
X90826750Y-57855424D01*
X90539049Y-58285999D01*
X90340877Y-58764428D01*
X90239850Y-59272326D01*
X90223750Y-59272326D01*
X90223750Y-58482565D01*
X90236121Y-58474585D01*
X90502882Y-58216300D01*
X90661194Y-57987456D01*
X91562025Y-56365653D01*
X91672650Y-56110320D01*
X91750959Y-55747359D01*
X91756953Y-55376094D01*
X91690402Y-55010795D01*
X91684060Y-54994755D01*
X93482094Y-54994755D01*
X93490471Y-55272895D01*
X93573840Y-55634727D01*
X93726198Y-55973342D01*
X93941689Y-56275727D01*
X94212031Y-56530261D01*
X94526837Y-56727165D01*
X94874007Y-56858868D01*
X95240200Y-56920311D01*
X95611343Y-56909133D01*
X95973175Y-56825764D01*
X96008751Y-56809757D01*
X96008750Y-63075706D01*
X95853991Y-63179113D01*
X95654113Y-63378991D01*
X95497070Y-63614023D01*
X95388897Y-63875176D01*
X95333750Y-64152415D01*
X95333750Y-64435085D01*
X95388897Y-64712324D01*
X95497070Y-64973477D01*
X95654113Y-65208509D01*
X95853991Y-65408387D01*
X96089023Y-65565430D01*
X96350176Y-65673603D01*
X96627415Y-65728750D01*
X96910085Y-65728750D01*
X97187324Y-65673603D01*
X97448477Y-65565430D01*
X97683509Y-65408387D01*
X97883387Y-65208509D01*
X98040430Y-64973477D01*
X98148603Y-64712324D01*
X98203750Y-64435085D01*
X98203750Y-64152415D01*
X98148603Y-63875176D01*
X98040430Y-63614023D01*
X97883387Y-63378991D01*
X97683509Y-63179113D01*
X97528750Y-63075707D01*
X97528750Y-60962718D01*
X97802402Y-61017150D01*
X98095098Y-61017150D01*
X98382171Y-60960048D01*
X98652588Y-60848038D01*
X98895956Y-60685424D01*
X99102924Y-60478456D01*
X99265538Y-60235088D01*
X99377548Y-59964671D01*
X99434650Y-59677598D01*
X99434650Y-59384902D01*
X99377548Y-59097829D01*
X99265538Y-58827412D01*
X99102924Y-58584044D01*
X98895956Y-58377076D01*
X98652588Y-58214462D01*
X98382171Y-58102452D01*
X98095098Y-58045350D01*
X97802402Y-58045350D01*
X97528750Y-58099782D01*
X97528750Y-57148061D01*
X105215000Y-57148061D01*
X105215000Y-57351939D01*
X105254774Y-57551898D01*
X105332795Y-57740256D01*
X105446063Y-57909774D01*
X105490000Y-57953711D01*
X105490001Y-62212658D01*
X105490000Y-62212668D01*
X105490001Y-65212658D01*
X105490000Y-65212668D01*
X105490001Y-69462658D01*
X105490000Y-69462668D01*
X105490000Y-69781943D01*
X105466525Y-69805418D01*
X105353257Y-69974936D01*
X105275236Y-70163294D01*
X105235462Y-70363253D01*
X105235462Y-70567131D01*
X105275236Y-70767090D01*
X105353257Y-70955448D01*
X105466525Y-71124966D01*
X105610688Y-71269129D01*
X105780206Y-71382397D01*
X105968564Y-71460418D01*
X106168523Y-71500192D01*
X106372401Y-71500192D01*
X106572360Y-71460418D01*
X106760718Y-71382397D01*
X106930236Y-71269129D01*
X107074399Y-71124966D01*
X107187667Y-70955448D01*
X107258200Y-70785168D01*
X107301898Y-70776476D01*
X107490256Y-70698455D01*
X107659774Y-70585187D01*
X107803937Y-70441024D01*
X107917205Y-70271506D01*
X107995226Y-70083148D01*
X108035000Y-69883189D01*
X108035000Y-69679311D01*
X107995226Y-69479352D01*
X107917205Y-69290994D01*
X107803937Y-69121476D01*
X107760000Y-69077539D01*
X107760000Y-56953711D01*
X107803937Y-56909774D01*
X107917205Y-56740256D01*
X107995226Y-56551898D01*
X108035000Y-56351939D01*
X108035000Y-56148061D01*
X107995226Y-55948102D01*
X107917205Y-55759744D01*
X107803937Y-55590226D01*
X107659774Y-55446063D01*
X107490256Y-55332795D01*
X107301898Y-55254774D01*
X107101939Y-55215000D01*
X106898061Y-55215000D01*
X106698102Y-55254774D01*
X106509744Y-55332795D01*
X106340226Y-55446063D01*
X106196063Y-55590226D01*
X106082795Y-55759744D01*
X106004774Y-55948102D01*
X105965000Y-56148061D01*
X105965000Y-56251413D01*
X105948102Y-56254774D01*
X105759744Y-56332795D01*
X105590226Y-56446063D01*
X105446063Y-56590226D01*
X105332795Y-56759744D01*
X105254774Y-56948102D01*
X105215000Y-57148061D01*
X97528750Y-57148061D01*
X97528750Y-56158575D01*
X97532426Y-56121250D01*
X97528750Y-56083925D01*
X97528750Y-56083917D01*
X97517753Y-55972264D01*
X97474296Y-55829003D01*
X97403724Y-55696974D01*
X97308751Y-55581249D01*
X97279753Y-55557451D01*
X97204584Y-55482282D01*
X97243363Y-55251166D01*
X97267434Y-54898061D01*
X100465000Y-54898061D01*
X100465000Y-55101939D01*
X100504774Y-55301898D01*
X100582795Y-55490256D01*
X100696063Y-55659774D01*
X100840226Y-55803937D01*
X101009744Y-55917205D01*
X101198102Y-55995226D01*
X101398061Y-56035000D01*
X101601939Y-56035000D01*
X101801898Y-55995226D01*
X101990256Y-55917205D01*
X102159774Y-55803937D01*
X102303937Y-55659774D01*
X102417205Y-55490256D01*
X102495226Y-55301898D01*
X102535000Y-55101939D01*
X102535000Y-55039801D01*
X103814802Y-53760000D01*
X107796289Y-53760000D01*
X107840226Y-53803937D01*
X108009744Y-53917205D01*
X108198102Y-53995226D01*
X108398061Y-54035000D01*
X108601939Y-54035000D01*
X108801898Y-53995226D01*
X108990256Y-53917205D01*
X109159774Y-53803937D01*
X109303937Y-53659774D01*
X109417205Y-53490256D01*
X109495226Y-53301898D01*
X109535000Y-53101939D01*
X109535000Y-52898061D01*
X109495226Y-52698102D01*
X109417205Y-52509744D01*
X109303937Y-52340226D01*
X109159774Y-52196063D01*
X108990256Y-52082795D01*
X108801898Y-52004774D01*
X108601939Y-51965000D01*
X108398061Y-51965000D01*
X108198102Y-52004774D01*
X108009744Y-52082795D01*
X107840226Y-52196063D01*
X107796289Y-52240000D01*
X103537322Y-52240000D01*
X103499999Y-52236324D01*
X103462676Y-52240000D01*
X103462667Y-52240000D01*
X103351014Y-52250997D01*
X103207753Y-52294454D01*
X103075723Y-52365026D01*
X102992083Y-52433668D01*
X102959999Y-52459999D01*
X102936201Y-52488997D01*
X101460199Y-53965000D01*
X101398061Y-53965000D01*
X101198102Y-54004774D01*
X101009744Y-54082795D01*
X100840226Y-54196063D01*
X100696063Y-54340226D01*
X100582795Y-54509744D01*
X100504774Y-54698102D01*
X100465000Y-54898061D01*
X97267434Y-54898061D01*
X97295406Y-54487746D01*
X97287029Y-54209605D01*
X97203660Y-53847773D01*
X97051302Y-53509158D01*
X96835811Y-53206773D01*
X96565469Y-52952239D01*
X96250663Y-52755336D01*
X95903493Y-52623632D01*
X95537300Y-52562189D01*
X95166157Y-52573367D01*
X94804325Y-52656736D01*
X94465710Y-52809094D01*
X94163325Y-53024585D01*
X93908791Y-53294927D01*
X93711887Y-53609733D01*
X93580184Y-53956903D01*
X93534137Y-54231334D01*
X93482094Y-54994755D01*
X91684060Y-54994755D01*
X91553864Y-54665498D01*
X91352584Y-54353472D01*
X91094299Y-54086711D01*
X90788935Y-53875464D01*
X90448226Y-53727849D01*
X90085265Y-53649540D01*
X89714000Y-53643546D01*
X89348701Y-53710097D01*
X89003405Y-53846635D01*
X88691379Y-54047915D01*
X88424618Y-54306200D01*
X88266306Y-54535044D01*
X87365475Y-56156848D01*
X87254850Y-56412181D01*
X87176541Y-56775142D01*
X87170547Y-57146406D01*
X87237098Y-57511705D01*
X87373636Y-57857002D01*
X87511882Y-58071312D01*
X87355329Y-58102452D01*
X87084912Y-58214462D01*
X86841544Y-58377076D01*
X86634576Y-58584044D01*
X86471962Y-58827412D01*
X86359952Y-59097829D01*
X86302850Y-59384902D01*
X86302850Y-59677598D01*
X86359952Y-59964671D01*
X86471962Y-60235088D01*
X86634576Y-60478456D01*
X86841544Y-60685424D01*
X87084912Y-60848038D01*
X87130673Y-60866993D01*
X87115026Y-60886058D01*
X87044454Y-61018088D01*
X87000998Y-61161349D01*
X86986324Y-61310334D01*
X86990001Y-61347666D01*
X86990000Y-73560178D01*
X86986324Y-73597500D01*
X86990000Y-73634822D01*
X86990000Y-73634832D01*
X87000997Y-73746485D01*
X87037212Y-73865871D01*
X87044454Y-73889746D01*
X87115026Y-74021776D01*
X87151113Y-74065748D01*
X87209999Y-74137501D01*
X87239002Y-74161303D01*
X87693675Y-74615976D01*
X87365475Y-75206848D01*
X87254850Y-75462181D01*
X87176541Y-75825142D01*
X87170547Y-76196406D01*
X87237098Y-76561705D01*
X87373636Y-76907002D01*
X87511882Y-77121312D01*
X87355329Y-77152452D01*
X87084912Y-77264462D01*
X86841544Y-77427076D01*
X86634576Y-77634044D01*
X86471962Y-77877412D01*
X86359952Y-78147829D01*
X86302850Y-78434902D01*
X86302850Y-78727598D01*
X86359952Y-79014671D01*
X86471962Y-79285088D01*
X86634576Y-79528456D01*
X86841544Y-79735424D01*
X87084912Y-79898038D01*
X87355329Y-80010048D01*
X87642402Y-80067150D01*
X87935098Y-80067150D01*
X88222171Y-80010048D01*
X88492588Y-79898038D01*
X88703751Y-79756943D01*
X88703751Y-80348944D01*
X87332751Y-81719946D01*
X87303748Y-81743748D01*
X87248620Y-81810923D01*
X87208775Y-81859473D01*
X87152959Y-81963897D01*
X87138203Y-81991503D01*
X87094746Y-82134764D01*
X87083749Y-82246417D01*
X87083749Y-82246427D01*
X87080073Y-82283749D01*
X87083749Y-82321072D01*
X87083750Y-84366419D01*
X87080073Y-84403751D01*
X87094747Y-84552736D01*
X87138203Y-84695997D01*
X87208775Y-84828027D01*
X87259652Y-84890020D01*
X70354820Y-84890020D01*
X70246622Y-84781822D01*
X70718750Y-84781822D01*
X70843232Y-84769562D01*
X70962930Y-84733252D01*
X71073244Y-84674287D01*
X71169935Y-84594935D01*
X71249287Y-84498244D01*
X71308252Y-84387930D01*
X71344562Y-84268232D01*
X71356822Y-84143750D01*
X71356822Y-82543750D01*
X71344562Y-82419268D01*
X71308252Y-82299570D01*
X71249287Y-82189256D01*
X71169935Y-82092565D01*
X71073244Y-82013213D01*
X70962930Y-81954248D01*
X70843232Y-81917938D01*
X70718750Y-81905678D01*
X70246622Y-81905678D01*
X70924758Y-81227543D01*
X70953751Y-81203749D01*
X70977545Y-81174756D01*
X70977549Y-81174752D01*
X71048723Y-81088025D01*
X71094574Y-81002245D01*
X71119296Y-80955995D01*
X71162753Y-80812734D01*
X71173750Y-80701081D01*
X71173750Y-80701072D01*
X71177426Y-80663749D01*
X71173750Y-80626426D01*
X71173750Y-78322326D01*
X71189850Y-78322326D01*
X71189850Y-78840174D01*
X71290877Y-79348072D01*
X71489049Y-79826501D01*
X71776750Y-80257076D01*
X72142924Y-80623250D01*
X72573499Y-80910951D01*
X73051928Y-81109123D01*
X73559826Y-81210150D01*
X74077674Y-81210150D01*
X74585572Y-81109123D01*
X75064001Y-80910951D01*
X75494576Y-80623250D01*
X75860750Y-80257076D01*
X76148451Y-79826501D01*
X76346623Y-79348072D01*
X76447650Y-78840174D01*
X76447650Y-78322326D01*
X76346623Y-77814428D01*
X76148451Y-77335999D01*
X75860750Y-76905424D01*
X75494576Y-76539250D01*
X75064001Y-76251549D01*
X74585572Y-76053377D01*
X74077674Y-75952350D01*
X73559826Y-75952350D01*
X73051928Y-76053377D01*
X72573499Y-76251549D01*
X72142924Y-76539250D01*
X71776750Y-76905424D01*
X71489049Y-77335999D01*
X71290877Y-77814428D01*
X71189850Y-78322326D01*
X71173750Y-78322326D01*
X71173750Y-77532565D01*
X71186121Y-77524585D01*
X71452882Y-77266300D01*
X71611194Y-77037456D01*
X72512025Y-75415653D01*
X72622650Y-75160320D01*
X72700959Y-74797359D01*
X72706953Y-74426094D01*
X72640402Y-74060795D01*
X72634060Y-74044755D01*
X74432094Y-74044755D01*
X74440471Y-74322895D01*
X74523840Y-74684727D01*
X74676198Y-75023342D01*
X74891689Y-75325727D01*
X75162031Y-75580261D01*
X75476837Y-75777165D01*
X75824007Y-75908868D01*
X76190200Y-75970311D01*
X76561343Y-75959133D01*
X76923175Y-75875764D01*
X76958751Y-75859757D01*
X76958750Y-82125706D01*
X76803991Y-82229113D01*
X76604113Y-82428991D01*
X76447070Y-82664023D01*
X76338897Y-82925176D01*
X76283750Y-83202415D01*
X76283750Y-83485085D01*
X76338897Y-83762324D01*
X76447070Y-84023477D01*
X76604113Y-84258509D01*
X76803991Y-84458387D01*
X77039023Y-84615430D01*
X77300176Y-84723603D01*
X77577415Y-84778750D01*
X77860085Y-84778750D01*
X78137324Y-84723603D01*
X78398477Y-84615430D01*
X78633509Y-84458387D01*
X78833387Y-84258509D01*
X78990430Y-84023477D01*
X79098603Y-83762324D01*
X79153750Y-83485085D01*
X79153750Y-83202415D01*
X79098603Y-82925176D01*
X78990430Y-82664023D01*
X78833387Y-82428991D01*
X78633509Y-82229113D01*
X78478750Y-82125707D01*
X78478750Y-80012718D01*
X78752402Y-80067150D01*
X79045098Y-80067150D01*
X79332171Y-80010048D01*
X79602588Y-79898038D01*
X79845956Y-79735424D01*
X80052924Y-79528456D01*
X80215538Y-79285088D01*
X80327548Y-79014671D01*
X80384650Y-78727598D01*
X80384650Y-78434902D01*
X80327548Y-78147829D01*
X80215538Y-77877412D01*
X80052924Y-77634044D01*
X79845956Y-77427076D01*
X79602588Y-77264462D01*
X79332171Y-77152452D01*
X79045098Y-77095350D01*
X78752402Y-77095350D01*
X78478750Y-77149782D01*
X78478750Y-75208575D01*
X78482426Y-75171250D01*
X78478750Y-75133925D01*
X78478750Y-75133917D01*
X78467753Y-75022264D01*
X78424296Y-74879003D01*
X78353724Y-74746974D01*
X78258751Y-74631249D01*
X78229753Y-74607451D01*
X78154584Y-74532282D01*
X78193363Y-74301166D01*
X78245406Y-73537746D01*
X78237029Y-73259605D01*
X78153660Y-72897773D01*
X78001302Y-72559158D01*
X77785811Y-72256773D01*
X77515469Y-72002239D01*
X77200663Y-71805336D01*
X76853493Y-71673632D01*
X76487300Y-71612189D01*
X76116157Y-71623367D01*
X75754325Y-71706736D01*
X75415710Y-71859094D01*
X75113325Y-72074585D01*
X74858791Y-72344927D01*
X74661887Y-72659733D01*
X74530184Y-73006903D01*
X74484137Y-73281334D01*
X74432094Y-74044755D01*
X72634060Y-74044755D01*
X72503864Y-73715498D01*
X72302584Y-73403472D01*
X72044299Y-73136711D01*
X71738935Y-72925464D01*
X71398226Y-72777849D01*
X71035265Y-72699540D01*
X70664000Y-72693546D01*
X70298701Y-72760097D01*
X69953405Y-72896635D01*
X69641379Y-73097915D01*
X69553749Y-73182761D01*
X69553749Y-65731822D01*
X70718750Y-65731822D01*
X70843232Y-65719562D01*
X70962930Y-65683252D01*
X71073244Y-65624287D01*
X71169935Y-65544935D01*
X71249287Y-65448244D01*
X71308252Y-65337930D01*
X71344562Y-65218232D01*
X71356822Y-65093750D01*
X71356822Y-63493750D01*
X71344562Y-63369268D01*
X71308252Y-63249570D01*
X71249287Y-63139256D01*
X71169935Y-63042565D01*
X71073244Y-62963213D01*
X70962930Y-62904248D01*
X70843232Y-62867938D01*
X70718750Y-62855678D01*
X69553749Y-62855678D01*
X69553749Y-61531386D01*
X70924759Y-60160378D01*
X70953751Y-60136585D01*
X70977545Y-60107592D01*
X70977549Y-60107588D01*
X71048723Y-60020861D01*
X71048724Y-60020860D01*
X71119296Y-59888831D01*
X71162753Y-59745570D01*
X71173750Y-59633917D01*
X71173750Y-59633908D01*
X71177426Y-59596585D01*
X71173750Y-59559262D01*
X71173750Y-59272326D01*
X71189850Y-59272326D01*
X71189850Y-59790174D01*
X71290877Y-60298072D01*
X71489049Y-60776501D01*
X71776750Y-61207076D01*
X72142924Y-61573250D01*
X72573499Y-61860951D01*
X73051928Y-62059123D01*
X73559826Y-62160150D01*
X74077674Y-62160150D01*
X74585572Y-62059123D01*
X75064001Y-61860951D01*
X75494576Y-61573250D01*
X75860750Y-61207076D01*
X76148451Y-60776501D01*
X76346623Y-60298072D01*
X76447650Y-59790174D01*
X76447650Y-59272326D01*
X76346623Y-58764428D01*
X76148451Y-58285999D01*
X75860750Y-57855424D01*
X75494576Y-57489250D01*
X75064001Y-57201549D01*
X74585572Y-57003377D01*
X74077674Y-56902350D01*
X73559826Y-56902350D01*
X73051928Y-57003377D01*
X72573499Y-57201549D01*
X72142924Y-57489250D01*
X71776750Y-57855424D01*
X71489049Y-58285999D01*
X71290877Y-58764428D01*
X71189850Y-59272326D01*
X71173750Y-59272326D01*
X71173750Y-58482565D01*
X71186121Y-58474585D01*
X71452882Y-58216300D01*
X71611194Y-57987456D01*
X72512025Y-56365653D01*
X72622650Y-56110320D01*
X72700959Y-55747359D01*
X72706953Y-55376094D01*
X72640402Y-55010795D01*
X72634060Y-54994755D01*
X74432094Y-54994755D01*
X74440471Y-55272895D01*
X74523840Y-55634727D01*
X74676198Y-55973342D01*
X74891689Y-56275727D01*
X75162031Y-56530261D01*
X75476837Y-56727165D01*
X75824007Y-56858868D01*
X76190200Y-56920311D01*
X76561343Y-56909133D01*
X76923175Y-56825764D01*
X76958751Y-56809757D01*
X76958750Y-63075706D01*
X76803991Y-63179113D01*
X76604113Y-63378991D01*
X76447070Y-63614023D01*
X76338897Y-63875176D01*
X76283750Y-64152415D01*
X76283750Y-64435085D01*
X76338897Y-64712324D01*
X76447070Y-64973477D01*
X76604113Y-65208509D01*
X76803991Y-65408387D01*
X77039023Y-65565430D01*
X77300176Y-65673603D01*
X77577415Y-65728750D01*
X77860085Y-65728750D01*
X78137324Y-65673603D01*
X78398477Y-65565430D01*
X78633509Y-65408387D01*
X78833387Y-65208509D01*
X78990430Y-64973477D01*
X79098603Y-64712324D01*
X79153750Y-64435085D01*
X79153750Y-64152415D01*
X79098603Y-63875176D01*
X78990430Y-63614023D01*
X78833387Y-63378991D01*
X78633509Y-63179113D01*
X78478750Y-63075707D01*
X78478750Y-60962718D01*
X78752402Y-61017150D01*
X79045098Y-61017150D01*
X79332171Y-60960048D01*
X79602588Y-60848038D01*
X79845956Y-60685424D01*
X80052924Y-60478456D01*
X80215538Y-60235088D01*
X80327548Y-59964671D01*
X80384650Y-59677598D01*
X80384650Y-59384902D01*
X80327548Y-59097829D01*
X80215538Y-58827412D01*
X80052924Y-58584044D01*
X79845956Y-58377076D01*
X79602588Y-58214462D01*
X79332171Y-58102452D01*
X79045098Y-58045350D01*
X78752402Y-58045350D01*
X78478750Y-58099782D01*
X78478750Y-56158575D01*
X78482426Y-56121250D01*
X78478750Y-56083925D01*
X78478750Y-56083917D01*
X78467753Y-55972264D01*
X78424296Y-55829003D01*
X78353724Y-55696974D01*
X78258751Y-55581249D01*
X78229753Y-55557451D01*
X78154584Y-55482282D01*
X78193363Y-55251166D01*
X78245406Y-54487746D01*
X78237029Y-54209605D01*
X78153660Y-53847773D01*
X78001302Y-53509158D01*
X77785811Y-53206773D01*
X77515469Y-52952239D01*
X77200663Y-52755336D01*
X76853493Y-52623632D01*
X76487300Y-52562189D01*
X76116157Y-52573367D01*
X75754325Y-52656736D01*
X75415710Y-52809094D01*
X75113325Y-53024585D01*
X74858791Y-53294927D01*
X74661887Y-53609733D01*
X74530184Y-53956903D01*
X74484137Y-54231334D01*
X74432094Y-54994755D01*
X72634060Y-54994755D01*
X72503864Y-54665498D01*
X72302584Y-54353472D01*
X72044299Y-54086711D01*
X71738935Y-53875464D01*
X71398226Y-53727849D01*
X71035265Y-53649540D01*
X70664000Y-53643546D01*
X70298701Y-53710097D01*
X69953405Y-53846635D01*
X69641379Y-54047915D01*
X69374618Y-54306200D01*
X69216306Y-54535044D01*
X68315475Y-56156848D01*
X68204850Y-56412181D01*
X68126541Y-56775142D01*
X68120547Y-57146406D01*
X68187098Y-57511705D01*
X68323636Y-57857002D01*
X68461882Y-58071312D01*
X68305329Y-58102452D01*
X68034912Y-58214462D01*
X67791544Y-58377076D01*
X67584576Y-58584044D01*
X67421962Y-58827412D01*
X67309952Y-59097829D01*
X67252850Y-59384902D01*
X67252850Y-59677598D01*
X67309952Y-59964671D01*
X67421962Y-60235088D01*
X67584576Y-60478456D01*
X67791544Y-60685424D01*
X68034912Y-60848038D01*
X68111934Y-60879941D01*
X68088203Y-60924339D01*
X68044747Y-61067600D01*
X68030073Y-61216585D01*
X68033750Y-61253917D01*
X68033750Y-64501164D01*
X67851939Y-64465000D01*
X67648061Y-64465000D01*
X67448102Y-64504774D01*
X67259744Y-64582795D01*
X67192609Y-64627653D01*
X63816058Y-64627653D01*
X63772121Y-64583716D01*
X63602603Y-64470448D01*
X63414245Y-64392427D01*
X63214286Y-64352653D01*
X63010408Y-64352653D01*
X62810449Y-64392427D01*
X62622091Y-64470448D01*
X62452573Y-64583716D01*
X62308410Y-64727879D01*
X62195142Y-64897397D01*
X62117121Y-65085755D01*
X62077347Y-65285714D01*
X62077347Y-65489592D01*
X62117121Y-65689551D01*
X62195142Y-65877909D01*
X62308410Y-66047427D01*
X62452573Y-66191590D01*
X62622091Y-66304858D01*
X62810449Y-66382879D01*
X63010408Y-66422653D01*
X63214286Y-66422653D01*
X63414245Y-66382879D01*
X63602603Y-66304858D01*
X63772121Y-66191590D01*
X63816058Y-66147653D01*
X66937964Y-66147653D01*
X66946063Y-66159774D01*
X67090226Y-66303937D01*
X67259744Y-66417205D01*
X67448102Y-66495226D01*
X67648061Y-66535000D01*
X67851939Y-66535000D01*
X68033750Y-66498836D01*
X68033749Y-73653927D01*
X68030073Y-73691249D01*
X68033749Y-73728571D01*
X68033749Y-73728581D01*
X68044746Y-73840234D01*
X68088203Y-73983495D01*
X68158775Y-74115525D01*
X68198620Y-74164075D01*
X68253748Y-74231250D01*
X68282751Y-74255052D01*
X68643675Y-74615976D01*
X68315475Y-75206848D01*
X68204850Y-75462181D01*
X68126541Y-75825142D01*
X68120547Y-76196406D01*
X68187098Y-76561705D01*
X68323636Y-76907002D01*
X68461882Y-77121312D01*
X68305329Y-77152452D01*
X68034912Y-77264462D01*
X67791544Y-77427076D01*
X67584576Y-77634044D01*
X67421962Y-77877412D01*
X67309952Y-78147829D01*
X67252850Y-78434902D01*
X67252850Y-78727598D01*
X67309952Y-79014671D01*
X67421962Y-79285088D01*
X67584576Y-79528456D01*
X67791544Y-79735424D01*
X68034912Y-79898038D01*
X68305329Y-80010048D01*
X68592402Y-80067150D01*
X68885098Y-80067150D01*
X69172171Y-80010048D01*
X69442588Y-79898038D01*
X69653751Y-79756943D01*
X69653751Y-80348944D01*
X68282751Y-81719946D01*
X68253748Y-81743748D01*
X68198620Y-81810923D01*
X68158775Y-81859473D01*
X68102959Y-81963897D01*
X68088203Y-81991503D01*
X68044746Y-82134764D01*
X68033749Y-82246417D01*
X68033749Y-82246427D01*
X68030073Y-82283749D01*
X68033749Y-82321072D01*
X68033750Y-84366419D01*
X68030073Y-84403751D01*
X68044747Y-84552736D01*
X68088203Y-84695997D01*
X68158775Y-84828027D01*
X68224214Y-84907764D01*
X68253749Y-84943752D01*
X68282747Y-84967550D01*
X68655227Y-85340030D01*
X51754830Y-85340030D01*
X51196622Y-84781822D01*
X51668750Y-84781822D01*
X51793232Y-84769562D01*
X51912930Y-84733252D01*
X52023244Y-84674287D01*
X52119935Y-84594935D01*
X52199287Y-84498244D01*
X52258252Y-84387930D01*
X52294562Y-84268232D01*
X52306822Y-84143750D01*
X52306822Y-82543750D01*
X52294562Y-82419268D01*
X52258252Y-82299570D01*
X52199287Y-82189256D01*
X52119935Y-82092565D01*
X52023244Y-82013213D01*
X51912930Y-81954248D01*
X51793232Y-81917938D01*
X51668750Y-81905678D01*
X51196622Y-81905678D01*
X51874758Y-81227543D01*
X51903751Y-81203749D01*
X51927545Y-81174756D01*
X51927549Y-81174752D01*
X51998723Y-81088025D01*
X52044574Y-81002245D01*
X52069296Y-80955995D01*
X52112753Y-80812734D01*
X52123750Y-80701081D01*
X52123750Y-80701072D01*
X52127426Y-80663749D01*
X52123750Y-80626426D01*
X52123750Y-78322326D01*
X52139850Y-78322326D01*
X52139850Y-78840174D01*
X52240877Y-79348072D01*
X52439049Y-79826501D01*
X52726750Y-80257076D01*
X53092924Y-80623250D01*
X53523499Y-80910951D01*
X54001928Y-81109123D01*
X54509826Y-81210150D01*
X55027674Y-81210150D01*
X55535572Y-81109123D01*
X56014001Y-80910951D01*
X56444576Y-80623250D01*
X56810750Y-80257076D01*
X57098451Y-79826501D01*
X57296623Y-79348072D01*
X57397650Y-78840174D01*
X57397650Y-78322326D01*
X57296623Y-77814428D01*
X57098451Y-77335999D01*
X56810750Y-76905424D01*
X56444576Y-76539250D01*
X56014001Y-76251549D01*
X55535572Y-76053377D01*
X55027674Y-75952350D01*
X54509826Y-75952350D01*
X54001928Y-76053377D01*
X53523499Y-76251549D01*
X53092924Y-76539250D01*
X52726750Y-76905424D01*
X52439049Y-77335999D01*
X52240877Y-77814428D01*
X52139850Y-78322326D01*
X52123750Y-78322326D01*
X52123750Y-77532565D01*
X52136121Y-77524585D01*
X52402882Y-77266300D01*
X52561194Y-77037456D01*
X53462025Y-75415653D01*
X53572650Y-75160320D01*
X53650959Y-74797359D01*
X53656953Y-74426094D01*
X53590402Y-74060795D01*
X53584060Y-74044755D01*
X55382094Y-74044755D01*
X55390471Y-74322895D01*
X55473840Y-74684727D01*
X55626198Y-75023342D01*
X55841689Y-75325727D01*
X56112031Y-75580261D01*
X56426837Y-75777165D01*
X56774007Y-75908868D01*
X57140200Y-75970311D01*
X57511343Y-75959133D01*
X57873175Y-75875764D01*
X57908751Y-75859757D01*
X57908750Y-82125706D01*
X57753991Y-82229113D01*
X57554113Y-82428991D01*
X57397070Y-82664023D01*
X57288897Y-82925176D01*
X57233750Y-83202415D01*
X57233750Y-83485085D01*
X57288897Y-83762324D01*
X57397070Y-84023477D01*
X57554113Y-84258509D01*
X57753991Y-84458387D01*
X57989023Y-84615430D01*
X58250176Y-84723603D01*
X58527415Y-84778750D01*
X58810085Y-84778750D01*
X59087324Y-84723603D01*
X59348477Y-84615430D01*
X59583509Y-84458387D01*
X59783387Y-84258509D01*
X59940430Y-84023477D01*
X60048603Y-83762324D01*
X60103750Y-83485085D01*
X60103750Y-83202415D01*
X60048603Y-82925176D01*
X59940430Y-82664023D01*
X59783387Y-82428991D01*
X59583509Y-82229113D01*
X59428750Y-82125707D01*
X59428750Y-80012718D01*
X59702402Y-80067150D01*
X59995098Y-80067150D01*
X60282171Y-80010048D01*
X60552588Y-79898038D01*
X60795956Y-79735424D01*
X61002924Y-79528456D01*
X61165538Y-79285088D01*
X61277548Y-79014671D01*
X61334650Y-78727598D01*
X61334650Y-78434902D01*
X61277548Y-78147829D01*
X61165538Y-77877412D01*
X61002924Y-77634044D01*
X60795956Y-77427076D01*
X60552588Y-77264462D01*
X60282171Y-77152452D01*
X59995098Y-77095350D01*
X59702402Y-77095350D01*
X59428750Y-77149782D01*
X59428750Y-75208575D01*
X59432426Y-75171250D01*
X59428750Y-75133925D01*
X59428750Y-75133917D01*
X59417753Y-75022264D01*
X59374296Y-74879003D01*
X59303724Y-74746974D01*
X59208751Y-74631249D01*
X59179753Y-74607451D01*
X59104584Y-74532282D01*
X59143363Y-74301166D01*
X59195406Y-73537746D01*
X59187029Y-73259605D01*
X59103660Y-72897773D01*
X58951302Y-72559158D01*
X58735811Y-72256773D01*
X58465469Y-72002239D01*
X58150663Y-71805336D01*
X57803493Y-71673632D01*
X57437300Y-71612189D01*
X57066157Y-71623367D01*
X56704325Y-71706736D01*
X56365710Y-71859094D01*
X56063325Y-72074585D01*
X55808791Y-72344927D01*
X55611887Y-72659733D01*
X55480184Y-73006903D01*
X55434137Y-73281334D01*
X55382094Y-74044755D01*
X53584060Y-74044755D01*
X53453864Y-73715498D01*
X53252584Y-73403472D01*
X52994299Y-73136711D01*
X52688935Y-72925464D01*
X52348226Y-72777849D01*
X51985265Y-72699540D01*
X51833572Y-72697091D01*
X50503749Y-71367270D01*
X50503749Y-65731822D01*
X51668750Y-65731822D01*
X51793232Y-65719562D01*
X51912930Y-65683252D01*
X52023244Y-65624287D01*
X52119935Y-65544935D01*
X52199287Y-65448244D01*
X52258252Y-65337930D01*
X52294562Y-65218232D01*
X52306822Y-65093750D01*
X52306822Y-63493750D01*
X52294562Y-63369268D01*
X52258252Y-63249570D01*
X52199287Y-63139256D01*
X52119935Y-63042565D01*
X52023244Y-62963213D01*
X51912930Y-62904248D01*
X51793232Y-62867938D01*
X51668750Y-62855678D01*
X50503749Y-62855678D01*
X50503749Y-61531386D01*
X51874759Y-60160378D01*
X51903751Y-60136585D01*
X51927545Y-60107592D01*
X51927549Y-60107588D01*
X51998723Y-60020861D01*
X51998724Y-60020860D01*
X52069296Y-59888831D01*
X52112753Y-59745570D01*
X52123750Y-59633917D01*
X52123750Y-59633908D01*
X52127426Y-59596585D01*
X52123750Y-59559262D01*
X52123750Y-59272326D01*
X52139850Y-59272326D01*
X52139850Y-59790174D01*
X52240877Y-60298072D01*
X52439049Y-60776501D01*
X52726750Y-61207076D01*
X53092924Y-61573250D01*
X53523499Y-61860951D01*
X54001928Y-62059123D01*
X54509826Y-62160150D01*
X55027674Y-62160150D01*
X55535572Y-62059123D01*
X56014001Y-61860951D01*
X56444576Y-61573250D01*
X56810750Y-61207076D01*
X57098451Y-60776501D01*
X57296623Y-60298072D01*
X57397650Y-59790174D01*
X57397650Y-59272326D01*
X57296623Y-58764428D01*
X57098451Y-58285999D01*
X56810750Y-57855424D01*
X56444576Y-57489250D01*
X56014001Y-57201549D01*
X55535572Y-57003377D01*
X55027674Y-56902350D01*
X54509826Y-56902350D01*
X54001928Y-57003377D01*
X53523499Y-57201549D01*
X53092924Y-57489250D01*
X52726750Y-57855424D01*
X52439049Y-58285999D01*
X52240877Y-58764428D01*
X52139850Y-59272326D01*
X52123750Y-59272326D01*
X52123750Y-58482565D01*
X52136121Y-58474585D01*
X52402882Y-58216300D01*
X52561194Y-57987456D01*
X53462025Y-56365653D01*
X53572650Y-56110320D01*
X53650959Y-55747359D01*
X53656953Y-55376094D01*
X53590402Y-55010795D01*
X53584060Y-54994755D01*
X55382094Y-54994755D01*
X55390471Y-55272895D01*
X55473840Y-55634727D01*
X55626198Y-55973342D01*
X55841689Y-56275727D01*
X56112031Y-56530261D01*
X56426837Y-56727165D01*
X56774007Y-56858868D01*
X57140200Y-56920311D01*
X57511343Y-56909133D01*
X57873175Y-56825764D01*
X57908751Y-56809757D01*
X57908750Y-63075706D01*
X57753991Y-63179113D01*
X57554113Y-63378991D01*
X57397070Y-63614023D01*
X57288897Y-63875176D01*
X57233750Y-64152415D01*
X57233750Y-64435085D01*
X57288897Y-64712324D01*
X57397070Y-64973477D01*
X57554113Y-65208509D01*
X57753991Y-65408387D01*
X57989023Y-65565430D01*
X58250176Y-65673603D01*
X58527415Y-65728750D01*
X58810085Y-65728750D01*
X59087324Y-65673603D01*
X59348477Y-65565430D01*
X59583509Y-65408387D01*
X59783387Y-65208509D01*
X59940430Y-64973477D01*
X60048603Y-64712324D01*
X60103750Y-64435085D01*
X60103750Y-64152415D01*
X60048603Y-63875176D01*
X59940430Y-63614023D01*
X59783387Y-63378991D01*
X59583509Y-63179113D01*
X59428750Y-63075707D01*
X59428750Y-60962718D01*
X59702402Y-61017150D01*
X59995098Y-61017150D01*
X60282171Y-60960048D01*
X60552588Y-60848038D01*
X60795956Y-60685424D01*
X61002924Y-60478456D01*
X61165538Y-60235088D01*
X61277548Y-59964671D01*
X61334650Y-59677598D01*
X61334650Y-59384902D01*
X61277548Y-59097829D01*
X61165538Y-58827412D01*
X61002924Y-58584044D01*
X60795956Y-58377076D01*
X60552588Y-58214462D01*
X60282171Y-58102452D01*
X59995098Y-58045350D01*
X59702402Y-58045350D01*
X59428750Y-58099782D01*
X59428750Y-56158575D01*
X59432426Y-56121250D01*
X59428750Y-56083925D01*
X59428750Y-56083917D01*
X59417753Y-55972264D01*
X59374296Y-55829003D01*
X59303724Y-55696974D01*
X59208751Y-55581249D01*
X59179753Y-55557451D01*
X59104584Y-55482282D01*
X59143363Y-55251166D01*
X59195406Y-54487746D01*
X59187029Y-54209605D01*
X59103660Y-53847773D01*
X58951302Y-53509158D01*
X58735811Y-53206773D01*
X58465469Y-52952239D01*
X58150663Y-52755336D01*
X57803493Y-52623632D01*
X57437300Y-52562189D01*
X57066157Y-52573367D01*
X56704325Y-52656736D01*
X56365710Y-52809094D01*
X56063325Y-53024585D01*
X55808791Y-53294927D01*
X55611887Y-53609733D01*
X55480184Y-53956903D01*
X55434137Y-54231334D01*
X55382094Y-54994755D01*
X53584060Y-54994755D01*
X53453864Y-54665498D01*
X53252584Y-54353472D01*
X52994299Y-54086711D01*
X52688935Y-53875464D01*
X52348226Y-53727849D01*
X51985265Y-53649540D01*
X51614000Y-53643546D01*
X51248701Y-53710097D01*
X50903405Y-53846635D01*
X50591379Y-54047915D01*
X50324618Y-54306200D01*
X50166306Y-54535044D01*
X49265475Y-56156848D01*
X49154850Y-56412181D01*
X49076541Y-56775142D01*
X49070547Y-57146406D01*
X49137098Y-57511705D01*
X49273636Y-57857002D01*
X49411882Y-58071312D01*
X49255329Y-58102452D01*
X48984912Y-58214462D01*
X48741544Y-58377076D01*
X48534576Y-58584044D01*
X48371962Y-58827412D01*
X48259952Y-59097829D01*
X48202850Y-59384902D01*
X48202850Y-59677598D01*
X48259952Y-59964671D01*
X48371962Y-60235088D01*
X48534576Y-60478456D01*
X48741544Y-60685424D01*
X48984912Y-60848038D01*
X49061934Y-60879941D01*
X49038203Y-60924339D01*
X48994747Y-61067600D01*
X48980073Y-61216585D01*
X48983750Y-61253917D01*
X48983749Y-71644749D01*
X48980073Y-71682071D01*
X48983749Y-71719393D01*
X48983749Y-71719403D01*
X48994746Y-71831056D01*
X49011102Y-71884974D01*
X49038203Y-71974317D01*
X49108775Y-72106347D01*
X49148620Y-72154897D01*
X49203748Y-72222072D01*
X49232751Y-72245874D01*
X50333996Y-73347120D01*
X50324618Y-73356200D01*
X50166306Y-73585044D01*
X49265475Y-75206848D01*
X49154850Y-75462181D01*
X49076541Y-75825142D01*
X49070547Y-76196406D01*
X49137098Y-76561705D01*
X49273636Y-76907002D01*
X49411882Y-77121312D01*
X49255329Y-77152452D01*
X48984912Y-77264462D01*
X48741544Y-77427076D01*
X48534576Y-77634044D01*
X48371962Y-77877412D01*
X48259952Y-78147829D01*
X48202850Y-78434902D01*
X48202850Y-78727598D01*
X48259952Y-79014671D01*
X48371962Y-79285088D01*
X48534576Y-79528456D01*
X48741544Y-79735424D01*
X48984912Y-79898038D01*
X49255329Y-80010048D01*
X49542402Y-80067150D01*
X49835098Y-80067150D01*
X50122171Y-80010048D01*
X50392588Y-79898038D01*
X50603751Y-79756943D01*
X50603751Y-80348944D01*
X49232751Y-81719946D01*
X49203748Y-81743748D01*
X49148620Y-81810923D01*
X49108775Y-81859473D01*
X49052959Y-81963897D01*
X49038203Y-81991503D01*
X48994746Y-82134764D01*
X48983749Y-82246417D01*
X48983749Y-82246427D01*
X48980073Y-82283749D01*
X48983749Y-82321072D01*
X48983750Y-84366419D01*
X48980073Y-84403751D01*
X48994747Y-84552736D01*
X49038203Y-84695997D01*
X49108775Y-84828027D01*
X49174214Y-84907764D01*
X49203749Y-84943752D01*
X49232747Y-84967550D01*
X50055236Y-85790040D01*
X33154840Y-85790040D01*
X32146621Y-84781822D01*
X32618750Y-84781822D01*
X32743232Y-84769562D01*
X32862930Y-84733252D01*
X32973244Y-84674287D01*
X33069935Y-84594935D01*
X33149287Y-84498244D01*
X33208252Y-84387930D01*
X33244562Y-84268232D01*
X33256822Y-84143750D01*
X33256822Y-82543750D01*
X33244562Y-82419268D01*
X33208252Y-82299570D01*
X33149287Y-82189256D01*
X33069935Y-82092565D01*
X32973244Y-82013213D01*
X32862930Y-81954248D01*
X32743232Y-81917938D01*
X32618750Y-81905678D01*
X32146621Y-81905678D01*
X33735987Y-80316313D01*
X34042924Y-80623250D01*
X34473499Y-80910951D01*
X34951928Y-81109123D01*
X35459826Y-81210150D01*
X35977674Y-81210150D01*
X36485572Y-81109123D01*
X36964001Y-80910951D01*
X37394576Y-80623250D01*
X37760750Y-80257076D01*
X38048451Y-79826501D01*
X38246623Y-79348072D01*
X38347650Y-78840174D01*
X38347650Y-78322326D01*
X38246623Y-77814428D01*
X38048451Y-77335999D01*
X37760750Y-76905424D01*
X37394576Y-76539250D01*
X36964001Y-76251549D01*
X36485572Y-76053377D01*
X35977674Y-75952350D01*
X35459826Y-75952350D01*
X34951928Y-76053377D01*
X34473499Y-76251549D01*
X34063734Y-76525345D01*
X34063734Y-76338557D01*
X34067410Y-76301234D01*
X34063734Y-76263911D01*
X34063734Y-76263901D01*
X34052737Y-76152248D01*
X34035128Y-76094197D01*
X34412025Y-75415653D01*
X34522650Y-75160320D01*
X34600959Y-74797359D01*
X34606953Y-74426094D01*
X34540402Y-74060795D01*
X34534060Y-74044755D01*
X36332094Y-74044755D01*
X36340471Y-74322895D01*
X36423840Y-74684727D01*
X36576198Y-75023342D01*
X36791689Y-75325727D01*
X37062031Y-75580261D01*
X37376837Y-75777165D01*
X37724007Y-75908868D01*
X38090200Y-75970311D01*
X38461343Y-75959133D01*
X38823175Y-75875764D01*
X38858751Y-75859757D01*
X38858750Y-82125706D01*
X38703991Y-82229113D01*
X38504113Y-82428991D01*
X38347070Y-82664023D01*
X38238897Y-82925176D01*
X38183750Y-83202415D01*
X38183750Y-83485085D01*
X38238897Y-83762324D01*
X38347070Y-84023477D01*
X38504113Y-84258509D01*
X38703991Y-84458387D01*
X38939023Y-84615430D01*
X39200176Y-84723603D01*
X39477415Y-84778750D01*
X39760085Y-84778750D01*
X40037324Y-84723603D01*
X40298477Y-84615430D01*
X40533509Y-84458387D01*
X40733387Y-84258509D01*
X40890430Y-84023477D01*
X40998603Y-83762324D01*
X41053750Y-83485085D01*
X41053750Y-83202415D01*
X40998603Y-82925176D01*
X40890430Y-82664023D01*
X40733387Y-82428991D01*
X40533509Y-82229113D01*
X40378750Y-82125707D01*
X40378750Y-80012718D01*
X40652402Y-80067150D01*
X40945098Y-80067150D01*
X41232171Y-80010048D01*
X41502588Y-79898038D01*
X41745956Y-79735424D01*
X41952924Y-79528456D01*
X42115538Y-79285088D01*
X42227548Y-79014671D01*
X42284650Y-78727598D01*
X42284650Y-78434902D01*
X42227548Y-78147829D01*
X42115538Y-77877412D01*
X41952924Y-77634044D01*
X41745956Y-77427076D01*
X41502588Y-77264462D01*
X41232171Y-77152452D01*
X40945098Y-77095350D01*
X40652402Y-77095350D01*
X40378750Y-77149782D01*
X40378750Y-75208575D01*
X40382426Y-75171250D01*
X40378750Y-75133925D01*
X40378750Y-75133917D01*
X40367753Y-75022264D01*
X40324296Y-74879003D01*
X40253724Y-74746974D01*
X40158751Y-74631249D01*
X40129753Y-74607451D01*
X40054584Y-74532282D01*
X40093363Y-74301166D01*
X40145406Y-73537746D01*
X40137029Y-73259605D01*
X40053660Y-72897773D01*
X39901302Y-72559158D01*
X39685811Y-72256773D01*
X39415469Y-72002239D01*
X39100663Y-71805336D01*
X38753493Y-71673632D01*
X38387300Y-71612189D01*
X38016157Y-71623367D01*
X37654325Y-71706736D01*
X37315710Y-71859094D01*
X37013325Y-72074585D01*
X36758791Y-72344927D01*
X36561887Y-72659733D01*
X36430184Y-73006903D01*
X36384137Y-73281334D01*
X36332094Y-74044755D01*
X34534060Y-74044755D01*
X34403864Y-73715498D01*
X34202584Y-73403472D01*
X33944299Y-73136711D01*
X33638935Y-72925464D01*
X33298226Y-72777849D01*
X32935265Y-72699540D01*
X32783572Y-72697091D01*
X31453749Y-71367270D01*
X31453749Y-65731822D01*
X32618750Y-65731822D01*
X32743232Y-65719562D01*
X32862930Y-65683252D01*
X32973244Y-65624287D01*
X33069935Y-65544935D01*
X33149287Y-65448244D01*
X33208252Y-65337930D01*
X33244562Y-65218232D01*
X33256822Y-65093750D01*
X33256822Y-63493750D01*
X33244562Y-63369268D01*
X33208252Y-63249570D01*
X33149287Y-63139256D01*
X33069935Y-63042565D01*
X32973244Y-62963213D01*
X32862930Y-62904248D01*
X32743232Y-62867938D01*
X32618750Y-62855678D01*
X31453749Y-62855678D01*
X31453749Y-61531386D01*
X32824759Y-60160378D01*
X32853751Y-60136585D01*
X32877545Y-60107592D01*
X32877549Y-60107588D01*
X32948723Y-60020861D01*
X32948724Y-60020860D01*
X33019296Y-59888831D01*
X33062753Y-59745570D01*
X33073750Y-59633917D01*
X33073750Y-59633908D01*
X33077426Y-59596585D01*
X33073750Y-59559262D01*
X33073750Y-59272326D01*
X33089850Y-59272326D01*
X33089850Y-59790174D01*
X33190877Y-60298072D01*
X33389049Y-60776501D01*
X33676750Y-61207076D01*
X34042924Y-61573250D01*
X34473499Y-61860951D01*
X34951928Y-62059123D01*
X35459826Y-62160150D01*
X35977674Y-62160150D01*
X36485572Y-62059123D01*
X36964001Y-61860951D01*
X37394576Y-61573250D01*
X37760750Y-61207076D01*
X38048451Y-60776501D01*
X38246623Y-60298072D01*
X38347650Y-59790174D01*
X38347650Y-59272326D01*
X38246623Y-58764428D01*
X38048451Y-58285999D01*
X37760750Y-57855424D01*
X37394576Y-57489250D01*
X36964001Y-57201549D01*
X36485572Y-57003377D01*
X35977674Y-56902350D01*
X35459826Y-56902350D01*
X34951928Y-57003377D01*
X34473499Y-57201549D01*
X34042924Y-57489250D01*
X33676750Y-57855424D01*
X33389049Y-58285999D01*
X33190877Y-58764428D01*
X33089850Y-59272326D01*
X33073750Y-59272326D01*
X33073750Y-58482565D01*
X33086121Y-58474585D01*
X33352882Y-58216300D01*
X33511194Y-57987456D01*
X34412025Y-56365653D01*
X34522650Y-56110320D01*
X34600959Y-55747359D01*
X34606953Y-55376094D01*
X34540402Y-55010795D01*
X34534060Y-54994755D01*
X36332094Y-54994755D01*
X36340471Y-55272895D01*
X36423840Y-55634727D01*
X36576198Y-55973342D01*
X36791689Y-56275727D01*
X37062031Y-56530261D01*
X37376837Y-56727165D01*
X37724007Y-56858868D01*
X38090200Y-56920311D01*
X38461343Y-56909133D01*
X38823175Y-56825764D01*
X38858751Y-56809757D01*
X38858750Y-63075706D01*
X38703991Y-63179113D01*
X38504113Y-63378991D01*
X38347070Y-63614023D01*
X38238897Y-63875176D01*
X38183750Y-64152415D01*
X38183750Y-64435085D01*
X38238897Y-64712324D01*
X38347070Y-64973477D01*
X38504113Y-65208509D01*
X38703991Y-65408387D01*
X38939023Y-65565430D01*
X39200176Y-65673603D01*
X39477415Y-65728750D01*
X39760085Y-65728750D01*
X40037324Y-65673603D01*
X40298477Y-65565430D01*
X40533509Y-65408387D01*
X40733387Y-65208509D01*
X40890430Y-64973477D01*
X40998603Y-64712324D01*
X41053750Y-64435085D01*
X41053750Y-64152415D01*
X40998603Y-63875176D01*
X40890430Y-63614023D01*
X40733387Y-63378991D01*
X40533509Y-63179113D01*
X40378750Y-63075707D01*
X40378750Y-60962718D01*
X40652402Y-61017150D01*
X40945098Y-61017150D01*
X41232171Y-60960048D01*
X41502588Y-60848038D01*
X41745956Y-60685424D01*
X41952924Y-60478456D01*
X42115538Y-60235088D01*
X42227548Y-59964671D01*
X42284650Y-59677598D01*
X42284650Y-59384902D01*
X42227548Y-59097829D01*
X42115538Y-58827412D01*
X41952924Y-58584044D01*
X41745956Y-58377076D01*
X41502588Y-58214462D01*
X41232171Y-58102452D01*
X40945098Y-58045350D01*
X40652402Y-58045350D01*
X40378750Y-58099782D01*
X40378750Y-56158575D01*
X40382426Y-56121250D01*
X40378750Y-56083925D01*
X40378750Y-56083917D01*
X40367753Y-55972264D01*
X40324296Y-55829003D01*
X40253724Y-55696974D01*
X40158751Y-55581249D01*
X40129753Y-55557451D01*
X40054584Y-55482282D01*
X40093363Y-55251166D01*
X40145406Y-54487746D01*
X40137029Y-54209605D01*
X40053660Y-53847773D01*
X39901302Y-53509158D01*
X39685811Y-53206773D01*
X39415469Y-52952239D01*
X39100663Y-52755336D01*
X38753493Y-52623632D01*
X38387300Y-52562189D01*
X38016157Y-52573367D01*
X37654325Y-52656736D01*
X37315710Y-52809094D01*
X37013325Y-53024585D01*
X36758791Y-53294927D01*
X36561887Y-53609733D01*
X36430184Y-53956903D01*
X36384137Y-54231334D01*
X36332094Y-54994755D01*
X34534060Y-54994755D01*
X34403864Y-54665498D01*
X34202584Y-54353472D01*
X33944299Y-54086711D01*
X33638935Y-53875464D01*
X33298226Y-53727849D01*
X32935265Y-53649540D01*
X32564000Y-53643546D01*
X32198701Y-53710097D01*
X31853405Y-53846635D01*
X31541379Y-54047915D01*
X31274618Y-54306200D01*
X31116306Y-54535044D01*
X30215475Y-56156848D01*
X30104850Y-56412181D01*
X30026541Y-56775142D01*
X30020547Y-57146406D01*
X30087098Y-57511705D01*
X30223636Y-57857002D01*
X30361882Y-58071312D01*
X30205329Y-58102452D01*
X29934912Y-58214462D01*
X29691544Y-58377076D01*
X29484576Y-58584044D01*
X29321962Y-58827412D01*
X29209952Y-59097829D01*
X29152850Y-59384902D01*
X26320772Y-59384902D01*
X26320772Y-51701268D01*
X26331675Y-51756081D01*
X26462463Y-52071831D01*
X26652337Y-52355998D01*
X26894002Y-52597663D01*
X27178169Y-52787537D01*
X27493919Y-52918325D01*
X27829117Y-52985000D01*
X28170883Y-52985000D01*
X28506081Y-52918325D01*
X28821831Y-52787537D01*
X29105998Y-52597663D01*
X29207911Y-52495750D01*
X59258750Y-52495750D01*
X59258750Y-53745750D01*
X59310139Y-54013510D01*
X59412778Y-54266099D01*
X59562722Y-54493811D01*
X59754210Y-54687895D01*
X59979882Y-54840892D01*
X60231066Y-54946923D01*
X60302565Y-54961068D01*
X60516750Y-54838406D01*
X60516750Y-52495750D01*
X60770750Y-52495750D01*
X60770750Y-54838406D01*
X60984935Y-54961068D01*
X61056434Y-54946923D01*
X61307618Y-54840892D01*
X61533290Y-54687895D01*
X61724778Y-54493811D01*
X61874722Y-54266099D01*
X61977361Y-54013510D01*
X62028750Y-53745750D01*
X62028750Y-52495750D01*
X66558750Y-52495750D01*
X66558750Y-53745750D01*
X66610139Y-54013510D01*
X66712778Y-54266099D01*
X66862722Y-54493811D01*
X67054210Y-54687895D01*
X67279882Y-54840892D01*
X67531066Y-54946923D01*
X67602565Y-54961068D01*
X67816750Y-54838406D01*
X67816750Y-52495750D01*
X68070750Y-52495750D01*
X68070750Y-54838406D01*
X68284935Y-54961068D01*
X68356434Y-54946923D01*
X68607618Y-54840892D01*
X68833290Y-54687895D01*
X69024778Y-54493811D01*
X69174722Y-54266099D01*
X69277361Y-54013510D01*
X69328750Y-53745750D01*
X69328750Y-52495750D01*
X68070750Y-52495750D01*
X67816750Y-52495750D01*
X66558750Y-52495750D01*
X62028750Y-52495750D01*
X60770750Y-52495750D01*
X60516750Y-52495750D01*
X59258750Y-52495750D01*
X29207911Y-52495750D01*
X29347663Y-52355998D01*
X29537537Y-52071831D01*
X29668325Y-51756081D01*
X29735000Y-51420883D01*
X29735000Y-51079117D01*
X29717622Y-50991750D01*
X59258750Y-50991750D01*
X59258750Y-52241750D01*
X60516750Y-52241750D01*
X60516750Y-49899094D01*
X60770750Y-49899094D01*
X60770750Y-52241750D01*
X62028750Y-52241750D01*
X62028750Y-50991750D01*
X66558750Y-50991750D01*
X66558750Y-52241750D01*
X67816750Y-52241750D01*
X67816750Y-49899094D01*
X68070750Y-49899094D01*
X68070750Y-52241750D01*
X69328750Y-52241750D01*
X69328750Y-50991750D01*
X69277361Y-50723990D01*
X69174722Y-50471401D01*
X69024778Y-50243689D01*
X68833290Y-50049605D01*
X68607618Y-49896608D01*
X68356434Y-49790577D01*
X68284935Y-49776432D01*
X68070750Y-49899094D01*
X67816750Y-49899094D01*
X67602565Y-49776432D01*
X67531066Y-49790577D01*
X67279882Y-49896608D01*
X67054210Y-50049605D01*
X66862722Y-50243689D01*
X66712778Y-50471401D01*
X66610139Y-50723990D01*
X66558750Y-50991750D01*
X62028750Y-50991750D01*
X61977361Y-50723990D01*
X61874722Y-50471401D01*
X61724778Y-50243689D01*
X61533290Y-50049605D01*
X61307618Y-49896608D01*
X61056434Y-49790577D01*
X60984935Y-49776432D01*
X60770750Y-49899094D01*
X60516750Y-49899094D01*
X60302565Y-49776432D01*
X60231066Y-49790577D01*
X59979882Y-49896608D01*
X59754210Y-50049605D01*
X59562722Y-50243689D01*
X59412778Y-50471401D01*
X59310139Y-50723990D01*
X59258750Y-50991750D01*
X29717622Y-50991750D01*
X29668325Y-50743919D01*
X29537537Y-50428169D01*
X29347663Y-50144002D01*
X29105998Y-49902337D01*
X28821831Y-49712463D01*
X28506081Y-49581675D01*
X28286406Y-49537979D01*
X123463594Y-49537979D01*
X123243919Y-49581675D01*
X123243919Y-49581675D01*
G37*
X123243919Y-49581675D02*
X122928169Y-49712463D01*
X122644002Y-49902337D01*
X122402337Y-50144002D01*
X122212463Y-50428169D01*
X122081675Y-50743919D01*
X122015000Y-51079117D01*
X122015000Y-51420883D01*
X122081675Y-51756081D01*
X122212463Y-52071831D01*
X122402337Y-52355998D01*
X122644002Y-52597663D01*
X122928169Y-52787537D01*
X123243919Y-52918325D01*
X123579117Y-52985000D01*
X123920883Y-52985000D01*
X124256081Y-52918325D01*
X124571831Y-52787537D01*
X124855998Y-52597663D01*
X125097663Y-52355998D01*
X125287537Y-52071831D01*
X125418325Y-51756081D01*
X125484043Y-51425694D01*
X125484043Y-86074306D01*
X125418325Y-85743919D01*
X125287537Y-85428169D01*
X125097663Y-85144002D01*
X124855998Y-84902337D01*
X124571831Y-84712463D01*
X124256081Y-84581675D01*
X123920883Y-84515000D01*
X123579117Y-84515000D01*
X123243919Y-84581675D01*
X122928169Y-84712463D01*
X122644002Y-84902337D01*
X122402337Y-85144002D01*
X122212463Y-85428169D01*
X122081675Y-85743919D01*
X122015000Y-86079117D01*
X122015000Y-86420883D01*
X122081675Y-86756081D01*
X122212463Y-87071831D01*
X122402337Y-87355998D01*
X122644002Y-87597663D01*
X122928169Y-87787537D01*
X123243919Y-87918325D01*
X123550582Y-87979324D01*
X28199418Y-87979324D01*
X28506081Y-87918325D01*
X28821831Y-87787537D01*
X29105998Y-87597663D01*
X29347663Y-87355998D01*
X29537537Y-87071831D01*
X29668325Y-86756081D01*
X29735000Y-86420883D01*
X29735000Y-86079117D01*
X29668325Y-85743919D01*
X29537537Y-85428169D01*
X29347663Y-85144002D01*
X29105998Y-84902337D01*
X28821831Y-84712463D01*
X28506081Y-84581675D01*
X28170883Y-84515000D01*
X27829117Y-84515000D01*
X27493919Y-84581675D01*
X27178169Y-84712463D01*
X26894002Y-84902337D01*
X26652337Y-85144002D01*
X26462463Y-85428169D01*
X26331675Y-85743919D01*
X26320772Y-85798732D01*
X26320772Y-59384902D01*
X29152850Y-59384902D01*
X29152850Y-59677598D01*
X29209952Y-59964671D01*
X29321962Y-60235088D01*
X29484576Y-60478456D01*
X29691544Y-60685424D01*
X29934912Y-60848038D01*
X30011934Y-60879941D01*
X29988203Y-60924339D01*
X29944747Y-61067600D01*
X29930073Y-61216585D01*
X29933750Y-61253917D01*
X29933749Y-71644749D01*
X29930073Y-71682071D01*
X29933749Y-71719393D01*
X29933749Y-71719403D01*
X29944746Y-71831056D01*
X29961102Y-71884974D01*
X29988203Y-71974317D01*
X30058775Y-72106347D01*
X30098620Y-72154897D01*
X30153748Y-72222072D01*
X30182751Y-72245874D01*
X31283996Y-73347120D01*
X31274618Y-73356200D01*
X31116306Y-73585044D01*
X30215475Y-75206848D01*
X30104850Y-75462181D01*
X30026541Y-75825142D01*
X30020547Y-76196406D01*
X30087098Y-76561705D01*
X30223636Y-76907002D01*
X30361882Y-77121312D01*
X30205329Y-77152452D01*
X29934912Y-77264462D01*
X29691544Y-77427076D01*
X29484576Y-77634044D01*
X29321962Y-77877412D01*
X29209952Y-78147829D01*
X29152850Y-78434902D01*
X29152850Y-78727598D01*
X29209952Y-79014671D01*
X29321962Y-79285088D01*
X29484576Y-79528456D01*
X29691544Y-79735424D01*
X29934912Y-79898038D01*
X30205329Y-80010048D01*
X30492402Y-80067150D01*
X30785098Y-80067150D01*
X31072171Y-80010048D01*
X31342588Y-79898038D01*
X31585956Y-79735424D01*
X31792924Y-79528456D01*
X31955538Y-79285088D01*
X32067548Y-79014671D01*
X32124650Y-78727598D01*
X32124650Y-78434902D01*
X32067548Y-78147829D01*
X31976304Y-77927546D01*
X32063499Y-77928954D01*
X32428798Y-77862403D01*
X32543734Y-77816955D01*
X32543735Y-79358961D01*
X30182752Y-81719945D01*
X30153748Y-81743748D01*
X30098620Y-81810923D01*
X30058775Y-81859473D01*
X30002959Y-81963897D01*
X29988203Y-81991503D01*
X29944746Y-82134764D01*
X29933749Y-82246417D01*
X29933749Y-82246427D01*
X29930073Y-82283749D01*
X29933749Y-82321072D01*
X29933750Y-84366419D01*
X29930073Y-84403751D01*
X29944747Y-84552736D01*
X29988203Y-84695997D01*
X30058775Y-84828027D01*
X30124214Y-84907764D01*
X30153749Y-84943752D01*
X30182747Y-84967550D01*
X32276239Y-87061043D01*
X32300037Y-87090041D01*
X32329035Y-87113839D01*
X32415761Y-87185014D01*
X32502290Y-87231265D01*
X32547791Y-87255586D01*
X32691052Y-87299043D01*
X32802705Y-87310040D01*
X32802715Y-87310040D01*
X32840037Y-87313716D01*
X32877360Y-87310040D01*
X110488556Y-87310040D01*
X110525878Y-87313716D01*
X110563200Y-87310040D01*
X110563211Y-87310040D01*
X110674864Y-87299043D01*
X110818125Y-87255586D01*
X110950154Y-87185014D01*
X111065879Y-87090041D01*
X111089682Y-87061037D01*
X114327761Y-83822959D01*
X114389898Y-83822959D01*
X114589857Y-83783185D01*
X114778215Y-83705164D01*
X114947733Y-83591896D01*
X115091896Y-83447733D01*
X115205164Y-83278215D01*
X115283185Y-83089857D01*
X115322959Y-82889898D01*
X115322959Y-82686020D01*
X115283185Y-82486061D01*
X115205164Y-82297703D01*
X115091896Y-82128185D01*
X115044562Y-82080851D01*
X115190108Y-81935306D01*
X115252245Y-81935306D01*
X115452204Y-81895532D01*
X115640562Y-81817511D01*
X115810080Y-81704243D01*
X115954243Y-81560080D01*
X116067511Y-81390562D01*
X116145532Y-81202204D01*
X116185306Y-81002245D01*
X116185306Y-80798367D01*
X116145532Y-80598408D01*
X116067511Y-80410050D01*
X115954243Y-80240532D01*
X115906909Y-80193198D01*
X115927455Y-80172653D01*
X115989592Y-80172653D01*
X116189551Y-80132879D01*
X116377909Y-80054858D01*
X116547427Y-79941590D01*
X116691590Y-79797427D01*
X116804858Y-79627909D01*
X116882879Y-79439551D01*
X116922653Y-79239592D01*
X116922653Y-79035714D01*
X116882879Y-78835755D01*
X116880979Y-78831167D01*
X117009744Y-78917205D01*
X117198102Y-78995226D01*
X117398061Y-79035000D01*
X117601939Y-79035000D01*
X117801898Y-78995226D01*
X117990256Y-78917205D01*
X118159774Y-78803937D01*
X118303937Y-78659774D01*
X118417205Y-78490256D01*
X118495226Y-78301898D01*
X118535000Y-78101939D01*
X118535000Y-77898061D01*
X118495226Y-77698102D01*
X118417205Y-77509744D01*
X118303937Y-77340226D01*
X118260000Y-77296289D01*
X118260000Y-71287325D01*
X118263676Y-71250000D01*
X118260000Y-71212675D01*
X118260000Y-71212667D01*
X118249003Y-71101014D01*
X118205546Y-70957753D01*
X118134974Y-70825724D01*
X118040001Y-70709999D01*
X118011003Y-70686201D01*
X112285000Y-64960199D01*
X112285000Y-64898061D01*
X112245226Y-64698102D01*
X112167205Y-64509744D01*
X112053937Y-64340226D01*
X111909774Y-64196063D01*
X111740256Y-64082795D01*
X111551898Y-64004774D01*
X111351939Y-63965000D01*
X111148061Y-63965000D01*
X110948102Y-64004774D01*
X110759744Y-64082795D01*
X110590226Y-64196063D01*
X110446063Y-64340226D01*
X110332795Y-64509744D01*
X110254774Y-64698102D01*
X110215000Y-64898061D01*
X110215000Y-65101939D01*
X110254774Y-65301898D01*
X110332795Y-65490256D01*
X110446063Y-65659774D01*
X110590226Y-65803937D01*
X110759744Y-65917205D01*
X110948102Y-65995226D01*
X111148061Y-66035000D01*
X111210199Y-66035000D01*
X116740001Y-71564803D01*
X116740000Y-76215000D01*
X116648061Y-76215000D01*
X116448102Y-76254774D01*
X116259744Y-76332795D01*
X116090226Y-76446063D01*
X115946063Y-76590226D01*
X115832795Y-76759744D01*
X115754774Y-76948102D01*
X115715000Y-77148061D01*
X115715000Y-77210198D01*
X108485189Y-84440010D01*
X98412293Y-84440010D01*
X105367304Y-77485000D01*
X108503397Y-77485000D01*
X108547334Y-77528937D01*
X108716852Y-77642205D01*
X108905210Y-77720226D01*
X109105169Y-77760000D01*
X109309047Y-77760000D01*
X109509006Y-77720226D01*
X109697364Y-77642205D01*
X109866882Y-77528937D01*
X110011045Y-77384774D01*
X110124313Y-77215256D01*
X110202334Y-77026898D01*
X110242108Y-76826939D01*
X110242108Y-76623061D01*
X110202334Y-76423102D01*
X110124313Y-76234744D01*
X110011045Y-76065226D01*
X109866882Y-75921063D01*
X109697364Y-75807795D01*
X109509006Y-75729774D01*
X109501218Y-75728225D01*
X109495226Y-75698102D01*
X109417205Y-75509744D01*
X109303937Y-75340226D01*
X109159774Y-75196063D01*
X108990256Y-75082795D01*
X108801898Y-75004774D01*
X108601939Y-74965000D01*
X108398061Y-74965000D01*
X108198102Y-75004774D01*
X108009744Y-75082795D01*
X107840226Y-75196063D01*
X107796289Y-75240000D01*
X102039802Y-75240000D01*
X90582554Y-63782753D01*
X90558751Y-63753749D01*
X90443026Y-63658776D01*
X90406822Y-63639424D01*
X90406822Y-63493750D01*
X90394562Y-63369268D01*
X90358252Y-63249570D01*
X90299287Y-63139256D01*
X90219935Y-63042565D01*
X90123244Y-62963213D01*
X90012930Y-62904248D01*
X89893232Y-62867938D01*
X89768750Y-62855678D01*
X88510000Y-62855678D01*
X88510000Y-61625135D01*
X89974759Y-60160378D01*
X90003751Y-60136585D01*
X90027545Y-60107592D01*
X90027549Y-60107588D01*
X90098723Y-60020861D01*
X90098724Y-60020860D01*
X90169296Y-59888831D01*
X90212753Y-59745570D01*
X90223750Y-59633917D01*
X90223750Y-59633908D01*
X90227426Y-59596585D01*
X90223750Y-59559262D01*
X90223750Y-59272326D01*
X90239850Y-59272326D01*
X90239850Y-59790174D01*
X90340877Y-60298072D01*
X90539049Y-60776501D01*
X90826750Y-61207076D01*
X91192924Y-61573250D01*
X91623499Y-61860951D01*
X92101928Y-62059123D01*
X92609826Y-62160150D01*
X93127674Y-62160150D01*
X93635572Y-62059123D01*
X94114001Y-61860951D01*
X94544576Y-61573250D01*
X94910750Y-61207076D01*
X95198451Y-60776501D01*
X95396623Y-60298072D01*
X95497650Y-59790174D01*
X95497650Y-59272326D01*
X95396623Y-58764428D01*
X95198451Y-58285999D01*
X94910750Y-57855424D01*
X94544576Y-57489250D01*
X94114001Y-57201549D01*
X93635572Y-57003377D01*
X93127674Y-56902350D01*
X92609826Y-56902350D01*
X92101928Y-57003377D01*
X91623499Y-57201549D01*
X91192924Y-57489250D01*
X90826750Y-57855424D01*
X90539049Y-58285999D01*
X90340877Y-58764428D01*
X90239850Y-59272326D01*
X90223750Y-59272326D01*
X90223750Y-58482565D01*
X90236121Y-58474585D01*
X90502882Y-58216300D01*
X90661194Y-57987456D01*
X91562025Y-56365653D01*
X91672650Y-56110320D01*
X91750959Y-55747359D01*
X91756953Y-55376094D01*
X91690402Y-55010795D01*
X91684060Y-54994755D01*
X93482094Y-54994755D01*
X93490471Y-55272895D01*
X93573840Y-55634727D01*
X93726198Y-55973342D01*
X93941689Y-56275727D01*
X94212031Y-56530261D01*
X94526837Y-56727165D01*
X94874007Y-56858868D01*
X95240200Y-56920311D01*
X95611343Y-56909133D01*
X95973175Y-56825764D01*
X96008751Y-56809757D01*
X96008750Y-63075706D01*
X95853991Y-63179113D01*
X95654113Y-63378991D01*
X95497070Y-63614023D01*
X95388897Y-63875176D01*
X95333750Y-64152415D01*
X95333750Y-64435085D01*
X95388897Y-64712324D01*
X95497070Y-64973477D01*
X95654113Y-65208509D01*
X95853991Y-65408387D01*
X96089023Y-65565430D01*
X96350176Y-65673603D01*
X96627415Y-65728750D01*
X96910085Y-65728750D01*
X97187324Y-65673603D01*
X97448477Y-65565430D01*
X97683509Y-65408387D01*
X97883387Y-65208509D01*
X98040430Y-64973477D01*
X98148603Y-64712324D01*
X98203750Y-64435085D01*
X98203750Y-64152415D01*
X98148603Y-63875176D01*
X98040430Y-63614023D01*
X97883387Y-63378991D01*
X97683509Y-63179113D01*
X97528750Y-63075707D01*
X97528750Y-60962718D01*
X97802402Y-61017150D01*
X98095098Y-61017150D01*
X98382171Y-60960048D01*
X98652588Y-60848038D01*
X98895956Y-60685424D01*
X99102924Y-60478456D01*
X99265538Y-60235088D01*
X99377548Y-59964671D01*
X99434650Y-59677598D01*
X99434650Y-59384902D01*
X99377548Y-59097829D01*
X99265538Y-58827412D01*
X99102924Y-58584044D01*
X98895956Y-58377076D01*
X98652588Y-58214462D01*
X98382171Y-58102452D01*
X98095098Y-58045350D01*
X97802402Y-58045350D01*
X97528750Y-58099782D01*
X97528750Y-57148061D01*
X105215000Y-57148061D01*
X105215000Y-57351939D01*
X105254774Y-57551898D01*
X105332795Y-57740256D01*
X105446063Y-57909774D01*
X105490000Y-57953711D01*
X105490001Y-62212658D01*
X105490000Y-62212668D01*
X105490001Y-65212658D01*
X105490000Y-65212668D01*
X105490001Y-69462658D01*
X105490000Y-69462668D01*
X105490000Y-69781943D01*
X105466525Y-69805418D01*
X105353257Y-69974936D01*
X105275236Y-70163294D01*
X105235462Y-70363253D01*
X105235462Y-70567131D01*
X105275236Y-70767090D01*
X105353257Y-70955448D01*
X105466525Y-71124966D01*
X105610688Y-71269129D01*
X105780206Y-71382397D01*
X105968564Y-71460418D01*
X106168523Y-71500192D01*
X106372401Y-71500192D01*
X106572360Y-71460418D01*
X106760718Y-71382397D01*
X106930236Y-71269129D01*
X107074399Y-71124966D01*
X107187667Y-70955448D01*
X107258200Y-70785168D01*
X107301898Y-70776476D01*
X107490256Y-70698455D01*
X107659774Y-70585187D01*
X107803937Y-70441024D01*
X107917205Y-70271506D01*
X107995226Y-70083148D01*
X108035000Y-69883189D01*
X108035000Y-69679311D01*
X107995226Y-69479352D01*
X107917205Y-69290994D01*
X107803937Y-69121476D01*
X107760000Y-69077539D01*
X107760000Y-56953711D01*
X107803937Y-56909774D01*
X107917205Y-56740256D01*
X107995226Y-56551898D01*
X108035000Y-56351939D01*
X108035000Y-56148061D01*
X107995226Y-55948102D01*
X107917205Y-55759744D01*
X107803937Y-55590226D01*
X107659774Y-55446063D01*
X107490256Y-55332795D01*
X107301898Y-55254774D01*
X107101939Y-55215000D01*
X106898061Y-55215000D01*
X106698102Y-55254774D01*
X106509744Y-55332795D01*
X106340226Y-55446063D01*
X106196063Y-55590226D01*
X106082795Y-55759744D01*
X106004774Y-55948102D01*
X105965000Y-56148061D01*
X105965000Y-56251413D01*
X105948102Y-56254774D01*
X105759744Y-56332795D01*
X105590226Y-56446063D01*
X105446063Y-56590226D01*
X105332795Y-56759744D01*
X105254774Y-56948102D01*
X105215000Y-57148061D01*
X97528750Y-57148061D01*
X97528750Y-56158575D01*
X97532426Y-56121250D01*
X97528750Y-56083925D01*
X97528750Y-56083917D01*
X97517753Y-55972264D01*
X97474296Y-55829003D01*
X97403724Y-55696974D01*
X97308751Y-55581249D01*
X97279753Y-55557451D01*
X97204584Y-55482282D01*
X97243363Y-55251166D01*
X97267434Y-54898061D01*
X100465000Y-54898061D01*
X100465000Y-55101939D01*
X100504774Y-55301898D01*
X100582795Y-55490256D01*
X100696063Y-55659774D01*
X100840226Y-55803937D01*
X101009744Y-55917205D01*
X101198102Y-55995226D01*
X101398061Y-56035000D01*
X101601939Y-56035000D01*
X101801898Y-55995226D01*
X101990256Y-55917205D01*
X102159774Y-55803937D01*
X102303937Y-55659774D01*
X102417205Y-55490256D01*
X102495226Y-55301898D01*
X102535000Y-55101939D01*
X102535000Y-55039801D01*
X103814802Y-53760000D01*
X107796289Y-53760000D01*
X107840226Y-53803937D01*
X108009744Y-53917205D01*
X108198102Y-53995226D01*
X108398061Y-54035000D01*
X108601939Y-54035000D01*
X108801898Y-53995226D01*
X108990256Y-53917205D01*
X109159774Y-53803937D01*
X109303937Y-53659774D01*
X109417205Y-53490256D01*
X109495226Y-53301898D01*
X109535000Y-53101939D01*
X109535000Y-52898061D01*
X109495226Y-52698102D01*
X109417205Y-52509744D01*
X109303937Y-52340226D01*
X109159774Y-52196063D01*
X108990256Y-52082795D01*
X108801898Y-52004774D01*
X108601939Y-51965000D01*
X108398061Y-51965000D01*
X108198102Y-52004774D01*
X108009744Y-52082795D01*
X107840226Y-52196063D01*
X107796289Y-52240000D01*
X103537322Y-52240000D01*
X103499999Y-52236324D01*
X103462676Y-52240000D01*
X103462667Y-52240000D01*
X103351014Y-52250997D01*
X103207753Y-52294454D01*
X103075723Y-52365026D01*
X102992083Y-52433668D01*
X102959999Y-52459999D01*
X102936201Y-52488997D01*
X101460199Y-53965000D01*
X101398061Y-53965000D01*
X101198102Y-54004774D01*
X101009744Y-54082795D01*
X100840226Y-54196063D01*
X100696063Y-54340226D01*
X100582795Y-54509744D01*
X100504774Y-54698102D01*
X100465000Y-54898061D01*
X97267434Y-54898061D01*
X97295406Y-54487746D01*
X97287029Y-54209605D01*
X97203660Y-53847773D01*
X97051302Y-53509158D01*
X96835811Y-53206773D01*
X96565469Y-52952239D01*
X96250663Y-52755336D01*
X95903493Y-52623632D01*
X95537300Y-52562189D01*
X95166157Y-52573367D01*
X94804325Y-52656736D01*
X94465710Y-52809094D01*
X94163325Y-53024585D01*
X93908791Y-53294927D01*
X93711887Y-53609733D01*
X93580184Y-53956903D01*
X93534137Y-54231334D01*
X93482094Y-54994755D01*
X91684060Y-54994755D01*
X91553864Y-54665498D01*
X91352584Y-54353472D01*
X91094299Y-54086711D01*
X90788935Y-53875464D01*
X90448226Y-53727849D01*
X90085265Y-53649540D01*
X89714000Y-53643546D01*
X89348701Y-53710097D01*
X89003405Y-53846635D01*
X88691379Y-54047915D01*
X88424618Y-54306200D01*
X88266306Y-54535044D01*
X87365475Y-56156848D01*
X87254850Y-56412181D01*
X87176541Y-56775142D01*
X87170547Y-57146406D01*
X87237098Y-57511705D01*
X87373636Y-57857002D01*
X87511882Y-58071312D01*
X87355329Y-58102452D01*
X87084912Y-58214462D01*
X86841544Y-58377076D01*
X86634576Y-58584044D01*
X86471962Y-58827412D01*
X86359952Y-59097829D01*
X86302850Y-59384902D01*
X86302850Y-59677598D01*
X86359952Y-59964671D01*
X86471962Y-60235088D01*
X86634576Y-60478456D01*
X86841544Y-60685424D01*
X87084912Y-60848038D01*
X87130673Y-60866993D01*
X87115026Y-60886058D01*
X87044454Y-61018088D01*
X87000998Y-61161349D01*
X86986324Y-61310334D01*
X86990001Y-61347666D01*
X86990000Y-73560178D01*
X86986324Y-73597500D01*
X86990000Y-73634822D01*
X86990000Y-73634832D01*
X87000997Y-73746485D01*
X87037212Y-73865871D01*
X87044454Y-73889746D01*
X87115026Y-74021776D01*
X87151113Y-74065748D01*
X87209999Y-74137501D01*
X87239002Y-74161303D01*
X87693675Y-74615976D01*
X87365475Y-75206848D01*
X87254850Y-75462181D01*
X87176541Y-75825142D01*
X87170547Y-76196406D01*
X87237098Y-76561705D01*
X87373636Y-76907002D01*
X87511882Y-77121312D01*
X87355329Y-77152452D01*
X87084912Y-77264462D01*
X86841544Y-77427076D01*
X86634576Y-77634044D01*
X86471962Y-77877412D01*
X86359952Y-78147829D01*
X86302850Y-78434902D01*
X86302850Y-78727598D01*
X86359952Y-79014671D01*
X86471962Y-79285088D01*
X86634576Y-79528456D01*
X86841544Y-79735424D01*
X87084912Y-79898038D01*
X87355329Y-80010048D01*
X87642402Y-80067150D01*
X87935098Y-80067150D01*
X88222171Y-80010048D01*
X88492588Y-79898038D01*
X88703751Y-79756943D01*
X88703751Y-80348944D01*
X87332751Y-81719946D01*
X87303748Y-81743748D01*
X87248620Y-81810923D01*
X87208775Y-81859473D01*
X87152959Y-81963897D01*
X87138203Y-81991503D01*
X87094746Y-82134764D01*
X87083749Y-82246417D01*
X87083749Y-82246427D01*
X87080073Y-82283749D01*
X87083749Y-82321072D01*
X87083750Y-84366419D01*
X87080073Y-84403751D01*
X87094747Y-84552736D01*
X87138203Y-84695997D01*
X87208775Y-84828027D01*
X87259652Y-84890020D01*
X70354820Y-84890020D01*
X70246622Y-84781822D01*
X70718750Y-84781822D01*
X70843232Y-84769562D01*
X70962930Y-84733252D01*
X71073244Y-84674287D01*
X71169935Y-84594935D01*
X71249287Y-84498244D01*
X71308252Y-84387930D01*
X71344562Y-84268232D01*
X71356822Y-84143750D01*
X71356822Y-82543750D01*
X71344562Y-82419268D01*
X71308252Y-82299570D01*
X71249287Y-82189256D01*
X71169935Y-82092565D01*
X71073244Y-82013213D01*
X70962930Y-81954248D01*
X70843232Y-81917938D01*
X70718750Y-81905678D01*
X70246622Y-81905678D01*
X70924758Y-81227543D01*
X70953751Y-81203749D01*
X70977545Y-81174756D01*
X70977549Y-81174752D01*
X71048723Y-81088025D01*
X71094574Y-81002245D01*
X71119296Y-80955995D01*
X71162753Y-80812734D01*
X71173750Y-80701081D01*
X71173750Y-80701072D01*
X71177426Y-80663749D01*
X71173750Y-80626426D01*
X71173750Y-78322326D01*
X71189850Y-78322326D01*
X71189850Y-78840174D01*
X71290877Y-79348072D01*
X71489049Y-79826501D01*
X71776750Y-80257076D01*
X72142924Y-80623250D01*
X72573499Y-80910951D01*
X73051928Y-81109123D01*
X73559826Y-81210150D01*
X74077674Y-81210150D01*
X74585572Y-81109123D01*
X75064001Y-80910951D01*
X75494576Y-80623250D01*
X75860750Y-80257076D01*
X76148451Y-79826501D01*
X76346623Y-79348072D01*
X76447650Y-78840174D01*
X76447650Y-78322326D01*
X76346623Y-77814428D01*
X76148451Y-77335999D01*
X75860750Y-76905424D01*
X75494576Y-76539250D01*
X75064001Y-76251549D01*
X74585572Y-76053377D01*
X74077674Y-75952350D01*
X73559826Y-75952350D01*
X73051928Y-76053377D01*
X72573499Y-76251549D01*
X72142924Y-76539250D01*
X71776750Y-76905424D01*
X71489049Y-77335999D01*
X71290877Y-77814428D01*
X71189850Y-78322326D01*
X71173750Y-78322326D01*
X71173750Y-77532565D01*
X71186121Y-77524585D01*
X71452882Y-77266300D01*
X71611194Y-77037456D01*
X72512025Y-75415653D01*
X72622650Y-75160320D01*
X72700959Y-74797359D01*
X72706953Y-74426094D01*
X72640402Y-74060795D01*
X72634060Y-74044755D01*
X74432094Y-74044755D01*
X74440471Y-74322895D01*
X74523840Y-74684727D01*
X74676198Y-75023342D01*
X74891689Y-75325727D01*
X75162031Y-75580261D01*
X75476837Y-75777165D01*
X75824007Y-75908868D01*
X76190200Y-75970311D01*
X76561343Y-75959133D01*
X76923175Y-75875764D01*
X76958751Y-75859757D01*
X76958750Y-82125706D01*
X76803991Y-82229113D01*
X76604113Y-82428991D01*
X76447070Y-82664023D01*
X76338897Y-82925176D01*
X76283750Y-83202415D01*
X76283750Y-83485085D01*
X76338897Y-83762324D01*
X76447070Y-84023477D01*
X76604113Y-84258509D01*
X76803991Y-84458387D01*
X77039023Y-84615430D01*
X77300176Y-84723603D01*
X77577415Y-84778750D01*
X77860085Y-84778750D01*
X78137324Y-84723603D01*
X78398477Y-84615430D01*
X78633509Y-84458387D01*
X78833387Y-84258509D01*
X78990430Y-84023477D01*
X79098603Y-83762324D01*
X79153750Y-83485085D01*
X79153750Y-83202415D01*
X79098603Y-82925176D01*
X78990430Y-82664023D01*
X78833387Y-82428991D01*
X78633509Y-82229113D01*
X78478750Y-82125707D01*
X78478750Y-80012718D01*
X78752402Y-80067150D01*
X79045098Y-80067150D01*
X79332171Y-80010048D01*
X79602588Y-79898038D01*
X79845956Y-79735424D01*
X80052924Y-79528456D01*
X80215538Y-79285088D01*
X80327548Y-79014671D01*
X80384650Y-78727598D01*
X80384650Y-78434902D01*
X80327548Y-78147829D01*
X80215538Y-77877412D01*
X80052924Y-77634044D01*
X79845956Y-77427076D01*
X79602588Y-77264462D01*
X79332171Y-77152452D01*
X79045098Y-77095350D01*
X78752402Y-77095350D01*
X78478750Y-77149782D01*
X78478750Y-75208575D01*
X78482426Y-75171250D01*
X78478750Y-75133925D01*
X78478750Y-75133917D01*
X78467753Y-75022264D01*
X78424296Y-74879003D01*
X78353724Y-74746974D01*
X78258751Y-74631249D01*
X78229753Y-74607451D01*
X78154584Y-74532282D01*
X78193363Y-74301166D01*
X78245406Y-73537746D01*
X78237029Y-73259605D01*
X78153660Y-72897773D01*
X78001302Y-72559158D01*
X77785811Y-72256773D01*
X77515469Y-72002239D01*
X77200663Y-71805336D01*
X76853493Y-71673632D01*
X76487300Y-71612189D01*
X76116157Y-71623367D01*
X75754325Y-71706736D01*
X75415710Y-71859094D01*
X75113325Y-72074585D01*
X74858791Y-72344927D01*
X74661887Y-72659733D01*
X74530184Y-73006903D01*
X74484137Y-73281334D01*
X74432094Y-74044755D01*
X72634060Y-74044755D01*
X72503864Y-73715498D01*
X72302584Y-73403472D01*
X72044299Y-73136711D01*
X71738935Y-72925464D01*
X71398226Y-72777849D01*
X71035265Y-72699540D01*
X70664000Y-72693546D01*
X70298701Y-72760097D01*
X69953405Y-72896635D01*
X69641379Y-73097915D01*
X69553749Y-73182761D01*
X69553749Y-65731822D01*
X70718750Y-65731822D01*
X70843232Y-65719562D01*
X70962930Y-65683252D01*
X71073244Y-65624287D01*
X71169935Y-65544935D01*
X71249287Y-65448244D01*
X71308252Y-65337930D01*
X71344562Y-65218232D01*
X71356822Y-65093750D01*
X71356822Y-63493750D01*
X71344562Y-63369268D01*
X71308252Y-63249570D01*
X71249287Y-63139256D01*
X71169935Y-63042565D01*
X71073244Y-62963213D01*
X70962930Y-62904248D01*
X70843232Y-62867938D01*
X70718750Y-62855678D01*
X69553749Y-62855678D01*
X69553749Y-61531386D01*
X70924759Y-60160378D01*
X70953751Y-60136585D01*
X70977545Y-60107592D01*
X70977549Y-60107588D01*
X71048723Y-60020861D01*
X71048724Y-60020860D01*
X71119296Y-59888831D01*
X71162753Y-59745570D01*
X71173750Y-59633917D01*
X71173750Y-59633908D01*
X71177426Y-59596585D01*
X71173750Y-59559262D01*
X71173750Y-59272326D01*
X71189850Y-59272326D01*
X71189850Y-59790174D01*
X71290877Y-60298072D01*
X71489049Y-60776501D01*
X71776750Y-61207076D01*
X72142924Y-61573250D01*
X72573499Y-61860951D01*
X73051928Y-62059123D01*
X73559826Y-62160150D01*
X74077674Y-62160150D01*
X74585572Y-62059123D01*
X75064001Y-61860951D01*
X75494576Y-61573250D01*
X75860750Y-61207076D01*
X76148451Y-60776501D01*
X76346623Y-60298072D01*
X76447650Y-59790174D01*
X76447650Y-59272326D01*
X76346623Y-58764428D01*
X76148451Y-58285999D01*
X75860750Y-57855424D01*
X75494576Y-57489250D01*
X75064001Y-57201549D01*
X74585572Y-57003377D01*
X74077674Y-56902350D01*
X73559826Y-56902350D01*
X73051928Y-57003377D01*
X72573499Y-57201549D01*
X72142924Y-57489250D01*
X71776750Y-57855424D01*
X71489049Y-58285999D01*
X71290877Y-58764428D01*
X71189850Y-59272326D01*
X71173750Y-59272326D01*
X71173750Y-58482565D01*
X71186121Y-58474585D01*
X71452882Y-58216300D01*
X71611194Y-57987456D01*
X72512025Y-56365653D01*
X72622650Y-56110320D01*
X72700959Y-55747359D01*
X72706953Y-55376094D01*
X72640402Y-55010795D01*
X72634060Y-54994755D01*
X74432094Y-54994755D01*
X74440471Y-55272895D01*
X74523840Y-55634727D01*
X74676198Y-55973342D01*
X74891689Y-56275727D01*
X75162031Y-56530261D01*
X75476837Y-56727165D01*
X75824007Y-56858868D01*
X76190200Y-56920311D01*
X76561343Y-56909133D01*
X76923175Y-56825764D01*
X76958751Y-56809757D01*
X76958750Y-63075706D01*
X76803991Y-63179113D01*
X76604113Y-63378991D01*
X76447070Y-63614023D01*
X76338897Y-63875176D01*
X76283750Y-64152415D01*
X76283750Y-64435085D01*
X76338897Y-64712324D01*
X76447070Y-64973477D01*
X76604113Y-65208509D01*
X76803991Y-65408387D01*
X77039023Y-65565430D01*
X77300176Y-65673603D01*
X77577415Y-65728750D01*
X77860085Y-65728750D01*
X78137324Y-65673603D01*
X78398477Y-65565430D01*
X78633509Y-65408387D01*
X78833387Y-65208509D01*
X78990430Y-64973477D01*
X79098603Y-64712324D01*
X79153750Y-64435085D01*
X79153750Y-64152415D01*
X79098603Y-63875176D01*
X78990430Y-63614023D01*
X78833387Y-63378991D01*
X78633509Y-63179113D01*
X78478750Y-63075707D01*
X78478750Y-60962718D01*
X78752402Y-61017150D01*
X79045098Y-61017150D01*
X79332171Y-60960048D01*
X79602588Y-60848038D01*
X79845956Y-60685424D01*
X80052924Y-60478456D01*
X80215538Y-60235088D01*
X80327548Y-59964671D01*
X80384650Y-59677598D01*
X80384650Y-59384902D01*
X80327548Y-59097829D01*
X80215538Y-58827412D01*
X80052924Y-58584044D01*
X79845956Y-58377076D01*
X79602588Y-58214462D01*
X79332171Y-58102452D01*
X79045098Y-58045350D01*
X78752402Y-58045350D01*
X78478750Y-58099782D01*
X78478750Y-56158575D01*
X78482426Y-56121250D01*
X78478750Y-56083925D01*
X78478750Y-56083917D01*
X78467753Y-55972264D01*
X78424296Y-55829003D01*
X78353724Y-55696974D01*
X78258751Y-55581249D01*
X78229753Y-55557451D01*
X78154584Y-55482282D01*
X78193363Y-55251166D01*
X78245406Y-54487746D01*
X78237029Y-54209605D01*
X78153660Y-53847773D01*
X78001302Y-53509158D01*
X77785811Y-53206773D01*
X77515469Y-52952239D01*
X77200663Y-52755336D01*
X76853493Y-52623632D01*
X76487300Y-52562189D01*
X76116157Y-52573367D01*
X75754325Y-52656736D01*
X75415710Y-52809094D01*
X75113325Y-53024585D01*
X74858791Y-53294927D01*
X74661887Y-53609733D01*
X74530184Y-53956903D01*
X74484137Y-54231334D01*
X74432094Y-54994755D01*
X72634060Y-54994755D01*
X72503864Y-54665498D01*
X72302584Y-54353472D01*
X72044299Y-54086711D01*
X71738935Y-53875464D01*
X71398226Y-53727849D01*
X71035265Y-53649540D01*
X70664000Y-53643546D01*
X70298701Y-53710097D01*
X69953405Y-53846635D01*
X69641379Y-54047915D01*
X69374618Y-54306200D01*
X69216306Y-54535044D01*
X68315475Y-56156848D01*
X68204850Y-56412181D01*
X68126541Y-56775142D01*
X68120547Y-57146406D01*
X68187098Y-57511705D01*
X68323636Y-57857002D01*
X68461882Y-58071312D01*
X68305329Y-58102452D01*
X68034912Y-58214462D01*
X67791544Y-58377076D01*
X67584576Y-58584044D01*
X67421962Y-58827412D01*
X67309952Y-59097829D01*
X67252850Y-59384902D01*
X67252850Y-59677598D01*
X67309952Y-59964671D01*
X67421962Y-60235088D01*
X67584576Y-60478456D01*
X67791544Y-60685424D01*
X68034912Y-60848038D01*
X68111934Y-60879941D01*
X68088203Y-60924339D01*
X68044747Y-61067600D01*
X68030073Y-61216585D01*
X68033750Y-61253917D01*
X68033750Y-64501164D01*
X67851939Y-64465000D01*
X67648061Y-64465000D01*
X67448102Y-64504774D01*
X67259744Y-64582795D01*
X67192609Y-64627653D01*
X63816058Y-64627653D01*
X63772121Y-64583716D01*
X63602603Y-64470448D01*
X63414245Y-64392427D01*
X63214286Y-64352653D01*
X63010408Y-64352653D01*
X62810449Y-64392427D01*
X62622091Y-64470448D01*
X62452573Y-64583716D01*
X62308410Y-64727879D01*
X62195142Y-64897397D01*
X62117121Y-65085755D01*
X62077347Y-65285714D01*
X62077347Y-65489592D01*
X62117121Y-65689551D01*
X62195142Y-65877909D01*
X62308410Y-66047427D01*
X62452573Y-66191590D01*
X62622091Y-66304858D01*
X62810449Y-66382879D01*
X63010408Y-66422653D01*
X63214286Y-66422653D01*
X63414245Y-66382879D01*
X63602603Y-66304858D01*
X63772121Y-66191590D01*
X63816058Y-66147653D01*
X66937964Y-66147653D01*
X66946063Y-66159774D01*
X67090226Y-66303937D01*
X67259744Y-66417205D01*
X67448102Y-66495226D01*
X67648061Y-66535000D01*
X67851939Y-66535000D01*
X68033750Y-66498836D01*
X68033749Y-73653927D01*
X68030073Y-73691249D01*
X68033749Y-73728571D01*
X68033749Y-73728581D01*
X68044746Y-73840234D01*
X68088203Y-73983495D01*
X68158775Y-74115525D01*
X68198620Y-74164075D01*
X68253748Y-74231250D01*
X68282751Y-74255052D01*
X68643675Y-74615976D01*
X68315475Y-75206848D01*
X68204850Y-75462181D01*
X68126541Y-75825142D01*
X68120547Y-76196406D01*
X68187098Y-76561705D01*
X68323636Y-76907002D01*
X68461882Y-77121312D01*
X68305329Y-77152452D01*
X68034912Y-77264462D01*
X67791544Y-77427076D01*
X67584576Y-77634044D01*
X67421962Y-77877412D01*
X67309952Y-78147829D01*
X67252850Y-78434902D01*
X67252850Y-78727598D01*
X67309952Y-79014671D01*
X67421962Y-79285088D01*
X67584576Y-79528456D01*
X67791544Y-79735424D01*
X68034912Y-79898038D01*
X68305329Y-80010048D01*
X68592402Y-80067150D01*
X68885098Y-80067150D01*
X69172171Y-80010048D01*
X69442588Y-79898038D01*
X69653751Y-79756943D01*
X69653751Y-80348944D01*
X68282751Y-81719946D01*
X68253748Y-81743748D01*
X68198620Y-81810923D01*
X68158775Y-81859473D01*
X68102959Y-81963897D01*
X68088203Y-81991503D01*
X68044746Y-82134764D01*
X68033749Y-82246417D01*
X68033749Y-82246427D01*
X68030073Y-82283749D01*
X68033749Y-82321072D01*
X68033750Y-84366419D01*
X68030073Y-84403751D01*
X68044747Y-84552736D01*
X68088203Y-84695997D01*
X68158775Y-84828027D01*
X68224214Y-84907764D01*
X68253749Y-84943752D01*
X68282747Y-84967550D01*
X68655227Y-85340030D01*
X51754830Y-85340030D01*
X51196622Y-84781822D01*
X51668750Y-84781822D01*
X51793232Y-84769562D01*
X51912930Y-84733252D01*
X52023244Y-84674287D01*
X52119935Y-84594935D01*
X52199287Y-84498244D01*
X52258252Y-84387930D01*
X52294562Y-84268232D01*
X52306822Y-84143750D01*
X52306822Y-82543750D01*
X52294562Y-82419268D01*
X52258252Y-82299570D01*
X52199287Y-82189256D01*
X52119935Y-82092565D01*
X52023244Y-82013213D01*
X51912930Y-81954248D01*
X51793232Y-81917938D01*
X51668750Y-81905678D01*
X51196622Y-81905678D01*
X51874758Y-81227543D01*
X51903751Y-81203749D01*
X51927545Y-81174756D01*
X51927549Y-81174752D01*
X51998723Y-81088025D01*
X52044574Y-81002245D01*
X52069296Y-80955995D01*
X52112753Y-80812734D01*
X52123750Y-80701081D01*
X52123750Y-80701072D01*
X52127426Y-80663749D01*
X52123750Y-80626426D01*
X52123750Y-78322326D01*
X52139850Y-78322326D01*
X52139850Y-78840174D01*
X52240877Y-79348072D01*
X52439049Y-79826501D01*
X52726750Y-80257076D01*
X53092924Y-80623250D01*
X53523499Y-80910951D01*
X54001928Y-81109123D01*
X54509826Y-81210150D01*
X55027674Y-81210150D01*
X55535572Y-81109123D01*
X56014001Y-80910951D01*
X56444576Y-80623250D01*
X56810750Y-80257076D01*
X57098451Y-79826501D01*
X57296623Y-79348072D01*
X57397650Y-78840174D01*
X57397650Y-78322326D01*
X57296623Y-77814428D01*
X57098451Y-77335999D01*
X56810750Y-76905424D01*
X56444576Y-76539250D01*
X56014001Y-76251549D01*
X55535572Y-76053377D01*
X55027674Y-75952350D01*
X54509826Y-75952350D01*
X54001928Y-76053377D01*
X53523499Y-76251549D01*
X53092924Y-76539250D01*
X52726750Y-76905424D01*
X52439049Y-77335999D01*
X52240877Y-77814428D01*
X52139850Y-78322326D01*
X52123750Y-78322326D01*
X52123750Y-77532565D01*
X52136121Y-77524585D01*
X52402882Y-77266300D01*
X52561194Y-77037456D01*
X53462025Y-75415653D01*
X53572650Y-75160320D01*
X53650959Y-74797359D01*
X53656953Y-74426094D01*
X53590402Y-74060795D01*
X53584060Y-74044755D01*
X55382094Y-74044755D01*
X55390471Y-74322895D01*
X55473840Y-74684727D01*
X55626198Y-75023342D01*
X55841689Y-75325727D01*
X56112031Y-75580261D01*
X56426837Y-75777165D01*
X56774007Y-75908868D01*
X57140200Y-75970311D01*
X57511343Y-75959133D01*
X57873175Y-75875764D01*
X57908751Y-75859757D01*
X57908750Y-82125706D01*
X57753991Y-82229113D01*
X57554113Y-82428991D01*
X57397070Y-82664023D01*
X57288897Y-82925176D01*
X57233750Y-83202415D01*
X57233750Y-83485085D01*
X57288897Y-83762324D01*
X57397070Y-84023477D01*
X57554113Y-84258509D01*
X57753991Y-84458387D01*
X57989023Y-84615430D01*
X58250176Y-84723603D01*
X58527415Y-84778750D01*
X58810085Y-84778750D01*
X59087324Y-84723603D01*
X59348477Y-84615430D01*
X59583509Y-84458387D01*
X59783387Y-84258509D01*
X59940430Y-84023477D01*
X60048603Y-83762324D01*
X60103750Y-83485085D01*
X60103750Y-83202415D01*
X60048603Y-82925176D01*
X59940430Y-82664023D01*
X59783387Y-82428991D01*
X59583509Y-82229113D01*
X59428750Y-82125707D01*
X59428750Y-80012718D01*
X59702402Y-80067150D01*
X59995098Y-80067150D01*
X60282171Y-80010048D01*
X60552588Y-79898038D01*
X60795956Y-79735424D01*
X61002924Y-79528456D01*
X61165538Y-79285088D01*
X61277548Y-79014671D01*
X61334650Y-78727598D01*
X61334650Y-78434902D01*
X61277548Y-78147829D01*
X61165538Y-77877412D01*
X61002924Y-77634044D01*
X60795956Y-77427076D01*
X60552588Y-77264462D01*
X60282171Y-77152452D01*
X59995098Y-77095350D01*
X59702402Y-77095350D01*
X59428750Y-77149782D01*
X59428750Y-75208575D01*
X59432426Y-75171250D01*
X59428750Y-75133925D01*
X59428750Y-75133917D01*
X59417753Y-75022264D01*
X59374296Y-74879003D01*
X59303724Y-74746974D01*
X59208751Y-74631249D01*
X59179753Y-74607451D01*
X59104584Y-74532282D01*
X59143363Y-74301166D01*
X59195406Y-73537746D01*
X59187029Y-73259605D01*
X59103660Y-72897773D01*
X58951302Y-72559158D01*
X58735811Y-72256773D01*
X58465469Y-72002239D01*
X58150663Y-71805336D01*
X57803493Y-71673632D01*
X57437300Y-71612189D01*
X57066157Y-71623367D01*
X56704325Y-71706736D01*
X56365710Y-71859094D01*
X56063325Y-72074585D01*
X55808791Y-72344927D01*
X55611887Y-72659733D01*
X55480184Y-73006903D01*
X55434137Y-73281334D01*
X55382094Y-74044755D01*
X53584060Y-74044755D01*
X53453864Y-73715498D01*
X53252584Y-73403472D01*
X52994299Y-73136711D01*
X52688935Y-72925464D01*
X52348226Y-72777849D01*
X51985265Y-72699540D01*
X51833572Y-72697091D01*
X50503749Y-71367270D01*
X50503749Y-65731822D01*
X51668750Y-65731822D01*
X51793232Y-65719562D01*
X51912930Y-65683252D01*
X52023244Y-65624287D01*
X52119935Y-65544935D01*
X52199287Y-65448244D01*
X52258252Y-65337930D01*
X52294562Y-65218232D01*
X52306822Y-65093750D01*
X52306822Y-63493750D01*
X52294562Y-63369268D01*
X52258252Y-63249570D01*
X52199287Y-63139256D01*
X52119935Y-63042565D01*
X52023244Y-62963213D01*
X51912930Y-62904248D01*
X51793232Y-62867938D01*
X51668750Y-62855678D01*
X50503749Y-62855678D01*
X50503749Y-61531386D01*
X51874759Y-60160378D01*
X51903751Y-60136585D01*
X51927545Y-60107592D01*
X51927549Y-60107588D01*
X51998723Y-60020861D01*
X51998724Y-60020860D01*
X52069296Y-59888831D01*
X52112753Y-59745570D01*
X52123750Y-59633917D01*
X52123750Y-59633908D01*
X52127426Y-59596585D01*
X52123750Y-59559262D01*
X52123750Y-59272326D01*
X52139850Y-59272326D01*
X52139850Y-59790174D01*
X52240877Y-60298072D01*
X52439049Y-60776501D01*
X52726750Y-61207076D01*
X53092924Y-61573250D01*
X53523499Y-61860951D01*
X54001928Y-62059123D01*
X54509826Y-62160150D01*
X55027674Y-62160150D01*
X55535572Y-62059123D01*
X56014001Y-61860951D01*
X56444576Y-61573250D01*
X56810750Y-61207076D01*
X57098451Y-60776501D01*
X57296623Y-60298072D01*
X57397650Y-59790174D01*
X57397650Y-59272326D01*
X57296623Y-58764428D01*
X57098451Y-58285999D01*
X56810750Y-57855424D01*
X56444576Y-57489250D01*
X56014001Y-57201549D01*
X55535572Y-57003377D01*
X55027674Y-56902350D01*
X54509826Y-56902350D01*
X54001928Y-57003377D01*
X53523499Y-57201549D01*
X53092924Y-57489250D01*
X52726750Y-57855424D01*
X52439049Y-58285999D01*
X52240877Y-58764428D01*
X52139850Y-59272326D01*
X52123750Y-59272326D01*
X52123750Y-58482565D01*
X52136121Y-58474585D01*
X52402882Y-58216300D01*
X52561194Y-57987456D01*
X53462025Y-56365653D01*
X53572650Y-56110320D01*
X53650959Y-55747359D01*
X53656953Y-55376094D01*
X53590402Y-55010795D01*
X53584060Y-54994755D01*
X55382094Y-54994755D01*
X55390471Y-55272895D01*
X55473840Y-55634727D01*
X55626198Y-55973342D01*
X55841689Y-56275727D01*
X56112031Y-56530261D01*
X56426837Y-56727165D01*
X56774007Y-56858868D01*
X57140200Y-56920311D01*
X57511343Y-56909133D01*
X57873175Y-56825764D01*
X57908751Y-56809757D01*
X57908750Y-63075706D01*
X57753991Y-63179113D01*
X57554113Y-63378991D01*
X57397070Y-63614023D01*
X57288897Y-63875176D01*
X57233750Y-64152415D01*
X57233750Y-64435085D01*
X57288897Y-64712324D01*
X57397070Y-64973477D01*
X57554113Y-65208509D01*
X57753991Y-65408387D01*
X57989023Y-65565430D01*
X58250176Y-65673603D01*
X58527415Y-65728750D01*
X58810085Y-65728750D01*
X59087324Y-65673603D01*
X59348477Y-65565430D01*
X59583509Y-65408387D01*
X59783387Y-65208509D01*
X59940430Y-64973477D01*
X60048603Y-64712324D01*
X60103750Y-64435085D01*
X60103750Y-64152415D01*
X60048603Y-63875176D01*
X59940430Y-63614023D01*
X59783387Y-63378991D01*
X59583509Y-63179113D01*
X59428750Y-63075707D01*
X59428750Y-60962718D01*
X59702402Y-61017150D01*
X59995098Y-61017150D01*
X60282171Y-60960048D01*
X60552588Y-60848038D01*
X60795956Y-60685424D01*
X61002924Y-60478456D01*
X61165538Y-60235088D01*
X61277548Y-59964671D01*
X61334650Y-59677598D01*
X61334650Y-59384902D01*
X61277548Y-59097829D01*
X61165538Y-58827412D01*
X61002924Y-58584044D01*
X60795956Y-58377076D01*
X60552588Y-58214462D01*
X60282171Y-58102452D01*
X59995098Y-58045350D01*
X59702402Y-58045350D01*
X59428750Y-58099782D01*
X59428750Y-56158575D01*
X59432426Y-56121250D01*
X59428750Y-56083925D01*
X59428750Y-56083917D01*
X59417753Y-55972264D01*
X59374296Y-55829003D01*
X59303724Y-55696974D01*
X59208751Y-55581249D01*
X59179753Y-55557451D01*
X59104584Y-55482282D01*
X59143363Y-55251166D01*
X59195406Y-54487746D01*
X59187029Y-54209605D01*
X59103660Y-53847773D01*
X58951302Y-53509158D01*
X58735811Y-53206773D01*
X58465469Y-52952239D01*
X58150663Y-52755336D01*
X57803493Y-52623632D01*
X57437300Y-52562189D01*
X57066157Y-52573367D01*
X56704325Y-52656736D01*
X56365710Y-52809094D01*
X56063325Y-53024585D01*
X55808791Y-53294927D01*
X55611887Y-53609733D01*
X55480184Y-53956903D01*
X55434137Y-54231334D01*
X55382094Y-54994755D01*
X53584060Y-54994755D01*
X53453864Y-54665498D01*
X53252584Y-54353472D01*
X52994299Y-54086711D01*
X52688935Y-53875464D01*
X52348226Y-53727849D01*
X51985265Y-53649540D01*
X51614000Y-53643546D01*
X51248701Y-53710097D01*
X50903405Y-53846635D01*
X50591379Y-54047915D01*
X50324618Y-54306200D01*
X50166306Y-54535044D01*
X49265475Y-56156848D01*
X49154850Y-56412181D01*
X49076541Y-56775142D01*
X49070547Y-57146406D01*
X49137098Y-57511705D01*
X49273636Y-57857002D01*
X49411882Y-58071312D01*
X49255329Y-58102452D01*
X48984912Y-58214462D01*
X48741544Y-58377076D01*
X48534576Y-58584044D01*
X48371962Y-58827412D01*
X48259952Y-59097829D01*
X48202850Y-59384902D01*
X48202850Y-59677598D01*
X48259952Y-59964671D01*
X48371962Y-60235088D01*
X48534576Y-60478456D01*
X48741544Y-60685424D01*
X48984912Y-60848038D01*
X49061934Y-60879941D01*
X49038203Y-60924339D01*
X48994747Y-61067600D01*
X48980073Y-61216585D01*
X48983750Y-61253917D01*
X48983749Y-71644749D01*
X48980073Y-71682071D01*
X48983749Y-71719393D01*
X48983749Y-71719403D01*
X48994746Y-71831056D01*
X49011102Y-71884974D01*
X49038203Y-71974317D01*
X49108775Y-72106347D01*
X49148620Y-72154897D01*
X49203748Y-72222072D01*
X49232751Y-72245874D01*
X50333996Y-73347120D01*
X50324618Y-73356200D01*
X50166306Y-73585044D01*
X49265475Y-75206848D01*
X49154850Y-75462181D01*
X49076541Y-75825142D01*
X49070547Y-76196406D01*
X49137098Y-76561705D01*
X49273636Y-76907002D01*
X49411882Y-77121312D01*
X49255329Y-77152452D01*
X48984912Y-77264462D01*
X48741544Y-77427076D01*
X48534576Y-77634044D01*
X48371962Y-77877412D01*
X48259952Y-78147829D01*
X48202850Y-78434902D01*
X48202850Y-78727598D01*
X48259952Y-79014671D01*
X48371962Y-79285088D01*
X48534576Y-79528456D01*
X48741544Y-79735424D01*
X48984912Y-79898038D01*
X49255329Y-80010048D01*
X49542402Y-80067150D01*
X49835098Y-80067150D01*
X50122171Y-80010048D01*
X50392588Y-79898038D01*
X50603751Y-79756943D01*
X50603751Y-80348944D01*
X49232751Y-81719946D01*
X49203748Y-81743748D01*
X49148620Y-81810923D01*
X49108775Y-81859473D01*
X49052959Y-81963897D01*
X49038203Y-81991503D01*
X48994746Y-82134764D01*
X48983749Y-82246417D01*
X48983749Y-82246427D01*
X48980073Y-82283749D01*
X48983749Y-82321072D01*
X48983750Y-84366419D01*
X48980073Y-84403751D01*
X48994747Y-84552736D01*
X49038203Y-84695997D01*
X49108775Y-84828027D01*
X49174214Y-84907764D01*
X49203749Y-84943752D01*
X49232747Y-84967550D01*
X50055236Y-85790040D01*
X33154840Y-85790040D01*
X32146621Y-84781822D01*
X32618750Y-84781822D01*
X32743232Y-84769562D01*
X32862930Y-84733252D01*
X32973244Y-84674287D01*
X33069935Y-84594935D01*
X33149287Y-84498244D01*
X33208252Y-84387930D01*
X33244562Y-84268232D01*
X33256822Y-84143750D01*
X33256822Y-82543750D01*
X33244562Y-82419268D01*
X33208252Y-82299570D01*
X33149287Y-82189256D01*
X33069935Y-82092565D01*
X32973244Y-82013213D01*
X32862930Y-81954248D01*
X32743232Y-81917938D01*
X32618750Y-81905678D01*
X32146621Y-81905678D01*
X33735987Y-80316313D01*
X34042924Y-80623250D01*
X34473499Y-80910951D01*
X34951928Y-81109123D01*
X35459826Y-81210150D01*
X35977674Y-81210150D01*
X36485572Y-81109123D01*
X36964001Y-80910951D01*
X37394576Y-80623250D01*
X37760750Y-80257076D01*
X38048451Y-79826501D01*
X38246623Y-79348072D01*
X38347650Y-78840174D01*
X38347650Y-78322326D01*
X38246623Y-77814428D01*
X38048451Y-77335999D01*
X37760750Y-76905424D01*
X37394576Y-76539250D01*
X36964001Y-76251549D01*
X36485572Y-76053377D01*
X35977674Y-75952350D01*
X35459826Y-75952350D01*
X34951928Y-76053377D01*
X34473499Y-76251549D01*
X34063734Y-76525345D01*
X34063734Y-76338557D01*
X34067410Y-76301234D01*
X34063734Y-76263911D01*
X34063734Y-76263901D01*
X34052737Y-76152248D01*
X34035128Y-76094197D01*
X34412025Y-75415653D01*
X34522650Y-75160320D01*
X34600959Y-74797359D01*
X34606953Y-74426094D01*
X34540402Y-74060795D01*
X34534060Y-74044755D01*
X36332094Y-74044755D01*
X36340471Y-74322895D01*
X36423840Y-74684727D01*
X36576198Y-75023342D01*
X36791689Y-75325727D01*
X37062031Y-75580261D01*
X37376837Y-75777165D01*
X37724007Y-75908868D01*
X38090200Y-75970311D01*
X38461343Y-75959133D01*
X38823175Y-75875764D01*
X38858751Y-75859757D01*
X38858750Y-82125706D01*
X38703991Y-82229113D01*
X38504113Y-82428991D01*
X38347070Y-82664023D01*
X38238897Y-82925176D01*
X38183750Y-83202415D01*
X38183750Y-83485085D01*
X38238897Y-83762324D01*
X38347070Y-84023477D01*
X38504113Y-84258509D01*
X38703991Y-84458387D01*
X38939023Y-84615430D01*
X39200176Y-84723603D01*
X39477415Y-84778750D01*
X39760085Y-84778750D01*
X40037324Y-84723603D01*
X40298477Y-84615430D01*
X40533509Y-84458387D01*
X40733387Y-84258509D01*
X40890430Y-84023477D01*
X40998603Y-83762324D01*
X41053750Y-83485085D01*
X41053750Y-83202415D01*
X40998603Y-82925176D01*
X40890430Y-82664023D01*
X40733387Y-82428991D01*
X40533509Y-82229113D01*
X40378750Y-82125707D01*
X40378750Y-80012718D01*
X40652402Y-80067150D01*
X40945098Y-80067150D01*
X41232171Y-80010048D01*
X41502588Y-79898038D01*
X41745956Y-79735424D01*
X41952924Y-79528456D01*
X42115538Y-79285088D01*
X42227548Y-79014671D01*
X42284650Y-78727598D01*
X42284650Y-78434902D01*
X42227548Y-78147829D01*
X42115538Y-77877412D01*
X41952924Y-77634044D01*
X41745956Y-77427076D01*
X41502588Y-77264462D01*
X41232171Y-77152452D01*
X40945098Y-77095350D01*
X40652402Y-77095350D01*
X40378750Y-77149782D01*
X40378750Y-75208575D01*
X40382426Y-75171250D01*
X40378750Y-75133925D01*
X40378750Y-75133917D01*
X40367753Y-75022264D01*
X40324296Y-74879003D01*
X40253724Y-74746974D01*
X40158751Y-74631249D01*
X40129753Y-74607451D01*
X40054584Y-74532282D01*
X40093363Y-74301166D01*
X40145406Y-73537746D01*
X40137029Y-73259605D01*
X40053660Y-72897773D01*
X39901302Y-72559158D01*
X39685811Y-72256773D01*
X39415469Y-72002239D01*
X39100663Y-71805336D01*
X38753493Y-71673632D01*
X38387300Y-71612189D01*
X38016157Y-71623367D01*
X37654325Y-71706736D01*
X37315710Y-71859094D01*
X37013325Y-72074585D01*
X36758791Y-72344927D01*
X36561887Y-72659733D01*
X36430184Y-73006903D01*
X36384137Y-73281334D01*
X36332094Y-74044755D01*
X34534060Y-74044755D01*
X34403864Y-73715498D01*
X34202584Y-73403472D01*
X33944299Y-73136711D01*
X33638935Y-72925464D01*
X33298226Y-72777849D01*
X32935265Y-72699540D01*
X32783572Y-72697091D01*
X31453749Y-71367270D01*
X31453749Y-65731822D01*
X32618750Y-65731822D01*
X32743232Y-65719562D01*
X32862930Y-65683252D01*
X32973244Y-65624287D01*
X33069935Y-65544935D01*
X33149287Y-65448244D01*
X33208252Y-65337930D01*
X33244562Y-65218232D01*
X33256822Y-65093750D01*
X33256822Y-63493750D01*
X33244562Y-63369268D01*
X33208252Y-63249570D01*
X33149287Y-63139256D01*
X33069935Y-63042565D01*
X32973244Y-62963213D01*
X32862930Y-62904248D01*
X32743232Y-62867938D01*
X32618750Y-62855678D01*
X31453749Y-62855678D01*
X31453749Y-61531386D01*
X32824759Y-60160378D01*
X32853751Y-60136585D01*
X32877545Y-60107592D01*
X32877549Y-60107588D01*
X32948723Y-60020861D01*
X32948724Y-60020860D01*
X33019296Y-59888831D01*
X33062753Y-59745570D01*
X33073750Y-59633917D01*
X33073750Y-59633908D01*
X33077426Y-59596585D01*
X33073750Y-59559262D01*
X33073750Y-59272326D01*
X33089850Y-59272326D01*
X33089850Y-59790174D01*
X33190877Y-60298072D01*
X33389049Y-60776501D01*
X33676750Y-61207076D01*
X34042924Y-61573250D01*
X34473499Y-61860951D01*
X34951928Y-62059123D01*
X35459826Y-62160150D01*
X35977674Y-62160150D01*
X36485572Y-62059123D01*
X36964001Y-61860951D01*
X37394576Y-61573250D01*
X37760750Y-61207076D01*
X38048451Y-60776501D01*
X38246623Y-60298072D01*
X38347650Y-59790174D01*
X38347650Y-59272326D01*
X38246623Y-58764428D01*
X38048451Y-58285999D01*
X37760750Y-57855424D01*
X37394576Y-57489250D01*
X36964001Y-57201549D01*
X36485572Y-57003377D01*
X35977674Y-56902350D01*
X35459826Y-56902350D01*
X34951928Y-57003377D01*
X34473499Y-57201549D01*
X34042924Y-57489250D01*
X33676750Y-57855424D01*
X33389049Y-58285999D01*
X33190877Y-58764428D01*
X33089850Y-59272326D01*
X33073750Y-59272326D01*
X33073750Y-58482565D01*
X33086121Y-58474585D01*
X33352882Y-58216300D01*
X33511194Y-57987456D01*
X34412025Y-56365653D01*
X34522650Y-56110320D01*
X34600959Y-55747359D01*
X34606953Y-55376094D01*
X34540402Y-55010795D01*
X34534060Y-54994755D01*
X36332094Y-54994755D01*
X36340471Y-55272895D01*
X36423840Y-55634727D01*
X36576198Y-55973342D01*
X36791689Y-56275727D01*
X37062031Y-56530261D01*
X37376837Y-56727165D01*
X37724007Y-56858868D01*
X38090200Y-56920311D01*
X38461343Y-56909133D01*
X38823175Y-56825764D01*
X38858751Y-56809757D01*
X38858750Y-63075706D01*
X38703991Y-63179113D01*
X38504113Y-63378991D01*
X38347070Y-63614023D01*
X38238897Y-63875176D01*
X38183750Y-64152415D01*
X38183750Y-64435085D01*
X38238897Y-64712324D01*
X38347070Y-64973477D01*
X38504113Y-65208509D01*
X38703991Y-65408387D01*
X38939023Y-65565430D01*
X39200176Y-65673603D01*
X39477415Y-65728750D01*
X39760085Y-65728750D01*
X40037324Y-65673603D01*
X40298477Y-65565430D01*
X40533509Y-65408387D01*
X40733387Y-65208509D01*
X40890430Y-64973477D01*
X40998603Y-64712324D01*
X41053750Y-64435085D01*
X41053750Y-64152415D01*
X40998603Y-63875176D01*
X40890430Y-63614023D01*
X40733387Y-63378991D01*
X40533509Y-63179113D01*
X40378750Y-63075707D01*
X40378750Y-60962718D01*
X40652402Y-61017150D01*
X40945098Y-61017150D01*
X41232171Y-60960048D01*
X41502588Y-60848038D01*
X41745956Y-60685424D01*
X41952924Y-60478456D01*
X42115538Y-60235088D01*
X42227548Y-59964671D01*
X42284650Y-59677598D01*
X42284650Y-59384902D01*
X42227548Y-59097829D01*
X42115538Y-58827412D01*
X41952924Y-58584044D01*
X41745956Y-58377076D01*
X41502588Y-58214462D01*
X41232171Y-58102452D01*
X40945098Y-58045350D01*
X40652402Y-58045350D01*
X40378750Y-58099782D01*
X40378750Y-56158575D01*
X40382426Y-56121250D01*
X40378750Y-56083925D01*
X40378750Y-56083917D01*
X40367753Y-55972264D01*
X40324296Y-55829003D01*
X40253724Y-55696974D01*
X40158751Y-55581249D01*
X40129753Y-55557451D01*
X40054584Y-55482282D01*
X40093363Y-55251166D01*
X40145406Y-54487746D01*
X40137029Y-54209605D01*
X40053660Y-53847773D01*
X39901302Y-53509158D01*
X39685811Y-53206773D01*
X39415469Y-52952239D01*
X39100663Y-52755336D01*
X38753493Y-52623632D01*
X38387300Y-52562189D01*
X38016157Y-52573367D01*
X37654325Y-52656736D01*
X37315710Y-52809094D01*
X37013325Y-53024585D01*
X36758791Y-53294927D01*
X36561887Y-53609733D01*
X36430184Y-53956903D01*
X36384137Y-54231334D01*
X36332094Y-54994755D01*
X34534060Y-54994755D01*
X34403864Y-54665498D01*
X34202584Y-54353472D01*
X33944299Y-54086711D01*
X33638935Y-53875464D01*
X33298226Y-53727849D01*
X32935265Y-53649540D01*
X32564000Y-53643546D01*
X32198701Y-53710097D01*
X31853405Y-53846635D01*
X31541379Y-54047915D01*
X31274618Y-54306200D01*
X31116306Y-54535044D01*
X30215475Y-56156848D01*
X30104850Y-56412181D01*
X30026541Y-56775142D01*
X30020547Y-57146406D01*
X30087098Y-57511705D01*
X30223636Y-57857002D01*
X30361882Y-58071312D01*
X30205329Y-58102452D01*
X29934912Y-58214462D01*
X29691544Y-58377076D01*
X29484576Y-58584044D01*
X29321962Y-58827412D01*
X29209952Y-59097829D01*
X29152850Y-59384902D01*
X26320772Y-59384902D01*
X26320772Y-51701268D01*
X26331675Y-51756081D01*
X26462463Y-52071831D01*
X26652337Y-52355998D01*
X26894002Y-52597663D01*
X27178169Y-52787537D01*
X27493919Y-52918325D01*
X27829117Y-52985000D01*
X28170883Y-52985000D01*
X28506081Y-52918325D01*
X28821831Y-52787537D01*
X29105998Y-52597663D01*
X29207911Y-52495750D01*
X59258750Y-52495750D01*
X59258750Y-53745750D01*
X59310139Y-54013510D01*
X59412778Y-54266099D01*
X59562722Y-54493811D01*
X59754210Y-54687895D01*
X59979882Y-54840892D01*
X60231066Y-54946923D01*
X60302565Y-54961068D01*
X60516750Y-54838406D01*
X60516750Y-52495750D01*
X60770750Y-52495750D01*
X60770750Y-54838406D01*
X60984935Y-54961068D01*
X61056434Y-54946923D01*
X61307618Y-54840892D01*
X61533290Y-54687895D01*
X61724778Y-54493811D01*
X61874722Y-54266099D01*
X61977361Y-54013510D01*
X62028750Y-53745750D01*
X62028750Y-52495750D01*
X66558750Y-52495750D01*
X66558750Y-53745750D01*
X66610139Y-54013510D01*
X66712778Y-54266099D01*
X66862722Y-54493811D01*
X67054210Y-54687895D01*
X67279882Y-54840892D01*
X67531066Y-54946923D01*
X67602565Y-54961068D01*
X67816750Y-54838406D01*
X67816750Y-52495750D01*
X68070750Y-52495750D01*
X68070750Y-54838406D01*
X68284935Y-54961068D01*
X68356434Y-54946923D01*
X68607618Y-54840892D01*
X68833290Y-54687895D01*
X69024778Y-54493811D01*
X69174722Y-54266099D01*
X69277361Y-54013510D01*
X69328750Y-53745750D01*
X69328750Y-52495750D01*
X68070750Y-52495750D01*
X67816750Y-52495750D01*
X66558750Y-52495750D01*
X62028750Y-52495750D01*
X60770750Y-52495750D01*
X60516750Y-52495750D01*
X59258750Y-52495750D01*
X29207911Y-52495750D01*
X29347663Y-52355998D01*
X29537537Y-52071831D01*
X29668325Y-51756081D01*
X29735000Y-51420883D01*
X29735000Y-51079117D01*
X29717622Y-50991750D01*
X59258750Y-50991750D01*
X59258750Y-52241750D01*
X60516750Y-52241750D01*
X60516750Y-49899094D01*
X60770750Y-49899094D01*
X60770750Y-52241750D01*
X62028750Y-52241750D01*
X62028750Y-50991750D01*
X66558750Y-50991750D01*
X66558750Y-52241750D01*
X67816750Y-52241750D01*
X67816750Y-49899094D01*
X68070750Y-49899094D01*
X68070750Y-52241750D01*
X69328750Y-52241750D01*
X69328750Y-50991750D01*
X69277361Y-50723990D01*
X69174722Y-50471401D01*
X69024778Y-50243689D01*
X68833290Y-50049605D01*
X68607618Y-49896608D01*
X68356434Y-49790577D01*
X68284935Y-49776432D01*
X68070750Y-49899094D01*
X67816750Y-49899094D01*
X67602565Y-49776432D01*
X67531066Y-49790577D01*
X67279882Y-49896608D01*
X67054210Y-50049605D01*
X66862722Y-50243689D01*
X66712778Y-50471401D01*
X66610139Y-50723990D01*
X66558750Y-50991750D01*
X62028750Y-50991750D01*
X61977361Y-50723990D01*
X61874722Y-50471401D01*
X61724778Y-50243689D01*
X61533290Y-50049605D01*
X61307618Y-49896608D01*
X61056434Y-49790577D01*
X60984935Y-49776432D01*
X60770750Y-49899094D01*
X60516750Y-49899094D01*
X60302565Y-49776432D01*
X60231066Y-49790577D01*
X59979882Y-49896608D01*
X59754210Y-50049605D01*
X59562722Y-50243689D01*
X59412778Y-50471401D01*
X59310139Y-50723990D01*
X59258750Y-50991750D01*
X29717622Y-50991750D01*
X29668325Y-50743919D01*
X29537537Y-50428169D01*
X29347663Y-50144002D01*
X29105998Y-49902337D01*
X28821831Y-49712463D01*
X28506081Y-49581675D01*
X28286406Y-49537979D01*
X123463594Y-49537979D01*
X123243919Y-49581675D01*
M02*
