M48
; DRILL file {KiCad (5.1.0-0)} date Thursday, March 21, 2019 at 11:14:16 AM
; FORMAT={-:-/ absolute / inch / decimal}
; #@! TF.CreationDate,2019-03-21T11:14:16-04:00
; #@! TF.GenerationSoftware,Kicad,Pcbnew,(5.1.0-0)
; #@! TF.FileFunction,NonPlated,1,2,NPTH
FMAT,2
INCH
T1C0.0670
T2C0.1260
T3C0.1570
%
G90
G05
T1
X1.2063Y-2.3438
X1.6062Y-2.3438
X1.2063Y-3.0938
X1.6062Y-3.0938
X1.9563Y-3.0938
X2.3562Y-3.0938
X1.9563Y-2.3438
X2.3562Y-2.3438
X2.7062Y-2.3438
X3.1062Y-2.3438
X3.4562Y-2.3438
X3.8562Y-2.3438
X2.7062Y-3.0938
X3.1062Y-3.0938
X3.4562Y-3.0938
X3.8562Y-3.0938
T2
X5.0197Y-3.5433
X0.9843Y-3.5433
X5.0197Y-1.8701
X0.9843Y-1.8701
T3
X1.4062Y-2.3438
X1.4062Y-3.0938
X2.1562Y-3.0938
X2.1562Y-2.3438
X2.9062Y-2.3438
X3.6562Y-2.3438
X2.9062Y-3.0938
X3.6562Y-3.0938
T0
M30
