G04 #@! TF.GenerationSoftware,KiCad,Pcbnew,(5.1.0-0)*
G04 #@! TF.CreationDate,2019-03-21T11:14:00-04:00*
G04 #@! TF.ProjectId,keeb2x4,6b656562-3278-4342-9e6b-696361645f70,rev?*
G04 #@! TF.SameCoordinates,Original*
G04 #@! TF.FileFunction,Legend,Top*
G04 #@! TF.FilePolarity,Positive*
%FSLAX46Y46*%
G04 Gerber Fmt 4.6, Leading zero omitted, Abs format (unit mm)*
G04 Created by KiCad (PCBNEW (5.1.0-0)) date 2019-03-21 11:14:00*
%MOMM*%
%LPD*%
G04 APERTURE LIST*
%ADD10C,0.381000*%
%ADD11C,0.150000*%
G04 APERTURE END LIST*
D10*
X29368750Y-53181250D02*
X31146750Y-53181250D01*
X40290750Y-53181250D02*
X42068750Y-53181250D01*
X42068750Y-53181250D02*
X42068750Y-54959250D01*
X42068750Y-64103250D02*
X42068750Y-65881250D01*
X42068750Y-65881250D02*
X40290750Y-65881250D01*
X31146750Y-65881250D02*
X29368750Y-65881250D01*
X29368750Y-65881250D02*
X29368750Y-64103250D01*
X29368750Y-54959250D02*
X29368750Y-53181250D01*
X29368750Y-74009250D02*
X29368750Y-72231250D01*
X29368750Y-84931250D02*
X29368750Y-83153250D01*
X31146750Y-84931250D02*
X29368750Y-84931250D01*
X42068750Y-84931250D02*
X40290750Y-84931250D01*
X42068750Y-83153250D02*
X42068750Y-84931250D01*
X42068750Y-72231250D02*
X42068750Y-74009250D01*
X40290750Y-72231250D02*
X42068750Y-72231250D01*
X29368750Y-72231250D02*
X31146750Y-72231250D01*
X48418750Y-53181250D02*
X50196750Y-53181250D01*
X59340750Y-53181250D02*
X61118750Y-53181250D01*
X61118750Y-53181250D02*
X61118750Y-54959250D01*
X61118750Y-64103250D02*
X61118750Y-65881250D01*
X61118750Y-65881250D02*
X59340750Y-65881250D01*
X50196750Y-65881250D02*
X48418750Y-65881250D01*
X48418750Y-65881250D02*
X48418750Y-64103250D01*
X48418750Y-54959250D02*
X48418750Y-53181250D01*
X48418750Y-74009250D02*
X48418750Y-72231250D01*
X48418750Y-84931250D02*
X48418750Y-83153250D01*
X50196750Y-84931250D02*
X48418750Y-84931250D01*
X61118750Y-84931250D02*
X59340750Y-84931250D01*
X61118750Y-83153250D02*
X61118750Y-84931250D01*
X61118750Y-72231250D02*
X61118750Y-74009250D01*
X59340750Y-72231250D02*
X61118750Y-72231250D01*
X48418750Y-72231250D02*
X50196750Y-72231250D01*
X67468750Y-53181250D02*
X69246750Y-53181250D01*
X78390750Y-53181250D02*
X80168750Y-53181250D01*
X80168750Y-53181250D02*
X80168750Y-54959250D01*
X80168750Y-64103250D02*
X80168750Y-65881250D01*
X80168750Y-65881250D02*
X78390750Y-65881250D01*
X69246750Y-65881250D02*
X67468750Y-65881250D01*
X67468750Y-65881250D02*
X67468750Y-64103250D01*
X67468750Y-54959250D02*
X67468750Y-53181250D01*
X67468750Y-74009250D02*
X67468750Y-72231250D01*
X67468750Y-84931250D02*
X67468750Y-83153250D01*
X69246750Y-84931250D02*
X67468750Y-84931250D01*
X80168750Y-84931250D02*
X78390750Y-84931250D01*
X80168750Y-83153250D02*
X80168750Y-84931250D01*
X80168750Y-72231250D02*
X80168750Y-74009250D01*
X78390750Y-72231250D02*
X80168750Y-72231250D01*
X67468750Y-72231250D02*
X69246750Y-72231250D01*
X86518750Y-54959250D02*
X86518750Y-53181250D01*
X86518750Y-65881250D02*
X86518750Y-64103250D01*
X88296750Y-65881250D02*
X86518750Y-65881250D01*
X99218750Y-65881250D02*
X97440750Y-65881250D01*
X99218750Y-64103250D02*
X99218750Y-65881250D01*
X99218750Y-53181250D02*
X99218750Y-54959250D01*
X97440750Y-53181250D02*
X99218750Y-53181250D01*
X86518750Y-53181250D02*
X88296750Y-53181250D01*
X86518750Y-72231250D02*
X88296750Y-72231250D01*
X97440750Y-72231250D02*
X99218750Y-72231250D01*
X99218750Y-72231250D02*
X99218750Y-74009250D01*
X99218750Y-83153250D02*
X99218750Y-84931250D01*
X99218750Y-84931250D02*
X97440750Y-84931250D01*
X88296750Y-84931250D02*
X86518750Y-84931250D01*
X86518750Y-84931250D02*
X86518750Y-83153250D01*
X86518750Y-74009250D02*
X86518750Y-72231250D01*
D11*
X126166666Y-86252380D02*
X125833333Y-85776190D01*
X125595238Y-86252380D02*
X125595238Y-85252380D01*
X125976190Y-85252380D01*
X126071428Y-85300000D01*
X126119047Y-85347619D01*
X126166666Y-85442857D01*
X126166666Y-85585714D01*
X126119047Y-85680952D01*
X126071428Y-85728571D01*
X125976190Y-85776190D01*
X125595238Y-85776190D01*
X126595238Y-85728571D02*
X126928571Y-85728571D01*
X127071428Y-86252380D02*
X126595238Y-86252380D01*
X126595238Y-85252380D01*
X127071428Y-85252380D01*
X127833333Y-85728571D02*
X127500000Y-85728571D01*
X127500000Y-86252380D02*
X127500000Y-85252380D01*
X127976190Y-85252380D01*
X128500000Y-85252380D02*
X128500000Y-85490476D01*
X128261904Y-85395238D02*
X128500000Y-85490476D01*
X128738095Y-85395238D01*
X128357142Y-85680952D02*
X128500000Y-85490476D01*
X128642857Y-85680952D01*
X129261904Y-85252380D02*
X129261904Y-85490476D01*
X129023809Y-85395238D02*
X129261904Y-85490476D01*
X129500000Y-85395238D01*
X129119047Y-85680952D02*
X129261904Y-85490476D01*
X129404761Y-85680952D01*
X23666666Y-86252380D02*
X23333333Y-85776190D01*
X23095238Y-86252380D02*
X23095238Y-85252380D01*
X23476190Y-85252380D01*
X23571428Y-85300000D01*
X23619047Y-85347619D01*
X23666666Y-85442857D01*
X23666666Y-85585714D01*
X23619047Y-85680952D01*
X23571428Y-85728571D01*
X23476190Y-85776190D01*
X23095238Y-85776190D01*
X24095238Y-85728571D02*
X24428571Y-85728571D01*
X24571428Y-86252380D02*
X24095238Y-86252380D01*
X24095238Y-85252380D01*
X24571428Y-85252380D01*
X25333333Y-85728571D02*
X25000000Y-85728571D01*
X25000000Y-86252380D02*
X25000000Y-85252380D01*
X25476190Y-85252380D01*
X26000000Y-85252380D02*
X26000000Y-85490476D01*
X25761904Y-85395238D02*
X26000000Y-85490476D01*
X26238095Y-85395238D01*
X25857142Y-85680952D02*
X26000000Y-85490476D01*
X26142857Y-85680952D01*
X26761904Y-85252380D02*
X26761904Y-85490476D01*
X26523809Y-85395238D02*
X26761904Y-85490476D01*
X27000000Y-85395238D01*
X26619047Y-85680952D02*
X26761904Y-85490476D01*
X26904761Y-85680952D01*
X126166666Y-43752380D02*
X125833333Y-43276190D01*
X125595238Y-43752380D02*
X125595238Y-42752380D01*
X125976190Y-42752380D01*
X126071428Y-42800000D01*
X126119047Y-42847619D01*
X126166666Y-42942857D01*
X126166666Y-43085714D01*
X126119047Y-43180952D01*
X126071428Y-43228571D01*
X125976190Y-43276190D01*
X125595238Y-43276190D01*
X126595238Y-43228571D02*
X126928571Y-43228571D01*
X127071428Y-43752380D02*
X126595238Y-43752380D01*
X126595238Y-42752380D01*
X127071428Y-42752380D01*
X127833333Y-43228571D02*
X127500000Y-43228571D01*
X127500000Y-43752380D02*
X127500000Y-42752380D01*
X127976190Y-42752380D01*
X128500000Y-42752380D02*
X128500000Y-42990476D01*
X128261904Y-42895238D02*
X128500000Y-42990476D01*
X128738095Y-42895238D01*
X128357142Y-43180952D02*
X128500000Y-42990476D01*
X128642857Y-43180952D01*
X129261904Y-42752380D02*
X129261904Y-42990476D01*
X129023809Y-42895238D02*
X129261904Y-42990476D01*
X129500000Y-42895238D01*
X129119047Y-43180952D02*
X129261904Y-42990476D01*
X129404761Y-43180952D01*
X23666666Y-43752380D02*
X23333333Y-43276190D01*
X23095238Y-43752380D02*
X23095238Y-42752380D01*
X23476190Y-42752380D01*
X23571428Y-42800000D01*
X23619047Y-42847619D01*
X23666666Y-42942857D01*
X23666666Y-43085714D01*
X23619047Y-43180952D01*
X23571428Y-43228571D01*
X23476190Y-43276190D01*
X23095238Y-43276190D01*
X24095238Y-43228571D02*
X24428571Y-43228571D01*
X24571428Y-43752380D02*
X24095238Y-43752380D01*
X24095238Y-42752380D01*
X24571428Y-42752380D01*
X25333333Y-43228571D02*
X25000000Y-43228571D01*
X25000000Y-43752380D02*
X25000000Y-42752380D01*
X25476190Y-42752380D01*
X26000000Y-42752380D02*
X26000000Y-42990476D01*
X25761904Y-42895238D02*
X26000000Y-42990476D01*
X26238095Y-42895238D01*
X25857142Y-43180952D02*
X26000000Y-42990476D01*
X26142857Y-43180952D01*
X26761904Y-42752380D02*
X26761904Y-42990476D01*
X26523809Y-42895238D02*
X26761904Y-42990476D01*
X27000000Y-42895238D01*
X26619047Y-43180952D02*
X26761904Y-42990476D01*
X26904761Y-43180952D01*
M02*
